<?xml version="1.0" encoding="UTF-8" standalone="no"?>
<!DOCTYPE svg PUBLIC "-//W3C//DTD SVG 1.1//EN" "http://www.w3.org/Graphics/SVG/1.1/DTD/svg11.dtd">
<svg xmlns="http://www.w3.org/2000/svg" xmlns:xlink="http://www.w3.org/1999/xlink" viewBox="0 0 203.50490949939518 203.5049094993952" version="1.1" xml:space="preserve">
<defs>
<polygon id="s12" stroke="#008F00" stroke-opacity="1" stroke-width="2.0" stroke-linejoin="round" points="0.0,0.0 20.0,0.0 20.0,20.0 0.0,20.0"/>
<path id="p12" fill-rule="evenodd" stroke="#73FCD6" stroke-opacity="1" stroke-width="2.8000000000000007" d="M10.0,0.0 L14.20807779837732,5.791922201622681 L20.0,10.0 L14.20807779837732,14.20807779837732 L10.0,20.0 L5.791922201622681,14.20807779837732 L0.0,10.0 L5.791922201622681,5.791922201622681 Z"/>
<polygon id="s30" stroke="#008F00" stroke-opacity="1" stroke-width="2.0" stroke-linejoin="round" points="0.0,0.0 20.0,0.0 32.469796037174675,15.636629649360593 12.469796037174671,15.636629649360593"/>
<path id="p30" fill-rule="evenodd" stroke="#73FCD6" stroke-opacity="1" stroke-width="2.8000000000000007" d="M10.0,0.0 L15.381880745856396,7.407523356728657 L6.2348980185873355,7.8183148246802965 L7.408041530430599,3.567524776127457 Z M26.234898018587334,7.8183148246802965 L25.061754506744073,12.06910487323314 L22.46979603717467,15.636629649360593 L17.087915291318275,8.229106292631936 Z"/>
<polygon id="s31" stroke="#008F00" stroke-opacity="1" stroke-width="2.0" stroke-linejoin="round" points="0.0,0.0 20.0,0.0 24.450418679126287,19.498558243636474 4.4504186791262885,19.498558243636474"/>
<path id="p31" fill-rule="evenodd" stroke="#73FCD6" stroke-opacity="1" stroke-width="2.8000000000000007" d="M10.0,0.0 L14.767289632309442,6.561611259560385 L22.225209339563143,9.749279121818237 L18.11889369423456,14.449335557141262 L14.450418679126287,19.498558243636474 L9.683129046816843,12.936946984076087 L2.2252093395631443,9.749279121818237 L6.33152498489174,5.049222686495228 Z"/>
<polygon id="s33" stroke="#008F00" stroke-opacity="1" stroke-width="2.0" stroke-linejoin="round" points="0.0,0.0 20.0,0.0 38.01937735804838,8.677674782351163 18.019377358048384,8.677674782351163"/>
<path id="p33" fill-rule="evenodd" stroke="#73FCD6" stroke-opacity="1" stroke-width="2.8000000000000007" d="M10.0,0.0 L11.987943833509105,2.7361699513540922 L9.009688679024192,4.3388373911755815 L8.577590289166055,1.9577790094944705 Z M29.00968867902419,4.3388373911755815 L29.441787068882334,6.7198957728566935 L28.01937735804838,8.677674782351163 L26.03143352453928,5.941504830997072 Z"/>
<polygon id="s240" stroke="#008F00" stroke-opacity="1" stroke-width="2.0" stroke-linejoin="round" points="0.0,0.0 20.0,0.0 39.49855824363647,4.450418679126288 19.498558243636474,4.450418679126288"/>
<path id="p240" fill-rule="evenodd" stroke="#73FCD6" stroke-opacity="1" stroke-width="2.8000000000000007" d="M10.0,0.0 L10.891605121372127,1.2271891692561034 L9.749279121818237,2.225209339563144 L9.243325797465804,1.0414726920550101 Z M29.749279121818233,2.225209339563144 L30.25523244617066,3.4089459870712737 L29.49855824363647,4.450418679126288 L28.606953122264343,3.223229509870185 Z"/>
<polygon id="s241" stroke="#008F00" stroke-opacity="1" stroke-width="2.0" stroke-linejoin="round" points="0.0,0.0 20.0,0.0 35.6366296493606,12.46979603717467 15.636629649360597,12.46979603717467"/>
<path id="p241" fill-rule="evenodd" stroke="#73FCD6" stroke-opacity="1" stroke-width="2.8000000000000007" d="M10.0,0.0 L16.749383219472435,9.289729037613379 L27.8183148246803,6.234898018587335 L27.663599069550635,9.67991197387716 L25.6366296493606,12.46979603717467 L18.88724642988816,3.1800669995612916 L7.818314824680298,6.234898018587335 L7.973030579809958,2.7898840632975124 Z"/>
<polygon id="s242" stroke="#008F00" stroke-opacity="1" stroke-width="2.0" stroke-linejoin="round" points="0.0,0.0 20.0,0.0 28.67767478235116,18.019377358048384 8.677674782351163,18.019377358048384"/>
<path id="p242" fill-rule="evenodd" stroke="#73FCD6" stroke-opacity="1" stroke-width="2.8000000000000007" d="M10.0,0.0 L15.362395858509831,7.380704710062428 L24.33883739117558,9.009688679024192 L21.811980459575246,13.705375690687035 L18.67767478235116,18.019377358048384 L13.315278923841333,10.638672647985958 L4.3388373911755815,9.009688679024192 L6.86569432277593,4.314001667361357 Z"/>
</defs>
<g transform="translate(72.2538965060611 17.4504186791263) scale(1 -1) rotate(0.0)">
<use xlink:href="#s240" transform="matrix(1.0 0.0 0.0 1.0 0.0 0.0)" fill="#FFFFFF" fill-opacity="1"/>
<use xlink:href="#s33" transform="matrix(1.0 0.0 0.0 1.0 -18.01937735804838 -8.677674782351163)" fill="#FFFFFF" fill-opacity="1"/>
<use xlink:href="#s33" transform="matrix(0.9749279121818235 -0.2225209339563144 0.2225209339563144 0.9749279121818235 19.999999999999996 0.0)" fill="#FFFFFF" fill-opacity="1"/>
<use xlink:href="#s241" transform="matrix(1.0 0.0 0.0 1.0 -33.65600700740898 -21.147470819525832)" fill="#FFFFFF" fill-opacity="1"/>
<use xlink:href="#s241" transform="matrix(0.9749279121818237 -0.2225209339563143 0.2225209339563143 0.9749279121818237 1.9806226419516157 -8.677674782351167)" fill="#FFFFFF" fill-opacity="1"/>
<use xlink:href="#s241" transform="matrix(0.900968867902419 -0.433883739117558 0.433883739117558 0.900968867902419 39.49855824363647 -4.45041867912629)" fill="#FFFFFF" fill-opacity="1"/>
<use xlink:href="#s30" transform="matrix(1.0 0.0 0.0 1.0 -46.125803044583655 -36.78410046888642)" fill="#FFFFFF" fill-opacity="1"/>
<use xlink:href="#s30" transform="matrix(0.9749279121818237 -0.2225209339563144 0.2225209339563144 0.9749279121818237 -13.656007007408979 -21.147470819525832)" fill="#FFFFFF" fill-opacity="1"/>
<use xlink:href="#s30" transform="matrix(0.9009688679024193 -0.433883739117558 0.433883739117558 0.9009688679024193 21.479180885588097 -13.128093461477452)" fill="#FFFFFF" fill-opacity="1"/>
<use xlink:href="#s30" transform="matrix(0.7818314824680298 -0.6234898018587334 0.6234898018587334 0.7818314824680298 57.517935601684854 -13.128093461477448)" fill="#FFFFFF" fill-opacity="1"/>
<use xlink:href="#s242" transform="matrix(1.0 0.0 0.0 1.0 -54.80347782693482 -54.80347782693481)" fill="#FFFFFF" fill-opacity="1"/>
<use xlink:href="#s242" transform="matrix(0.9749279121818235 -0.22252093395631445 0.22252093395631445 0.9749279121818235 -26.12580304458365 -36.78410046888642)" fill="#FFFFFF" fill-opacity="1"/>
<use xlink:href="#s242" transform="matrix(0.900968867902419 -0.43388373911755806 0.43388373911755806 0.900968867902419 5.842551236227489 -25.59788949865212)" fill="#FFFFFF" fill-opacity="1"/>
<use xlink:href="#s242" transform="matrix(0.7818314824680299 -0.6234898018587335 0.6234898018587335 0.7818314824680299 39.49855824363649 -21.80576824382861)" fill="#FFFFFF" fill-opacity="1"/>
<use xlink:href="#s242" transform="matrix(0.6234898018587336 -0.7818314824680296 0.7818314824680296 0.6234898018587336 73.15456525104545 -25.597889498652115)" fill="#FFFFFF" fill-opacity="1"/>
<use xlink:href="#s31" transform="matrix(1.0 0.0 0.0 1.0 -59.2538965060611 -74.30203607057129)" fill="#FFFFFF" fill-opacity="1"/>
<use xlink:href="#s31" transform="matrix(0.9749279121818237 -0.22252093395631434 0.22252093395631434 0.9749279121818237 -34.80347782693482 -54.80347782693481)" fill="#FFFFFF" fill-opacity="1"/>
<use xlink:href="#s31" transform="matrix(0.900968867902419 -0.43388373911755806 0.43388373911755806 0.900968867902419 -6.62724480094718 -41.23451914801271)" fill="#FFFFFF" fill-opacity="1"/>
<use xlink:href="#s31" transform="matrix(0.7818314824680299 -0.6234898018587334 0.6234898018587334 0.7818314824680299 23.861928594275874 -34.275564281003284)" fill="#FFFFFF" fill-opacity="1"/>
<use xlink:href="#s31" transform="matrix(0.6234898018587338 -0.7818314824680298 0.7818314824680298 0.6234898018587338 55.135187892997074 -34.275564281003284)" fill="#FFFFFF" fill-opacity="1"/>
<use xlink:href="#s31" transform="matrix(0.4338837391175583 -0.9009688679024189 0.9009688679024189 0.4338837391175583 85.62436128822013 -41.23451914801271)" fill="#FFFFFF" fill-opacity="1"/>
<use xlink:href="#s12" transform="matrix(-0.0 1.0 -1.0 0.0 -39.2538965060611 -94.30203607057129)" fill="#FFFFFF" fill-opacity="1"/>
<use xlink:href="#s12" transform="matrix(0.22252093395631434 0.9749279121818237 -0.9749279121818237 0.22252093395631434 -19.75533826242463 -78.75245474969758)" fill="#FFFFFF" fill-opacity="1"/>
<use xlink:href="#s12" transform="matrix(0.43388373911755806 0.9009688679024193 -0.9009688679024193 0.43388373911755806 2.7144577747500414 -67.93157128841226)" fill="#FFFFFF" fill-opacity="1"/>
<use xlink:href="#s12" transform="matrix(0.6234898018587334 0.7818314824680299 -0.7818314824680299 0.6234898018587334 27.028762206461796 -62.38198996753853)" fill="#FFFFFF" fill-opacity="1"/>
<use xlink:href="#s12" transform="matrix(0.7818314824680297 0.6234898018587337 -0.6234898018587337 0.7818314824680297 51.96835428081115 -62.381989967538544)" fill="#FFFFFF" fill-opacity="1"/>
<use xlink:href="#s12" transform="matrix(0.900968867902419 0.43388373911755834 -0.43388373911755834 0.900968867902419 76.28265871252292 -67.93157128841226)" fill="#FFFFFF" fill-opacity="1"/>
<use xlink:href="#s12" transform="matrix(0.9749279121818234 0.2225209339563147 -0.2225209339563147 0.9749279121818234 98.75245474969759 -78.75245474969756)" fill="#FFFFFF" fill-opacity="1"/>
<use xlink:href="#s31" transform="matrix(-0.0 1.0 -1.0 0.0 -19.75533826242463 -98.75245474969758)" fill="#FFFFFF" fill-opacity="1"/>
<use xlink:href="#s31" transform="matrix(-0.22252093395631434 0.9749279121818237 -0.9749279121818237 -0.22252093395631434 -34.80347782693482 -113.80059431420776)" fill="#FFFFFF" fill-opacity="1"/>
<use xlink:href="#s31" transform="matrix(0.22252093395631434 0.9749279121818237 -0.9749279121818237 0.22252093395631434 -1.7359609043762436 -87.43012953204874)" fill="#FFFFFF" fill-opacity="1"/>
<use xlink:href="#s31" transform="matrix(0.43388373911755806 0.9009688679024193 -0.9009688679024193 0.43388373911755806 18.35108742411064 -80.40136732558693)" fill="#FFFFFF" fill-opacity="1"/>
<use xlink:href="#s31" transform="matrix(0.6234898018587334 0.7818314824680299 -0.7818314824680299 0.6234898018587334 39.498558243636474 -78.01861961689912)" fill="#FFFFFF" fill-opacity="1"/>
<use xlink:href="#s31" transform="matrix(0.7818314824680297 0.6234898018587337 -0.6234898018587337 0.7818314824680297 60.64602906316232 -80.40136732558692)" fill="#FFFFFF" fill-opacity="1"/>
<use xlink:href="#s31" transform="matrix(0.900968867902419 0.43388373911755834 -0.43388373911755834 0.900968867902419 80.7330773916492 -87.43012953204872)" fill="#FFFFFF" fill-opacity="1"/>
<use xlink:href="#s31" transform="matrix(0.9749279121818234 0.2225209339563147 -0.2225209339563147 0.9749279121818234 98.7524547496976 -98.75245474969755)" fill="#FFFFFF" fill-opacity="1"/>
<use xlink:href="#s242" transform="matrix(-0.0 1.0 -1.0 0.0 -1.7359609043762454 -107.43012953204874)" fill="#FFFFFF" fill-opacity="1"/>
<use xlink:href="#s242" transform="matrix(-0.22252093395631434 0.9749279121818237 -0.9749279121818237 -0.22252093395631434 -15.304919583298343 -118.25101299333406)" fill="#FFFFFF" fill-opacity="1"/>
<use xlink:href="#s242" transform="matrix(-0.43388373911755806 0.9009688679024195 -0.9009688679024195 -0.43388373911755806 -26.125803044583655 -131.81997167225614)" fill="#FFFFFF" fill-opacity="1"/>
<use xlink:href="#s242" transform="matrix(0.22252093395631434 0.9749279121818237 -0.9749279121818237 0.22252093395631434 13.900668744984356 -99.89992556922341)" fill="#FFFFFF" fill-opacity="1"/>
<use xlink:href="#s242" transform="matrix(0.43388373911755806 0.9009688679024193 -0.9009688679024193 0.43388373911755806 30.820883461285312 -96.03799697494753)" fill="#FFFFFF" fill-opacity="1"/>
<use xlink:href="#s242" transform="matrix(0.6234898018587334 0.7818314824680299 -0.7818314824680299 0.6234898018587334 48.17623302598764 -96.03799697494749)" fill="#FFFFFF" fill-opacity="1"/>
<use xlink:href="#s242" transform="matrix(0.7818314824680297 0.6234898018587337 -0.6234898018587337 0.7818314824680297 65.0964477422886 -99.89992556922338)" fill="#FFFFFF" fill-opacity="1"/>
<use xlink:href="#s242" transform="matrix(0.900968867902419 0.43388373911755834 -0.43388373911755834 0.900968867902419 80.73307739164922 -107.43012953204874)" fill="#FFFFFF" fill-opacity="1"/>
<use xlink:href="#s242" transform="matrix(0.9749279121818234 0.2225209339563147 -0.2225209339563147 0.9749279121818234 94.30203607057132 -118.25101299333403)" fill="#FFFFFF" fill-opacity="1"/>
<use xlink:href="#s30" transform="matrix(-0.0 1.0 -1.0 0.0 13.900668744984348 -119.89992556922341)" fill="#FFFFFF" fill-opacity="1"/>
<use xlink:href="#s30" transform="matrix(-0.22252093395631453 0.9749279121818237 -0.9749279121818237 -0.22252093395631453 2.714457774750045 -126.9286877756852)" fill="#FFFFFF" fill-opacity="1"/>
<use xlink:href="#s30" transform="matrix(-0.4338837391175582 0.9009688679024193 -0.9009688679024193 -0.4338837391175582 -6.62724480094718 -136.27039035138245)" fill="#FFFFFF" fill-opacity="1"/>
<use xlink:href="#s30" transform="matrix(-0.6234898018587337 0.7818314824680302 -0.7818314824680302 -0.6234898018587337 -13.656007007408983 -147.45660132161674)" fill="#FFFFFF" fill-opacity="1"/>
<use xlink:href="#s30" transform="matrix(0.22252093395631434 0.9749279121818237 -0.9749279121818237 0.22252093395631434 26.37046478215903 -115.536555218584)" fill="#FFFFFF" fill-opacity="1"/>
<use xlink:href="#s30" transform="matrix(0.43388373911755806 0.9009688679024193 -0.9009688679024193 0.43388373911755806 39.498558243636474 -114.05737433299592)" fill="#FFFFFF" fill-opacity="1"/>
<use xlink:href="#s30" transform="matrix(0.6234898018587334 0.7818314824680299 -0.7818314824680299 0.6234898018587334 52.62665170511393 -115.53655521858396)" fill="#FFFFFF" fill-opacity="1"/>
<use xlink:href="#s30" transform="matrix(0.7818314824680297 0.6234898018587337 -0.6234898018587337 0.7818314824680297 65.09644774228862 -119.89992556922338)" fill="#FFFFFF" fill-opacity="1"/>
<use xlink:href="#s30" transform="matrix(0.900968867902419 0.43388373911755834 -0.43388373911755834 0.900968867902419 76.28265871252293 -126.92868777568522)" fill="#FFFFFF" fill-opacity="1"/>
<use xlink:href="#s30" transform="matrix(0.9749279121818234 0.2225209339563147 -0.2225209339563147 0.9749279121818234 85.62436128822016 -136.2703903513824)" fill="#FFFFFF" fill-opacity="1"/>
<use xlink:href="#s241" transform="matrix(-0.0 1.0 -1.0 0.0 26.37046478215902 -135.536555218584)" fill="#FFFFFF" fill-opacity="1"/>
<use xlink:href="#s241" transform="matrix(-0.2225209339563144 0.9749279121818235 -0.9749279121818235 -0.2225209339563144 18.351087424110634 -139.3984838128599)" fill="#FFFFFF" fill-opacity="1"/>
<use xlink:href="#s241" transform="matrix(-0.43388373911755834 0.9009688679024193 -0.9009688679024193 -0.43388373911755834 11.392132557101212 -144.9480651337336)" fill="#FFFFFF" fill-opacity="1"/>
<use xlink:href="#s241" transform="matrix(-0.6234898018587337 0.7818314824680299 -0.7818314824680299 -0.6234898018587337 5.842551236227493 -151.90702000074305)" fill="#FFFFFF" fill-opacity="1"/>
<use xlink:href="#s241" transform="matrix(-0.78183148246803 0.6234898018587339 -0.6234898018587339 -0.78183148246803 1.9806226419516175 -159.92639735879143)" fill="#FFFFFF" fill-opacity="1"/>
<use xlink:href="#s241" transform="matrix(0.22252093395631434 0.9749279121818237 -0.9749279121818237 0.22252093395631434 35.048139564510194 -133.5559325766324)" fill="#FFFFFF" fill-opacity="1"/>
<use xlink:href="#s241" transform="matrix(0.43388373911755806 0.9009688679024193 -0.9009688679024193 0.43388373911755806 43.94897692276276 -133.5559325766324)" fill="#FFFFFF" fill-opacity="1"/>
<use xlink:href="#s241" transform="matrix(0.6234898018587334 0.7818314824680299 -0.7818314824680299 0.6234898018587334 52.626651705113936 -135.53655521858394)" fill="#FFFFFF" fill-opacity="1"/>
<use xlink:href="#s241" transform="matrix(0.7818314824680297 0.6234898018587337 -0.6234898018587337 0.7818314824680297 60.646029063162324 -139.39848381285987)" fill="#FFFFFF" fill-opacity="1"/>
<use xlink:href="#s241" transform="matrix(0.900968867902419 0.43388373911755834 -0.43388373911755834 0.900968867902419 67.60498393017177 -144.94806513373362)" fill="#FFFFFF" fill-opacity="1"/>
<use xlink:href="#s241" transform="matrix(0.9749279121818234 0.2225209339563147 -0.2225209339563147 0.9749279121818234 73.1545652510455 -151.907020000743)" fill="#FFFFFF" fill-opacity="1"/>
<use xlink:href="#s33" transform="matrix(-0.0 1.0 -1.0 0.0 35.04813956451018 -153.5559325766324)" fill="#FFFFFF" fill-opacity="1"/>
<use xlink:href="#s33" transform="matrix(-0.22252093395631434 0.9749279121818237 -0.9749279121818237 -0.22252093395631434 30.820883461285305 -155.03511346222047)" fill="#FFFFFF" fill-opacity="1"/>
<use xlink:href="#s33" transform="matrix(-0.43388373911755806 0.9009688679024193 -0.9009688679024193 -0.43388373911755806 27.028762206461796 -157.41786117090828)" fill="#FFFFFF" fill-opacity="1"/>
<use xlink:href="#s33" transform="matrix(-0.6234898018587338 0.78183148246803 -0.78183148246803 -0.6234898018587338 23.861928594275888 -160.5846947830942)" fill="#FFFFFF" fill-opacity="1"/>
<use xlink:href="#s33" transform="matrix(-0.7818314824680299 0.6234898018587338 -0.6234898018587338 -0.7818314824680299 21.479180885588093 -164.3768160379177)" fill="#FFFFFF" fill-opacity="1"/>
<use xlink:href="#s33" transform="matrix(-0.9009688679024196 0.4338837391175586 -0.4338837391175586 -0.9009688679024196 20.000000000000007 -168.6040721411426)" fill="#FFFFFF" fill-opacity="1"/>
<use xlink:href="#s33" transform="matrix(0.22252093395631434 0.9749279121818237 -0.9749279121818237 0.22252093395631434 39.49855824363648 -153.05449082026888)" fill="#FFFFFF" fill-opacity="1"/>
<use xlink:href="#s33" transform="matrix(0.43388373911755806 0.9009688679024193 -0.9009688679024193 0.43388373911755806 43.94897692276277 -153.5559325766324)" fill="#FFFFFF" fill-opacity="1"/>
<use xlink:href="#s33" transform="matrix(0.6234898018587334 0.7818314824680299 -0.7818314824680299 0.6234898018587334 48.176233025987656 -155.0351134622204)" fill="#FFFFFF" fill-opacity="1"/>
<use xlink:href="#s33" transform="matrix(0.7818314824680297 0.6234898018587337 -0.6234898018587337 0.7818314824680297 51.96835428081117 -157.41786117090825)" fill="#FFFFFF" fill-opacity="1"/>
<use xlink:href="#s33" transform="matrix(0.900968867902419 0.43388373911755834 -0.43388373911755834 0.900968867902419 55.135187892997095 -160.58469478309422)" fill="#FFFFFF" fill-opacity="1"/>
<use xlink:href="#s33" transform="matrix(0.9749279121818234 0.2225209339563147 -0.2225209339563147 0.9749279121818234 57.51793560168491 -164.37681603791765)" fill="#FFFFFF" fill-opacity="1"/>
<use xlink:href="#s240" transform="matrix(-0.0 1.0 -1.0 0.0 39.49855824363647 -173.05449082026885)" fill="#FFFFFF" fill-opacity="1"/>
<use xlink:href="#s240" transform="matrix(-0.22252093395631445 0.9749279121818237 -0.9749279121818237 -0.22252093395631445 39.49855824363647 -173.05449082026885)" fill="#FFFFFF" fill-opacity="1"/>
<use xlink:href="#s240" transform="matrix(-0.43388373911755806 0.9009688679024195 -0.9009688679024195 -0.43388373911755806 39.49855824363647 -173.05449082026885)" fill="#FFFFFF" fill-opacity="1"/>
<use xlink:href="#s240" transform="matrix(-0.6234898018587337 0.78183148246803 -0.78183148246803 -0.6234898018587337 39.49855824363647 -173.05449082026888)" fill="#FFFFFF" fill-opacity="1"/>
<use xlink:href="#s240" transform="matrix(-0.7818314824680301 0.6234898018587338 -0.6234898018587338 -0.7818314824680301 39.49855824363649 -173.05449082026888)" fill="#FFFFFF" fill-opacity="1"/>
<use xlink:href="#s240" transform="matrix(-0.9009688679024193 0.43388373911755845 -0.43388373911755845 -0.9009688679024193 39.49855824363648 -173.05449082026888)" fill="#FFFFFF" fill-opacity="1"/>
<use xlink:href="#s240" transform="matrix(-0.9749279121818244 0.2225209339563149 -0.2225209339563149 -0.9749279121818244 39.498558243636495 -173.0544908202689)" fill="#FFFFFF" fill-opacity="1"/>
<use xlink:href="#s240" transform="matrix(0.22252093395631434 0.9749279121818237 -0.9749279121818237 0.22252093395631434 39.49855824363648 -173.05449082026888)" fill="#FFFFFF" fill-opacity="1"/>
<use xlink:href="#s240" transform="matrix(0.43388373911755806 0.9009688679024193 -0.9009688679024193 0.43388373911755806 39.49855824363648 -173.05449082026885)" fill="#FFFFFF" fill-opacity="1"/>
<use xlink:href="#s240" transform="matrix(0.6234898018587334 0.7818314824680299 -0.7818314824680299 0.6234898018587334 39.498558243636495 -173.05449082026877)" fill="#FFFFFF" fill-opacity="1"/>
<use xlink:href="#s240" transform="matrix(0.7818314824680297 0.6234898018587337 -0.6234898018587337 0.7818314824680297 39.498558243636495 -173.05449082026885)" fill="#FFFFFF" fill-opacity="1"/>
<use xlink:href="#s240" transform="matrix(0.900968867902419 0.43388373911755834 -0.43388373911755834 0.900968867902419 39.49855824363651 -173.05449082026888)" fill="#FFFFFF" fill-opacity="1"/>
<use xlink:href="#s240" transform="matrix(0.9749279121818234 0.2225209339563147 -0.2225209339563147 0.9749279121818234 39.49855824363654 -173.0544908202688)" fill="#FFFFFF" fill-opacity="1"/>
<use xlink:href="#p240" transform="matrix(1.0 0.0 0.0 1.0 0.0 0.0)" fill="#00AAAA" fill-opacity="1"/>
<use xlink:href="#p33" transform="matrix(1.0 0.0 0.0 1.0 -18.01937735804838 -8.677674782351163)" fill="#00AAAA" fill-opacity="1"/>
<use xlink:href="#p33" transform="matrix(0.9749279121818235 -0.2225209339563144 0.2225209339563144 0.9749279121818235 19.999999999999996 0.0)" fill="#00AAAA" fill-opacity="1"/>
<use xlink:href="#p241" transform="matrix(1.0 0.0 0.0 1.0 -33.65600700740898 -21.147470819525832)" fill="#00AAAA" fill-opacity="1"/>
<use xlink:href="#p241" transform="matrix(0.9749279121818237 -0.2225209339563143 0.2225209339563143 0.9749279121818237 1.9806226419516157 -8.677674782351167)" fill="#00AAAA" fill-opacity="1"/>
<use xlink:href="#p241" transform="matrix(0.900968867902419 -0.433883739117558 0.433883739117558 0.900968867902419 39.49855824363647 -4.45041867912629)" fill="#00AAAA" fill-opacity="1"/>
<use xlink:href="#p30" transform="matrix(1.0 0.0 0.0 1.0 -46.125803044583655 -36.78410046888642)" fill="#00AAAA" fill-opacity="1"/>
<use xlink:href="#p30" transform="matrix(0.9749279121818237 -0.2225209339563144 0.2225209339563144 0.9749279121818237 -13.656007007408979 -21.147470819525832)" fill="#00AAAA" fill-opacity="1"/>
<use xlink:href="#p30" transform="matrix(0.9009688679024193 -0.433883739117558 0.433883739117558 0.9009688679024193 21.479180885588097 -13.128093461477452)" fill="#00AAAA" fill-opacity="1"/>
<use xlink:href="#p30" transform="matrix(0.7818314824680298 -0.6234898018587334 0.6234898018587334 0.7818314824680298 57.517935601684854 -13.128093461477448)" fill="#00AAAA" fill-opacity="1"/>
<use xlink:href="#p242" transform="matrix(1.0 0.0 0.0 1.0 -54.80347782693482 -54.80347782693481)" fill="#00AAAA" fill-opacity="1"/>
<use xlink:href="#p242" transform="matrix(0.9749279121818235 -0.22252093395631445 0.22252093395631445 0.9749279121818235 -26.12580304458365 -36.78410046888642)" fill="#00AAAA" fill-opacity="1"/>
<use xlink:href="#p242" transform="matrix(0.900968867902419 -0.43388373911755806 0.43388373911755806 0.900968867902419 5.842551236227489 -25.59788949865212)" fill="#00AAAA" fill-opacity="1"/>
<use xlink:href="#p242" transform="matrix(0.7818314824680299 -0.6234898018587335 0.6234898018587335 0.7818314824680299 39.49855824363649 -21.80576824382861)" fill="#00AAAA" fill-opacity="1"/>
<use xlink:href="#p242" transform="matrix(0.6234898018587336 -0.7818314824680296 0.7818314824680296 0.6234898018587336 73.15456525104545 -25.597889498652115)" fill="#00AAAA" fill-opacity="1"/>
<use xlink:href="#p31" transform="matrix(1.0 0.0 0.0 1.0 -59.2538965060611 -74.30203607057129)" fill="#00AAAA" fill-opacity="1"/>
<use xlink:href="#p31" transform="matrix(0.9749279121818237 -0.22252093395631434 0.22252093395631434 0.9749279121818237 -34.80347782693482 -54.80347782693481)" fill="#00AAAA" fill-opacity="1"/>
<use xlink:href="#p31" transform="matrix(0.900968867902419 -0.43388373911755806 0.43388373911755806 0.900968867902419 -6.62724480094718 -41.23451914801271)" fill="#00AAAA" fill-opacity="1"/>
<use xlink:href="#p31" transform="matrix(0.7818314824680299 -0.6234898018587334 0.6234898018587334 0.7818314824680299 23.861928594275874 -34.275564281003284)" fill="#00AAAA" fill-opacity="1"/>
<use xlink:href="#p31" transform="matrix(0.6234898018587338 -0.7818314824680298 0.7818314824680298 0.6234898018587338 55.135187892997074 -34.275564281003284)" fill="#00AAAA" fill-opacity="1"/>
<use xlink:href="#p31" transform="matrix(0.4338837391175583 -0.9009688679024189 0.9009688679024189 0.4338837391175583 85.62436128822013 -41.23451914801271)" fill="#00AAAA" fill-opacity="1"/>
<use xlink:href="#p12" transform="matrix(-0.0 1.0 -1.0 0.0 -39.2538965060611 -94.30203607057129)" fill="#00AAAA" fill-opacity="1"/>
<use xlink:href="#p12" transform="matrix(0.22252093395631434 0.9749279121818237 -0.9749279121818237 0.22252093395631434 -19.75533826242463 -78.75245474969758)" fill="#00AAAA" fill-opacity="1"/>
<use xlink:href="#p12" transform="matrix(0.43388373911755806 0.9009688679024193 -0.9009688679024193 0.43388373911755806 2.7144577747500414 -67.93157128841226)" fill="#00AAAA" fill-opacity="1"/>
<use xlink:href="#p12" transform="matrix(0.6234898018587334 0.7818314824680299 -0.7818314824680299 0.6234898018587334 27.028762206461796 -62.38198996753853)" fill="#00AAAA" fill-opacity="1"/>
<use xlink:href="#p12" transform="matrix(0.7818314824680297 0.6234898018587337 -0.6234898018587337 0.7818314824680297 51.96835428081115 -62.381989967538544)" fill="#00AAAA" fill-opacity="1"/>
<use xlink:href="#p12" transform="matrix(0.900968867902419 0.43388373911755834 -0.43388373911755834 0.900968867902419 76.28265871252292 -67.93157128841226)" fill="#00AAAA" fill-opacity="1"/>
<use xlink:href="#p12" transform="matrix(0.9749279121818234 0.2225209339563147 -0.2225209339563147 0.9749279121818234 98.75245474969759 -78.75245474969756)" fill="#00AAAA" fill-opacity="1"/>
<use xlink:href="#p31" transform="matrix(-0.0 1.0 -1.0 0.0 -19.75533826242463 -98.75245474969758)" fill="#00AAAA" fill-opacity="1"/>
<use xlink:href="#p31" transform="matrix(-0.22252093395631434 0.9749279121818237 -0.9749279121818237 -0.22252093395631434 -34.80347782693482 -113.80059431420776)" fill="#00AAAA" fill-opacity="1"/>
<use xlink:href="#p31" transform="matrix(0.22252093395631434 0.9749279121818237 -0.9749279121818237 0.22252093395631434 -1.7359609043762436 -87.43012953204874)" fill="#00AAAA" fill-opacity="1"/>
<use xlink:href="#p31" transform="matrix(0.43388373911755806 0.9009688679024193 -0.9009688679024193 0.43388373911755806 18.35108742411064 -80.40136732558693)" fill="#00AAAA" fill-opacity="1"/>
<use xlink:href="#p31" transform="matrix(0.6234898018587334 0.7818314824680299 -0.7818314824680299 0.6234898018587334 39.498558243636474 -78.01861961689912)" fill="#00AAAA" fill-opacity="1"/>
<use xlink:href="#p31" transform="matrix(0.7818314824680297 0.6234898018587337 -0.6234898018587337 0.7818314824680297 60.64602906316232 -80.40136732558692)" fill="#00AAAA" fill-opacity="1"/>
<use xlink:href="#p31" transform="matrix(0.900968867902419 0.43388373911755834 -0.43388373911755834 0.900968867902419 80.7330773916492 -87.43012953204872)" fill="#00AAAA" fill-opacity="1"/>
<use xlink:href="#p31" transform="matrix(0.9749279121818234 0.2225209339563147 -0.2225209339563147 0.9749279121818234 98.7524547496976 -98.75245474969755)" fill="#00AAAA" fill-opacity="1"/>
<use xlink:href="#p242" transform="matrix(-0.0 1.0 -1.0 0.0 -1.7359609043762454 -107.43012953204874)" fill="#00AAAA" fill-opacity="1"/>
<use xlink:href="#p242" transform="matrix(-0.22252093395631434 0.9749279121818237 -0.9749279121818237 -0.22252093395631434 -15.304919583298343 -118.25101299333406)" fill="#00AAAA" fill-opacity="1"/>
<use xlink:href="#p242" transform="matrix(-0.43388373911755806 0.9009688679024195 -0.9009688679024195 -0.43388373911755806 -26.125803044583655 -131.81997167225614)" fill="#00AAAA" fill-opacity="1"/>
<use xlink:href="#p242" transform="matrix(0.22252093395631434 0.9749279121818237 -0.9749279121818237 0.22252093395631434 13.900668744984356 -99.89992556922341)" fill="#00AAAA" fill-opacity="1"/>
<use xlink:href="#p242" transform="matrix(0.43388373911755806 0.9009688679024193 -0.9009688679024193 0.43388373911755806 30.820883461285312 -96.03799697494753)" fill="#00AAAA" fill-opacity="1"/>
<use xlink:href="#p242" transform="matrix(0.6234898018587334 0.7818314824680299 -0.7818314824680299 0.6234898018587334 48.17623302598764 -96.03799697494749)" fill="#00AAAA" fill-opacity="1"/>
<use xlink:href="#p242" transform="matrix(0.7818314824680297 0.6234898018587337 -0.6234898018587337 0.7818314824680297 65.0964477422886 -99.89992556922338)" fill="#00AAAA" fill-opacity="1"/>
<use xlink:href="#p242" transform="matrix(0.900968867902419 0.43388373911755834 -0.43388373911755834 0.900968867902419 80.73307739164922 -107.43012953204874)" fill="#00AAAA" fill-opacity="1"/>
<use xlink:href="#p242" transform="matrix(0.9749279121818234 0.2225209339563147 -0.2225209339563147 0.9749279121818234 94.30203607057132 -118.25101299333403)" fill="#00AAAA" fill-opacity="1"/>
<use xlink:href="#p30" transform="matrix(-0.0 1.0 -1.0 0.0 13.900668744984348 -119.89992556922341)" fill="#00AAAA" fill-opacity="1"/>
<use xlink:href="#p30" transform="matrix(-0.22252093395631453 0.9749279121818237 -0.9749279121818237 -0.22252093395631453 2.714457774750045 -126.9286877756852)" fill="#00AAAA" fill-opacity="1"/>
<use xlink:href="#p30" transform="matrix(-0.4338837391175582 0.9009688679024193 -0.9009688679024193 -0.4338837391175582 -6.62724480094718 -136.27039035138245)" fill="#00AAAA" fill-opacity="1"/>
<use xlink:href="#p30" transform="matrix(-0.6234898018587337 0.7818314824680302 -0.7818314824680302 -0.6234898018587337 -13.656007007408983 -147.45660132161674)" fill="#00AAAA" fill-opacity="1"/>
<use xlink:href="#p30" transform="matrix(0.22252093395631434 0.9749279121818237 -0.9749279121818237 0.22252093395631434 26.37046478215903 -115.536555218584)" fill="#00AAAA" fill-opacity="1"/>
<use xlink:href="#p30" transform="matrix(0.43388373911755806 0.9009688679024193 -0.9009688679024193 0.43388373911755806 39.498558243636474 -114.05737433299592)" fill="#00AAAA" fill-opacity="1"/>
<use xlink:href="#p30" transform="matrix(0.6234898018587334 0.7818314824680299 -0.7818314824680299 0.6234898018587334 52.62665170511393 -115.53655521858396)" fill="#00AAAA" fill-opacity="1"/>
<use xlink:href="#p30" transform="matrix(0.7818314824680297 0.6234898018587337 -0.6234898018587337 0.7818314824680297 65.09644774228862 -119.89992556922338)" fill="#00AAAA" fill-opacity="1"/>
<use xlink:href="#p30" transform="matrix(0.900968867902419 0.43388373911755834 -0.43388373911755834 0.900968867902419 76.28265871252293 -126.92868777568522)" fill="#00AAAA" fill-opacity="1"/>
<use xlink:href="#p30" transform="matrix(0.9749279121818234 0.2225209339563147 -0.2225209339563147 0.9749279121818234 85.62436128822016 -136.2703903513824)" fill="#00AAAA" fill-opacity="1"/>
<use xlink:href="#p241" transform="matrix(-0.0 1.0 -1.0 0.0 26.37046478215902 -135.536555218584)" fill="#00AAAA" fill-opacity="1"/>
<use xlink:href="#p241" transform="matrix(-0.2225209339563144 0.9749279121818235 -0.9749279121818235 -0.2225209339563144 18.351087424110634 -139.3984838128599)" fill="#00AAAA" fill-opacity="1"/>
<use xlink:href="#p241" transform="matrix(-0.43388373911755834 0.9009688679024193 -0.9009688679024193 -0.43388373911755834 11.392132557101212 -144.9480651337336)" fill="#00AAAA" fill-opacity="1"/>
<use xlink:href="#p241" transform="matrix(-0.6234898018587337 0.7818314824680299 -0.7818314824680299 -0.6234898018587337 5.842551236227493 -151.90702000074305)" fill="#00AAAA" fill-opacity="1"/>
<use xlink:href="#p241" transform="matrix(-0.78183148246803 0.6234898018587339 -0.6234898018587339 -0.78183148246803 1.9806226419516175 -159.92639735879143)" fill="#00AAAA" fill-opacity="1"/>
<use xlink:href="#p241" transform="matrix(0.22252093395631434 0.9749279121818237 -0.9749279121818237 0.22252093395631434 35.048139564510194 -133.5559325766324)" fill="#00AAAA" fill-opacity="1"/>
<use xlink:href="#p241" transform="matrix(0.43388373911755806 0.9009688679024193 -0.9009688679024193 0.43388373911755806 43.94897692276276 -133.5559325766324)" fill="#00AAAA" fill-opacity="1"/>
<use xlink:href="#p241" transform="matrix(0.6234898018587334 0.7818314824680299 -0.7818314824680299 0.6234898018587334 52.626651705113936 -135.53655521858394)" fill="#00AAAA" fill-opacity="1"/>
<use xlink:href="#p241" transform="matrix(0.7818314824680297 0.6234898018587337 -0.6234898018587337 0.7818314824680297 60.646029063162324 -139.39848381285987)" fill="#00AAAA" fill-opacity="1"/>
<use xlink:href="#p241" transform="matrix(0.900968867902419 0.43388373911755834 -0.43388373911755834 0.900968867902419 67.60498393017177 -144.94806513373362)" fill="#00AAAA" fill-opacity="1"/>
<use xlink:href="#p241" transform="matrix(0.9749279121818234 0.2225209339563147 -0.2225209339563147 0.9749279121818234 73.1545652510455 -151.907020000743)" fill="#00AAAA" fill-opacity="1"/>
<use xlink:href="#p33" transform="matrix(-0.0 1.0 -1.0 0.0 35.04813956451018 -153.5559325766324)" fill="#00AAAA" fill-opacity="1"/>
<use xlink:href="#p33" transform="matrix(-0.22252093395631434 0.9749279121818237 -0.9749279121818237 -0.22252093395631434 30.820883461285305 -155.03511346222047)" fill="#00AAAA" fill-opacity="1"/>
<use xlink:href="#p33" transform="matrix(-0.43388373911755806 0.9009688679024193 -0.9009688679024193 -0.43388373911755806 27.028762206461796 -157.41786117090828)" fill="#00AAAA" fill-opacity="1"/>
<use xlink:href="#p33" transform="matrix(-0.6234898018587338 0.78183148246803 -0.78183148246803 -0.6234898018587338 23.861928594275888 -160.5846947830942)" fill="#00AAAA" fill-opacity="1"/>
<use xlink:href="#p33" transform="matrix(-0.7818314824680299 0.6234898018587338 -0.6234898018587338 -0.7818314824680299 21.479180885588093 -164.3768160379177)" fill="#00AAAA" fill-opacity="1"/>
<use xlink:href="#p33" transform="matrix(-0.9009688679024196 0.4338837391175586 -0.4338837391175586 -0.9009688679024196 20.000000000000007 -168.6040721411426)" fill="#00AAAA" fill-opacity="1"/>
<use xlink:href="#p33" transform="matrix(0.22252093395631434 0.9749279121818237 -0.9749279121818237 0.22252093395631434 39.49855824363648 -153.05449082026888)" fill="#00AAAA" fill-opacity="1"/>
<use xlink:href="#p33" transform="matrix(0.43388373911755806 0.9009688679024193 -0.9009688679024193 0.43388373911755806 43.94897692276277 -153.5559325766324)" fill="#00AAAA" fill-opacity="1"/>
<use xlink:href="#p33" transform="matrix(0.6234898018587334 0.7818314824680299 -0.7818314824680299 0.6234898018587334 48.176233025987656 -155.0351134622204)" fill="#00AAAA" fill-opacity="1"/>
<use xlink:href="#p33" transform="matrix(0.7818314824680297 0.6234898018587337 -0.6234898018587337 0.7818314824680297 51.96835428081117 -157.41786117090825)" fill="#00AAAA" fill-opacity="1"/>
<use xlink:href="#p33" transform="matrix(0.900968867902419 0.43388373911755834 -0.43388373911755834 0.900968867902419 55.135187892997095 -160.58469478309422)" fill="#00AAAA" fill-opacity="1"/>
<use xlink:href="#p33" transform="matrix(0.9749279121818234 0.2225209339563147 -0.2225209339563147 0.9749279121818234 57.51793560168491 -164.37681603791765)" fill="#00AAAA" fill-opacity="1"/>
<use xlink:href="#p240" transform="matrix(-0.0 1.0 -1.0 0.0 39.49855824363647 -173.05449082026885)" fill="#00AAAA" fill-opacity="1"/>
<use xlink:href="#p240" transform="matrix(-0.22252093395631445 0.9749279121818237 -0.9749279121818237 -0.22252093395631445 39.49855824363647 -173.05449082026885)" fill="#00AAAA" fill-opacity="1"/>
<use xlink:href="#p240" transform="matrix(-0.43388373911755806 0.9009688679024195 -0.9009688679024195 -0.43388373911755806 39.49855824363647 -173.05449082026885)" fill="#00AAAA" fill-opacity="1"/>
<use xlink:href="#p240" transform="matrix(-0.6234898018587337 0.78183148246803 -0.78183148246803 -0.6234898018587337 39.49855824363647 -173.05449082026888)" fill="#00AAAA" fill-opacity="1"/>
<use xlink:href="#p240" transform="matrix(-0.7818314824680301 0.6234898018587338 -0.6234898018587338 -0.7818314824680301 39.49855824363649 -173.05449082026888)" fill="#00AAAA" fill-opacity="1"/>
<use xlink:href="#p240" transform="matrix(-0.9009688679024193 0.43388373911755845 -0.43388373911755845 -0.9009688679024193 39.49855824363648 -173.05449082026888)" fill="#00AAAA" fill-opacity="1"/>
<use xlink:href="#p240" transform="matrix(-0.9749279121818244 0.2225209339563149 -0.2225209339563149 -0.9749279121818244 39.498558243636495 -173.0544908202689)" fill="#00AAAA" fill-opacity="1"/>
<use xlink:href="#p240" transform="matrix(0.22252093395631434 0.9749279121818237 -0.9749279121818237 0.22252093395631434 39.49855824363648 -173.05449082026888)" fill="#00AAAA" fill-opacity="1"/>
<use xlink:href="#p240" transform="matrix(0.43388373911755806 0.9009688679024193 -0.9009688679024193 0.43388373911755806 39.49855824363648 -173.05449082026885)" fill="#00AAAA" fill-opacity="1"/>
<use xlink:href="#p240" transform="matrix(0.6234898018587334 0.7818314824680299 -0.7818314824680299 0.6234898018587334 39.498558243636495 -173.05449082026877)" fill="#00AAAA" fill-opacity="1"/>
<use xlink:href="#p240" transform="matrix(0.7818314824680297 0.6234898018587337 -0.6234898018587337 0.7818314824680297 39.498558243636495 -173.05449082026885)" fill="#00AAAA" fill-opacity="1"/>
<use xlink:href="#p240" transform="matrix(0.900968867902419 0.43388373911755834 -0.43388373911755834 0.900968867902419 39.49855824363651 -173.05449082026888)" fill="#00AAAA" fill-opacity="1"/>
<use xlink:href="#p240" transform="matrix(0.9749279121818234 0.2225209339563147 -0.2225209339563147 0.9749279121818234 39.49855824363654 -173.0544908202688)" fill="#00AAAA" fill-opacity="1"/>
</g>
</svg>