<?xml version="1.0" encoding="UTF-8" standalone="no"?>
<!DOCTYPE svg PUBLIC "-//W3C//DTD SVG 1.1//EN" "http://www.w3.org/Graphics/SVG/1.1/DTD/svg11.dtd">
<svg xmlns="http://www.w3.org/2000/svg" xmlns:xlink="http://www.w3.org/1999/xlink" viewBox="0 0 94.2842712474619 94.2842712474619" version="1.1" xml:space="preserve">
<defs>
<path id="p16" fill-rule="evenodd" stroke="#EDB55B" stroke-opacity="1" stroke-width="6.0" d="M10.0,0.0 L16.3689559418817,8.766115810683429 L27.071067811865476,7.0710678118654755 L25.37601981304752,17.77317968184925 L34.14213562373095,24.14213562373095 L28.35021342210828,28.35021342210828 L24.14213562373095,34.14213562373095 L17.773179681849246,25.37601981304752 L7.0710678118654755,27.071067811865476 L8.766115810683429,16.3689559418817 L0.0,10.0 L5.791922201622683,5.791922201622683 Z"/>
<path id="q16" stroke="#000000" stroke-opacity="1" stroke-width="2.0" fill-opacity="0" d="M10.0,0.0 L16.3689559418817,8.766115810683429 L27.071067811865476,7.0710678118654755 L25.37601981304752,17.77317968184925 L34.14213562373095,24.14213562373095 L28.35021342210828,28.35021342210828 L24.14213562373095,34.14213562373095 L17.773179681849246,25.37601981304752 L7.0710678118654755,27.071067811865476 L8.766115810683429,16.3689559418817 L0.0,10.0 L5.791922201622683,5.791922201622683 Z"/>
</defs>
<g transform="translate(47.142135623730944 47.14213562373095) scale(1 -1) rotate(0.0)">
<use xlink:href="#p16" transform="matrix(1.0 0.0 0.0 1.0 0.0 0.0)" fill="#000000" fill-opacity="0.502"/>
<use xlink:href="#p16" transform="matrix(-0.0 1.0 -1.0 0.0 34.14213562373095 -34.14213562373095)" fill="#000000" fill-opacity="0.502"/>
<use xlink:href="#p16" transform="matrix(0.9999999999999999 0.0 -0.0 0.9999999999999999 -34.142135623730944 -34.14213562373095)" fill="#000000" fill-opacity="0.502"/>
<use xlink:href="#p16" transform="matrix(0.0 -0.9999999999999997 0.9999999999999997 0.0 -34.14213562373094 34.14213562373093)" fill="#000000" fill-opacity="0.502"/>
<use xlink:href="#q16" transform="matrix(1.0 0.0 0.0 1.0 0.0 0.0)"/>
<use xlink:href="#q16" transform="matrix(-0.0 1.0 -1.0 0.0 34.14213562373095 -34.14213562373095)"/>
<use xlink:href="#q16" transform="matrix(0.9999999999999999 0.0 -0.0 0.9999999999999999 -34.142135623730944 -34.14213562373095)"/>
<use xlink:href="#q16" transform="matrix(0.0 -0.9999999999999997 0.9999999999999997 0.0 -34.14213562373094 34.14213562373093)"/>
<path stroke="#EDB55B" stroke-opacity="1" stroke-width="2.0" fill-opacity="0" d="M10.0,3.4026032334081604 L7.52786404500042,0.0 M3.4026032334081604,10.0 L0.0,12.47213595499958 M10.0,-3.402603233408157 L12.472135954999587,-8.881784197001252e-15 M3.402603233408157,-10.0 L0.0,-7.527864045000423 M-3.4026032334081524,-10.000000000000004 L-4.440892098500626e-15,-12.47213595499959 M-9.999999999999996,-3.4026032334081613 L-7.527864045000419,-4.440892098500626e-15 M-9.999999999999996,3.4026032334081435 L-12.472135954999581,0.0 M-3.4026032334081524,9.999999999999986 L0.0,7.52786404500041"/>
</g>
</svg>