<svg version="1.1" viewBox="0.0 0.0 960.0 540.0" fill="none" stroke="none" stroke-linecap="square" stroke-miterlimit="10" xmlns:xlink="http://www.w3.org/1999/xlink" xmlns="http://www.w3.org/2000/svg"><clipPath id="p.0"><path d="m0 0l960.0 0l0 540.0l-960.0 0l0 -540.0z" clip-rule="nonzero"/></clipPath><g clip-path="url(#p.0)"><path fill="#ff0315" d="m0 0l960.0 0l0 540.0l-960.0 0z" fill-rule="evenodd"/><path fill="#000000" fill-opacity="0.0" d="m346.22833 110.055115l290.2677 0l0 289.00787l-290.2677 0z" fill-rule="evenodd"/><path fill="#000000" d="m360.79083 251.28949q7.53125 -0.203125 12.265625 -4.046875q4.734375 -3.859375 6.296875 -10.59375q1.5625 -6.75 1.65625 -23.046875q0.09375 -16.3125 0.59375 -21.5q0.875 -8.203125 3.265625 -13.171875q2.390625 -4.984375 5.90625 -7.953125q3.515625 -2.984375 8.984375 -4.546875q3.71875 -0.984375 12.109375 -0.984375l5.46875 0l0 15.328125l-3.03125 0q-10.15625 0 -13.484375 3.671875q-3.3125 3.65625 -3.3125 16.359375q0 25.578125 -1.0625 32.3125q-1.765625 10.453125 -6.015625 16.125q-4.25 5.65625 -13.328125 10.046875q10.75 4.5 15.578125 13.734375q4.828125 9.21875 4.828125 30.21875q0 19.046875 0.390625 22.65625q0.78125 6.640625 3.953125 9.28125q3.1875 2.640625 12.453125 2.640625l3.03125 0l0 15.328125l-5.46875 0q-9.5625 0 -13.859375 -1.5625q-6.25 -2.25 -10.359375 -7.28125q-4.09375 -5.03125 -5.328125 -12.75q-1.21875 -7.703125 -1.3125 -25.28125q-0.09375 -17.578125 -1.65625 -24.3125q-1.5625 -6.75 -6.296875 -10.65625q-4.734375 -3.90625 -12.265625 -4.09375l0 -15.921875z" fill-rule="nonzero"/><path fill="#000000" d="m435.6502 311.0551l0 -124.078125l55.015625 0q16.578125 0 25.203125 3.34375q8.640625 3.34375 13.796875 11.8125q5.171875 8.46875 5.171875 18.703125q0 13.203125 -8.546875 22.265625q-8.546875 9.046875 -26.40625 11.5q6.515625 3.140625 9.90625 6.1875q7.1875 6.59375 13.625 16.5l21.578125 33.765625l-20.640625 0l-16.421875 -25.8125q-7.203125 -11.171875 -11.859375 -17.09375q-4.640625 -5.921875 -8.328125 -8.296875q-3.6875 -2.375 -7.484375 -3.296875q-2.796875 -0.59375 -9.140625 -0.59375l-19.046875 0l0 55.09375l-16.421875 0zm16.421875 -69.3125l35.296875 0q11.25 0 17.59375 -2.328125q6.34375 -2.328125 9.640625 -7.4375q3.3125 -5.125 3.3125 -11.140625q0 -8.796875 -6.390625 -14.46875q-6.390625 -5.671875 -20.1875 -5.671875l-39.265625 0l0 41.046875z" fill-rule="nonzero"/><path fill="#000000" d="m608.3379 251.28949l0 15.921875q-7.53125 0.1875 -12.265625 4.09375q-4.734375 3.90625 -6.296875 10.59375q-1.5625 6.6875 -1.65625 23.0q-0.09375 16.3125 -0.59375 21.484375q-0.875 8.3125 -3.265625 13.234375q-2.390625 4.9375 -5.90625 7.90625q-3.515625 2.984375 -8.984375 4.546875q-3.71875 1.078125 -12.109375 1.078125l-5.46875 0l0 -15.328125l3.03125 0q10.15625 0 13.46875 -3.671875q3.328125 -3.65625 3.328125 -16.453125q0 -24.421875 0.875 -30.953125q1.5625 -10.84375 6.25 -17.328125q4.6875 -6.5 13.28125 -10.125q-11.234375 -5.359375 -15.828125 -14.203125q-4.578125 -8.84375 -4.578125 -29.828125q0 -19.046875 -0.5 -22.765625q-0.671875 -6.53125 -3.859375 -9.125q-3.171875 -2.59375 -12.4375 -2.59375l-3.03125 0l0 -15.328125l5.46875 0q9.5625 0 13.859375 1.5625q6.25 2.15625 10.34375 7.234375q4.109375 5.078125 5.328125 12.796875q1.234375 7.703125 1.328125 25.28125q0.09375 17.578125 1.65625 24.265625q1.5625 6.6875 6.296875 10.59375q4.734375 3.90625 12.265625 4.109375z" fill-rule="nonzero"/></g></svg>