<?xml version="1.0" encoding="UTF-8" standalone="no"?>
<!DOCTYPE svg PUBLIC "-//W3C//DTD SVG 1.1//EN" "http://www.w3.org/Graphics/SVG/1.1/DTD/svg11.dtd">
<svg xmlns="http://www.w3.org/2000/svg" xmlns:xlink="http://www.w3.org/1999/xlink" viewBox="0 0 471.4065457646426 449.60679774997914" version="1.1" xml:space="preserve">
<defs>
<polygon id="s1" stroke="#FF000A" stroke-opacity="1" stroke-width="1.0" stroke-linejoin="round" points="0.0,0.0 20.0,0.0 36.180339887498945,11.755705045849464 42.3606797749979,30.776835371752533 36.180339887498945,49.797965697655606 20.0,61.553670743505066 0.0,61.553670743505066 -16.18033988749895,49.7979656976556 -22.360679774997898,30.776835371752522 -16.18033988749895,11.755705045849451"/>
<path id="p1" fill-rule="evenodd" stroke="#000000" stroke-opacity="1" stroke-width="2.0" d="M10.0,0.0 L16.909830056250527,21.266270208800996 L39.270509831248425,21.266270208800996 L21.180339887498953,34.409548011779336 L28.090169943749473,55.675818220580325 L10.000000000000004,42.53254041760199 L-8.090169943749475,55.675818220580325 L-1.180339887498946,34.409548011779336 L-19.270509831248425,21.266270208800986 L3.0901699437494785,21.266270208800986 Z M28.090169943749473,5.877852522924732 L21.180339887498953,27.14412273172573 L39.270509831248425,40.28740053470407 L16.909830056250527,40.28740053470407 L10.0,61.553670743505066 L3.0901699437494723,40.28740053470406 L-19.270509831248425,40.28740053470406 L-1.18033988749896,27.14412273172573 L-8.090169943749475,5.877852522924726 L9.999999999999995,19.021130325903076 Z"/>
<path id="r1" d="M15.0,15.388417685876266 L16.909830056250527,21.266270208800996 L23.09016994374948,21.266270208800996 L21.180339887498953,27.14412273172573 L26.18033988749895,30.776835371752533 L21.180339887498953,34.409548011779336 L23.09016994374948,40.28740053470407 L16.909830056250527,40.28740053470407 L15.000000000000004,46.16525305762878 L10.000000000000004,42.53254041760199 L4.999999999999999,46.1652530576288 L3.0901699437494723,40.28740053470406 L-3.0901699437494696,40.28740053470406 L-1.180339887498946,34.409548011779336 L-6.1803398874989455,30.776835371752522 L-1.18033988749896,27.14412273172573 L-3.0901699437494856,21.266270208800982 L3.0901699437494785,21.266270208800986 L4.999999999999999,15.388417685876272 L9.999999999999995,19.021130325903076 Z"/>
<polygon id="s2" stroke="#FF000A" stroke-opacity="1" stroke-width="1.0" stroke-linejoin="round" points="0.0,0.0 20.0,0.0 26.18033988749895,19.02113032590307 10.0,30.776835371752536 -6.180339887498949,19.02113032590307"/>
<path id="p2" fill-rule="evenodd" stroke="#000000" stroke-opacity="1" stroke-width="2.0" d="M10.0,0.0 L13.090169943749475,9.510565162951535 L23.090169943749473,9.510565162951535 L15.0,15.388417685876268 L18.090169943749473,24.898982848827803 L10.0,19.02113032590307 L1.9098300562505255,24.898982848827803 L5.0,15.388417685876268 L-3.0901699437494745,9.510565162951535 L6.9098300562505255,9.510565162951535 Z"/>
<polygon id="s7" stroke="#FF000A" stroke-opacity="1" stroke-width="1.0" stroke-linejoin="round" points="0.0,0.0 20.0,0.0 26.18033988749895,19.02113032590307 20.0,38.04226065180614 0.0,38.04226065180614 -6.180339887498948,19.02113032590307"/>
<path id="p7" fill-rule="evenodd" stroke="#000000" stroke-opacity="1" stroke-width="2.0" d="M10.0,0.0 L13.090169943749475,9.510565162951535 L23.090169943749473,9.510565162951535 L-3.0901699437494745,28.531695488854606 L6.9098300562505255,28.531695488854606 L10.0,38.04226065180614 L13.090169943749475,28.531695488854606 L23.090169943749473,28.531695488854606 L-3.0901699437494745,9.510565162951535 L6.9098300562505255,9.510565162951535 Z"/>
</defs>
<g transform="translate(235.70327288232133 273.3444185374864) scale(1 -1) rotate(18.0)">
<use xlink:href="#s1" transform="matrix(1.0 0.0 0.0 1.0 0.0 0.0)" fill="#FF000E" fill-opacity="1"/>
<use xlink:href="#s2" transform="matrix(-1.0 0.0 0.0 -1.0 20.0 0.0)" fill="#FF000E" fill-opacity="1"/>
<use xlink:href="#s2" transform="matrix(-0.8090169943749477 0.5877852522924732 -0.5877852522924732 -0.8090169943749477 52.3606797749979 0.0)" fill="#FF000E" fill-opacity="1"/>
<use xlink:href="#s2" transform="matrix(1.0 0.0 0.0 1.0 0.0 61.553670743505066)" fill="#FF000E" fill-opacity="1"/>
<use xlink:href="#s2" transform="matrix(0.30901699437494745 0.9510565162951535 -0.9510565162951535 0.30901699437494745 -6.180339887498949 -19.02113032590307)" fill="#FF000E" fill-opacity="1"/>
<use xlink:href="#s1" transform="matrix(-1.0000000000000004 -1.7763568394002506e-16 1.7763568394002506e-16 -1.0000000000000004 46.18033988749895 -19.021130325903076)" fill="#FF000E" fill-opacity="1"/>
<use xlink:href="#s2" transform="matrix(-0.30901699437494745 -0.9510565162951535 0.9510565162951535 -0.30901699437494745 26.18033988749895 80.57480106940814)" fill="#FF000E" fill-opacity="1"/>
<use xlink:href="#s1" transform="matrix(0.8090169943749475 -0.5877852522924732 0.5877852522924732 0.8090169943749475 10.0 92.3305061152576)" fill="#FF000E" fill-opacity="1"/>
<use xlink:href="#s2" transform="matrix(0.8090169943749475 0.587785252292473 -0.587785252292473 0.8090169943749475 -32.36067977499789 3.552713678800501e-15)" fill="#FF000E" fill-opacity="1"/>
<use xlink:href="#s7" transform="matrix(0.3090169943749474 0.9510565162951539 -0.9510565162951539 0.3090169943749474 3.8196601125010474 -49.79796569765563)" fill="#FF000E" fill-opacity="1"/>
<use xlink:href="#s2" transform="matrix(-0.809016994374948 0.5877852522924729 -0.5877852522924729 -0.809016994374948 26.180339887498956 -80.57480106940817)" fill="#FF000E" fill-opacity="1"/>
<use xlink:href="#s2" transform="matrix(-0.8090169943749477 -0.5877852522924737 0.5877852522924737 -0.8090169943749477 62.36067977499792 -68.81909602355869)" fill="#FF000E" fill-opacity="1"/>
<use xlink:href="#s2" transform="matrix(0.30901699437494773 -0.9510565162951539 0.9510565162951539 0.30901699437494773 62.36067977499791 -30.77683537175253)" fill="#FF000E" fill-opacity="1"/>
<use xlink:href="#s2" transform="matrix(-0.8090169943749475 -0.587785252292473 0.587785252292473 -0.8090169943749475 52.36067977499789 61.553670743505066)" fill="#FF000E" fill-opacity="1"/>
<use xlink:href="#s2" transform="matrix(1.0 -1.7763568394002506e-16 1.7763568394002506e-16 1.0 -42.36067977499789 30.77683537175254)" fill="#FF000E" fill-opacity="1"/>
<use xlink:href="#s1" transform="matrix(-0.8090169943749473 0.5877852522924731 -0.5877852522924731 -0.8090169943749473 -32.36067977499789 3.552713678800501e-15)" fill="#FF000E" fill-opacity="1"/>
<use xlink:href="#s2" transform="matrix(-0.8090169943749479 0.5877852522924732 -0.5877852522924732 -0.8090169943749479 -16.180339887498956 -49.79796569765563)" fill="#FF000E" fill-opacity="1"/>
<use xlink:href="#s2" transform="matrix(-1.0000000000000002 -1.332267629550188e-16 1.332267629550188e-16 -1.0000000000000002 3.8196601125010474 -49.79796569765563)" fill="#FF000E" fill-opacity="1"/>
<use xlink:href="#s1" transform="matrix(-0.30901699437494795 0.9510565162951539 -0.9510565162951539 -0.30901699437494795 7.105427357601002e-15 -99.59593139531125)" fill="#FF000E" fill-opacity="1"/>
<use xlink:href="#s7" transform="matrix(0.3090169943749472 0.9510565162951544 -0.9510565162951544 0.3090169943749472 30.000000000000036 -130.3727667670638)" fill="#FF000E" fill-opacity="1"/>
<use xlink:href="#s2" transform="matrix(-0.309016994374947 -0.9510565162951541 0.9510565162951541 -0.309016994374947 26.180339887498956 -80.57480106940817)" fill="#FF000E" fill-opacity="1"/>
<use xlink:href="#s1" transform="matrix(-1.0000000000000007 -2.664535259100376e-16 2.664535259100376e-16 -1.0000000000000007 72.36067977499793 -99.59593139531123)" fill="#FF000E" fill-opacity="1"/>
<use xlink:href="#s2" transform="matrix(0.809016994374948 -0.5877852522924731 0.5877852522924731 0.809016994374948 62.36067977499792 -68.81909602355869)" fill="#FF000E" fill-opacity="1"/>
<use xlink:href="#s2" transform="matrix(-1.0 1.7763568394002506e-16 -1.7763568394002506e-16 -1.0 62.36067977499789 30.77683537175253)" fill="#FF000E" fill-opacity="1"/>
<use xlink:href="#s1" transform="matrix(-0.30901699437494745 -0.9510565162951536 0.9510565162951536 -0.30901699437494745 68.54101966249684 49.797965697655606)" fill="#FF000E" fill-opacity="1"/>
<use xlink:href="#s7" transform="matrix(-0.8090169943749477 -0.5877852522924731 0.5877852522924731 -0.8090169943749477 62.36067977499789 92.3305061152576)" fill="#FF000E" fill-opacity="1"/>
<use xlink:href="#s2" transform="matrix(0.8090169943749473 -0.5877852522924735 0.5877852522924735 0.8090169943749473 -32.360679774997884 61.55367074350507)" fill="#FF000E" fill-opacity="1"/>
<use xlink:href="#s1" transform="matrix(0.8090169943749477 0.5877852522924731 -0.5877852522924731 0.8090169943749477 -48.541019662496836 49.79796569765561)" fill="#FF000E" fill-opacity="1"/>
<use xlink:href="#s7" transform="matrix(1.0 0.0 0.0 1.0 -68.54101966249684 11.755705045849465)" fill="#FF000E" fill-opacity="1"/>
<use xlink:href="#s2" transform="matrix(0.3090169943749475 0.9510565162951535 -0.9510565162951535 0.3090169943749475 -90.90169943749473 -19.021130325903062)" fill="#FF000E" fill-opacity="1"/>
<use xlink:href="#s2" transform="matrix(-0.3090169943749477 0.9510565162951541 -0.9510565162951541 -0.3090169943749477 -42.360679774997905 -68.81909602355871)" fill="#FF000E" fill-opacity="1"/>
<use xlink:href="#s2" transform="matrix(-0.8090169943749483 0.587785252292473 -0.587785252292473 -0.8090169943749483 -42.360679774997884 -130.3727667670638)" fill="#FF000E" fill-opacity="1"/>
<use xlink:href="#s2" transform="matrix(-1.0000000000000004 -3.9968028886505636e-16 3.9968028886505636e-16 -1.0000000000000004 -22.360679774997873 -130.3727667670638)" fill="#FF000E" fill-opacity="1"/>
<use xlink:href="#s2" transform="matrix(-0.8090169943749477 -0.5877852522924737 0.5877852522924737 -0.8090169943749477 -6.180339887498924 -118.61706172121433)" fill="#FF000E" fill-opacity="1"/>
<use xlink:href="#s2" transform="matrix(-1.0000000000000007 -4.884981308350689e-16 4.884981308350689e-16 -1.0000000000000007 30.000000000000036 -130.3727667670638)" fill="#FF000E" fill-opacity="1"/>
<use xlink:href="#s2" transform="matrix(-0.8090169943749482 0.5877852522924732 -0.5877852522924732 -0.8090169943749482 52.360679774997934 -161.14960213881633)" fill="#FF000E" fill-opacity="1"/>
<use xlink:href="#s2" transform="matrix(-1.0000000000000007 -2.664535259100376e-16 2.664535259100376e-16 -1.0000000000000007 72.36067977499795 -161.14960213881633)" fill="#FF000E" fill-opacity="1"/>
<use xlink:href="#s2" transform="matrix(-0.30901699437494745 -0.9510565162951544 0.9510565162951544 -0.30901699437494745 94.72135954999585 -130.37276676706375)" fill="#FF000E" fill-opacity="1"/>
<use xlink:href="#s7" transform="matrix(-0.8090169943749473 0.5877852522924732 -0.5877852522924732 -0.8090169943749473 84.72135954999578 -7.105427357601002e-15)" fill="#FF000E" fill-opacity="1"/>
<use xlink:href="#s2" transform="matrix(-1.0000000000000002 0.0 0.0 -1.0000000000000002 104.72135954999578 -7.105427357601002e-15)" fill="#FF000E" fill-opacity="1"/>
<use xlink:href="#s7" transform="matrix(0.3090169943749473 -0.9510565162951541 0.9510565162951541 0.3090169943749473 -32.36067977499788 99.59593139531123)" fill="#FF000E" fill-opacity="1"/>
<use xlink:href="#s2" transform="matrix(1.0 0.0 0.0 1.0 -68.54101966249684 111.35163644116068)" fill="#FF000E" fill-opacity="1"/>
<use xlink:href="#s2" transform="matrix(0.8090169943749477 0.5877852522924731 -0.5877852522924731 0.8090169943749477 -84.72135954999578 99.59593139531123)" fill="#FF000E" fill-opacity="1"/>
<use xlink:href="#s2" transform="matrix(-0.8090169943749475 0.5877852522924732 -0.5877852522924732 -0.8090169943749475 -68.54101966249684 49.797965697655606)" fill="#FF000E" fill-opacity="1"/>
<use xlink:href="#s2" transform="matrix(-0.30901699437494745 0.9510565162951535 -0.9510565162951535 -0.30901699437494745 -68.54101966249684 11.755705045849465)" fill="#FF000E" fill-opacity="1"/>
<use xlink:href="#s1" transform="matrix(0.8090169943749475 0.587785252292473 -0.587785252292473 0.8090169943749475 -117.08203932499367 1.0658141036401503e-14)" fill="#FF000E" fill-opacity="1"/>
<use xlink:href="#s2" transform="matrix(-1.0 8.881784197001253e-17 -8.881784197001253e-17 -1.0 -90.90169943749473 -19.021130325903062)" fill="#FF000E" fill-opacity="1"/>
<use xlink:href="#s2" transform="matrix(-0.809016994374948 0.5877852522924734 -0.5877852522924734 -0.809016994374948 104.72135954999587 -161.1496021388163)" fill="#FF000E" fill-opacity="1"/>
<use xlink:href="#s1" transform="matrix(-0.8090169943749477 -0.5877852522924734 0.5877852522924734 -0.8090169943749477 110.90169943749473 -19.02113032590308)" fill="#FF000E" fill-opacity="1"/>
<use xlink:href="#s2" transform="matrix(0.3090169943749475 -0.9510565162951536 0.9510565162951536 0.3090169943749475 104.72135954999578 -7.105427357601002e-15)" fill="#FF000E" fill-opacity="1"/>
<use xlink:href="#s2" transform="matrix(0.8090169943749479 0.5877852522924731 -0.5877852522924731 0.8090169943749479 -32.36067977499788 99.59593139531123)" fill="#FF000E" fill-opacity="1"/>
<use xlink:href="#s7" transform="matrix(0.3090169943749473 -0.9510565162951541 0.9510565162951541 0.3090169943749473 -100.90169943749473 149.39389709296682)" fill="#FF000E" fill-opacity="1"/>
<use xlink:href="#s1" transform="matrix(0.3090169943749476 0.9510565162951536 -0.9510565162951536 0.3090169943749476 -100.90169943749473 111.3516364411607)" fill="#FF000E" fill-opacity="1"/>
<use xlink:href="#s2" transform="matrix(-0.8090169943749475 0.5877852522924732 -0.5877852522924732 -0.8090169943749475 -84.72135954999578 99.59593139531123)" fill="#FF000E" fill-opacity="1"/>
<use xlink:href="#s7" transform="matrix(0.9999999999999999 8.881784197001253e-17 -8.881784197001253e-17 0.9999999999999999 -137.08203932499367 61.55367074350508)" fill="#FF000E" fill-opacity="1"/>
<use xlink:href="#s2" transform="matrix(0.8090169943749475 0.587785252292473 -0.587785252292473 0.8090169943749475 -153.26237921249262 49.79796569765561)" fill="#FF000E" fill-opacity="1"/>
<use xlink:href="#s2" transform="matrix(0.3090169943749474 0.9510565162951536 -0.9510565162951536 0.3090169943749474 -159.44271909999156 30.776835371752536)" fill="#FF000E" fill-opacity="1"/>
<use xlink:href="#s1" transform="matrix(-0.8090169943749475 0.5877852522924734 -0.5877852522924734 -0.8090169943749475 -100.90169943749473 -49.7979656976556)" fill="#FF000E" fill-opacity="1"/>
<use xlink:href="#s2" transform="matrix(-0.8090169943749475 -0.5877852522924732 0.5877852522924732 -0.8090169943749475 -84.72135954999578 -38.04226065180613)" fill="#FF000E" fill-opacity="1"/>
<use xlink:href="#s7" transform="matrix(-0.8090169943749479 0.5877852522924732 -0.5877852522924732 -0.8090169943749479 110.90169943749473 -80.57480106940815)" fill="#FF000E" fill-opacity="1"/>
<use xlink:href="#s2" transform="matrix(-1.0000000000000002 -2.664535259100376e-16 2.664535259100376e-16 -1.0000000000000002 130.90169943749473 -80.57480106940815)" fill="#FF000E" fill-opacity="1"/>
<use xlink:href="#s2" transform="matrix(-0.8090169943749477 -0.5877852522924734 0.5877852522924734 -0.8090169943749477 147.08203932499367 -68.8190960235587)" fill="#FF000E" fill-opacity="1"/>
<use xlink:href="#s2" transform="matrix(-0.3090169943749474 -0.9510565162951541 0.9510565162951541 -0.3090169943749474 153.26237921249265 -49.79796569765561)" fill="#FF000E" fill-opacity="1"/>
<use xlink:href="#s2" transform="matrix(0.3090169943749477 -0.9510565162951541 0.9510565162951541 0.3090169943749477 147.08203932499367 -30.776835371752533)" fill="#FF000E" fill-opacity="1"/>
<use xlink:href="#s2" transform="matrix(0.8090169943749477 -0.5877852522924731 0.5877852522924731 0.8090169943749477 120.90169943749473 11.755705045849457)" fill="#FF000E" fill-opacity="1"/>
<use xlink:href="#s2" transform="matrix(0.30901699437494723 -0.9510565162951541 0.9510565162951541 0.30901699437494723 -22.360679774997863 130.37276676706375)" fill="#FF000E" fill-opacity="1"/>
<use xlink:href="#s2" transform="matrix(1.0000000000000002 -2.664535259100376e-16 2.664535259100376e-16 1.0000000000000002 -84.72135954999577 161.14960213881628)" fill="#FF000E" fill-opacity="1"/>
<use xlink:href="#s2" transform="matrix(1.0000000000000002 -1.332267629550188e-16 1.332267629550188e-16 1.0000000000000002 -137.08203932499367 161.1496021388163)" fill="#FF000E" fill-opacity="1"/>
<use xlink:href="#s2" transform="matrix(-1.0000000000000002 0.0 0.0 -1.0000000000000002 -90.90169943749473 80.57480106940815)" fill="#FF000E" fill-opacity="1"/>
<use xlink:href="#s2" transform="matrix(0.3090169943749473 0.9510565162951533 -0.9510565162951533 0.3090169943749473 -143.26237921249262 80.57480106940815)" fill="#FF000E" fill-opacity="1"/>
<use xlink:href="#s7" transform="matrix(1.0000000000000002 -1.7763568394002506e-16 1.7763568394002506e-16 1.0000000000000002 -137.08203932499367 -38.04226065180613)" fill="#FF000E" fill-opacity="1"/>
<use xlink:href="#s2" transform="matrix(0.3090169943749477 0.9510565162951536 -0.9510565162951536 0.3090169943749477 -159.4427190999916 -68.81909602355866)" fill="#FF000E" fill-opacity="1"/>
<use xlink:href="#s2" transform="matrix(-0.8090169943749475 0.5877852522924734 -0.5877852522924734 -0.8090169943749475 -137.08203932499367 -99.5959313953112)" fill="#FF000E" fill-opacity="1"/>
<use xlink:href="#s2" transform="matrix(-0.8090169943749479 -0.5877852522924731 0.5877852522924731 -0.8090169943749479 -100.90169943749473 -87.84022634946174)" fill="#FF000E" fill-opacity="1"/>
<use xlink:href="#s7" transform="matrix(0.3090169943749477 0.9510565162951541 -0.9510565162951541 0.3090169943749477 -64.72135954999578 -99.59593139531123)" fill="#FF000E" fill-opacity="1"/>
<use xlink:href="#s2" transform="matrix(-0.8090169943749479 0.5877852522924732 -0.5877852522924732 -0.8090169943749479 120.90169943749473 -111.3516364411607)" fill="#FF000E" fill-opacity="1"/>
<use xlink:href="#s7" transform="matrix(-0.8090169943749477 0.5877852522924732 -0.5877852522924732 -0.8090169943749477 169.44271909999156 -3.552713678800501e-15)" fill="#FF000E" fill-opacity="1"/>
<use xlink:href="#s2" transform="matrix(1.0000000000000002 2.664535259100376e-16 -2.664535259100376e-16 1.0000000000000002 127.08203932499367 30.77683537175253)" fill="#FF000E" fill-opacity="1"/>
<use xlink:href="#s2" transform="matrix(0.8090169943749477 -0.5877852522924736 0.5877852522924736 0.8090169943749477 -6.180339887498906 142.1284718129132)" fill="#FF000E" fill-opacity="1"/>
<use xlink:href="#s1" transform="matrix(0.8090169943749479 0.5877852522924731 -0.5877852522924731 0.8090169943749479 -22.360679774997863 130.37276676706375)" fill="#FF000E" fill-opacity="1"/>
<use xlink:href="#s2" transform="matrix(-0.3090169943749477 -0.9510565162951536 0.9510565162951536 -0.3090169943749477 -110.90169943749471 180.17073246471938)" fill="#FF000E" fill-opacity="1"/>
<use xlink:href="#s2" transform="matrix(0.8090169943749473 0.587785252292473 -0.587785252292473 0.8090169943749473 -169.44271909999156 99.59593139531123)" fill="#FF000E" fill-opacity="1"/>
<use xlink:href="#s2" transform="matrix(0.3090169943749477 0.9510565162951536 -0.9510565162951536 0.3090169943749477 -143.26237921249262 -19.02113032590306)" fill="#FF000E" fill-opacity="1"/>
<use xlink:href="#s2" transform="matrix(0.8090169943749475 -0.5877852522924734 0.5877852522924734 0.8090169943749475 -169.4427190999916 -38.04226065180612)" fill="#FF000E" fill-opacity="1"/>
<use xlink:href="#s2" transform="matrix(0.8090169943749477 0.587785252292473 -0.587785252292473 0.8090169943749477 -169.44271909999156 -99.5959313953112)" fill="#FF000E" fill-opacity="1"/>
<use xlink:href="#s2" transform="matrix(-0.30901699437494723 0.9510565162951541 -0.9510565162951541 -0.30901699437494723 -110.90169943749474 -118.61706172121428)" fill="#FF000E" fill-opacity="1"/>
<use xlink:href="#s2" transform="matrix(-1.0000000000000004 8.881784197001253e-17 -8.881784197001253e-17 -1.0000000000000004 -64.72135954999578 -99.59593139531123)" fill="#FF000E" fill-opacity="1"/>
<use xlink:href="#s2" transform="matrix(-0.30901699437494745 -0.9510565162951536 0.9510565162951536 -0.30901699437494745 169.44271909999156 -3.552713678800501e-15)" fill="#FF000E" fill-opacity="1"/>
<use xlink:href="#s1" transform="matrix(-0.30901699437494723 -0.9510565162951536 0.9510565162951536 -0.30901699437494723 153.26237921249262 49.79796569765561)" fill="#FF000E" fill-opacity="1"/>
<use xlink:href="#s2" transform="matrix(0.8090169943749475 0.5877852522924736 -0.5877852522924736 0.8090169943749475 120.90169943749471 49.7979656976556)" fill="#FF000E" fill-opacity="1"/>
<use xlink:href="#s2" transform="matrix(0.30901699437494734 -0.9510565162951541 0.9510565162951541 0.30901699437494734 20.000000000000057 161.14960213881628)" fill="#FF000E" fill-opacity="1"/>
<use xlink:href="#s2" transform="matrix(0.8090169943749479 0.5877852522924731 -0.5877852522924731 0.8090169943749479 -58.54101966249681 180.17073246471938)" fill="#FF000E" fill-opacity="1"/>
<use xlink:href="#s2" transform="matrix(1.0 -8.881784197001253e-17 8.881784197001253e-17 1.0 -179.44271909999156 130.37276676706375)" fill="#FF000E" fill-opacity="1"/>
<use xlink:href="#s2" transform="matrix(0.8090169943749477 0.587785252292473 -0.587785252292473 0.8090169943749477 -169.44271909999156 2.1316282072803006e-14)" fill="#FF000E" fill-opacity="1"/>
<use xlink:href="#s2" transform="matrix(-0.8090169943749471 -0.5877852522924734 0.5877852522924734 -0.8090169943749471 205.6230589874905 11.755705045849481)" fill="#FF000E" fill-opacity="1"/>
<use xlink:href="#s2" transform="matrix(-0.30901699437494723 -0.9510565162951536 0.9510565162951536 -0.30901699437494723 211.80339887498945 30.776835371752554)" fill="#FF000E" fill-opacity="1"/>
<use xlink:href="#s2" transform="matrix(0.3090169943749479 -0.9510565162951536 0.9510565162951536 0.3090169943749479 205.6230589874905 49.79796569765563)" fill="#FF000E" fill-opacity="1"/>
<use xlink:href="#s2" transform="matrix(1.0 2.220446049250313e-16 -2.220446049250313e-16 1.0 169.44271909999156 61.55367074350508)" fill="#FF000E" fill-opacity="1"/>
<use xlink:href="#s7" transform="matrix(0.8090169943749468 0.5877852522924735 -0.5877852522924735 0.8090169943749468 153.26237921249262 49.79796569765561)" fill="#FF000E" fill-opacity="1"/>
<use xlink:href="#s2" transform="matrix(0.3090169943749472 0.9510565162951541 -0.9510565162951541 0.3090169943749472 104.72135954999575 61.55367074350506)" fill="#FF000E" fill-opacity="1"/>
<use xlink:href="#s1" transform="matrix(0.8090169943749477 -0.5877852522924736 0.5877852522924736 0.8090169943749477 36.18033988749902 172.90530718466573)" fill="#FF000E" fill-opacity="1"/>
<use xlink:href="#s2" transform="matrix(0.30901699437494723 -0.9510565162951541 0.9510565162951541 0.30901699437494723 -48.541019662496794 210.94756783647193)" fill="#FF000E" fill-opacity="1"/>
<use xlink:href="#s2" transform="matrix(0.8090169943749475 -0.5877852522924734 0.5877852522924734 0.8090169943749475 -169.44271909999156 161.14960213881628)" fill="#FF000E" fill-opacity="1"/>
<use xlink:href="#s2" transform="matrix(-0.30901699437494723 -0.9510565162951535 0.9510565162951535 -0.30901699437494723 195.6230589874905 80.57480106940815)" fill="#FF000E" fill-opacity="1"/>
<use xlink:href="#s2" transform="matrix(0.8090169943749477 -0.5877852522924724 0.5877852522924724 0.8090169943749477 147.08203932499364 92.33050611525759)" fill="#FF000E" fill-opacity="1"/>
<use xlink:href="#s1" transform="matrix(0.8090169943749479 -0.587785252292473 0.587785252292473 0.8090169943749479 94.72135954999574 92.3305061152576)" fill="#FF000E" fill-opacity="1"/>
<use xlink:href="#s2" transform="matrix(0.8090169943749477 0.5877852522924736 -0.5877852522924736 0.8090169943749477 78.5410196624968 80.57480106940812)" fill="#FF000E" fill-opacity="1"/>
<use xlink:href="#s7" transform="matrix(-0.8090169943749479 -0.587785252292473 0.587785252292473 -0.8090169943749479 88.54101966249694 172.90530718466573)" fill="#FF000E" fill-opacity="1"/>
<use xlink:href="#s2" transform="matrix(1.0000000000000007 0.0 0.0 1.0000000000000007 52.360679774997976 222.70327288232136)" fill="#FF000E" fill-opacity="1"/>
<use xlink:href="#s7" transform="matrix(-0.30901699437494773 0.9510565162951536 -0.9510565162951536 -0.30901699437494773 36.18033988749902 172.90530718466573)" fill="#FF000E" fill-opacity="1"/>
<use xlink:href="#s2" transform="matrix(0.309016994374948 -0.9510565162951536 0.9510565162951536 0.309016994374948 147.08203932499362 130.37276676706378)" fill="#FF000E" fill-opacity="1"/>
<use xlink:href="#s2" transform="matrix(1.0000000000000004 4.440892098500626e-16 -4.440892098500626e-16 1.0000000000000004 110.90169943749467 142.12847181291323)" fill="#FF000E" fill-opacity="1"/>
<use xlink:href="#s2" transform="matrix(1.0000000000000007 8.881784197001253e-17 -8.881784197001253e-17 1.0000000000000007 68.54101966249678 111.35163644116068)" fill="#FF000E" fill-opacity="1"/>
<use xlink:href="#s2" transform="matrix(-0.3090169943749477 -0.9510565162951541 0.9510565162951541 -0.3090169943749477 78.54101966249694 241.72440320822443)" fill="#FF000E" fill-opacity="1"/>
<use xlink:href="#s2" transform="matrix(1.0000000000000002 2.220446049250313e-16 -2.220446049250313e-16 1.0000000000000002 10.000000000000057 191.9264375105688)" fill="#FF000E" fill-opacity="1"/>
<use xlink:href="#s2" transform="matrix(0.8090169943749475 0.5877852522924734 -0.5877852522924734 0.8090169943749475 -6.180339887498889 180.17073246471932)" fill="#FF000E" fill-opacity="1"/>
<use xlink:href="#s2" transform="matrix(-0.3090169943749471 -0.9510565162951541 0.9510565162951541 -0.3090169943749471 137.08203932499362 161.1496021388163)" fill="#FF000E" fill-opacity="1"/>
<use xlink:href="#s2" transform="matrix(0.8090169943749479 0.5877852522924737 -0.5877852522924737 0.8090169943749479 62.36067977499783 130.37276676706375)" fill="#FF000E" fill-opacity="1"/>
<use xlink:href="#s2" transform="matrix(-0.809016994374948 -0.5877852522924732 0.5877852522924732 -0.809016994374948 104.7213595499959 222.70327288232136)" fill="#FF000E" fill-opacity="1"/>
<use xlink:href="#s2" transform="matrix(0.8090169943749479 -0.5877852522924732 0.5877852522924732 0.8090169943749479 20.00000000000005 222.70327288232136)" fill="#FF000E" fill-opacity="1"/>
<use xlink:href="#s2" transform="matrix(-1.0000000000000007 2.664535259100376e-16 -2.664535259100376e-16 -1.0000000000000007 114.7213595499959 191.9264375105688)" fill="#FF000E" fill-opacity="1"/>
<use xlink:href="#r1" transform="matrix(1.0 0.0 0.0 1.0 0.0 0.0)" fill="#000000" fill-opacity="0"/>
<use xlink:href="#p1" transform="matrix(1.0 0.0 0.0 1.0 0.0 0.0)" fill="#FFFFFF" fill-opacity="1"/>
<use xlink:href="#p2" transform="matrix(-1.0 0.0 0.0 -1.0 20.0 0.0)" fill="#FFFFFF" fill-opacity="1"/>
<use xlink:href="#p2" transform="matrix(-0.8090169943749477 0.5877852522924732 -0.5877852522924732 -0.8090169943749477 52.3606797749979 0.0)" fill="#FFFFFF" fill-opacity="1"/>
<use xlink:href="#p2" transform="matrix(1.0 0.0 0.0 1.0 0.0 61.553670743505066)" fill="#FFFFFF" fill-opacity="1"/>
<use xlink:href="#p2" transform="matrix(0.30901699437494745 0.9510565162951535 -0.9510565162951535 0.30901699437494745 -6.180339887498949 -19.02113032590307)" fill="#FFFFFF" fill-opacity="1"/>
<use xlink:href="#r1" transform="matrix(-1.0000000000000004 -1.7763568394002506e-16 1.7763568394002506e-16 -1.0000000000000004 46.18033988749895 -19.021130325903076)" fill="#000000" fill-opacity="0"/>
<use xlink:href="#p1" transform="matrix(-1.0000000000000004 -1.7763568394002506e-16 1.7763568394002506e-16 -1.0000000000000004 46.18033988749895 -19.021130325903076)" fill="#FFFFFF" fill-opacity="1"/>
<use xlink:href="#p2" transform="matrix(-0.30901699437494745 -0.9510565162951535 0.9510565162951535 -0.30901699437494745 26.18033988749895 80.57480106940814)" fill="#FFFFFF" fill-opacity="1"/>
<use xlink:href="#r1" transform="matrix(0.8090169943749475 -0.5877852522924732 0.5877852522924732 0.8090169943749475 10.0 92.3305061152576)" fill="#000000" fill-opacity="0"/>
<use xlink:href="#p1" transform="matrix(0.8090169943749475 -0.5877852522924732 0.5877852522924732 0.8090169943749475 10.0 92.3305061152576)" fill="#FFFFFF" fill-opacity="1"/>
<use xlink:href="#p2" transform="matrix(0.8090169943749475 0.587785252292473 -0.587785252292473 0.8090169943749475 -32.36067977499789 3.552713678800501e-15)" fill="#FFFFFF" fill-opacity="1"/>
<use xlink:href="#p7" transform="matrix(0.3090169943749474 0.9510565162951539 -0.9510565162951539 0.3090169943749474 3.8196601125010474 -49.79796569765563)" fill="#FFFFFF" fill-opacity="1"/>
<use xlink:href="#p2" transform="matrix(-0.809016994374948 0.5877852522924729 -0.5877852522924729 -0.809016994374948 26.180339887498956 -80.57480106940817)" fill="#FFFFFF" fill-opacity="1"/>
<use xlink:href="#p2" transform="matrix(-0.8090169943749477 -0.5877852522924737 0.5877852522924737 -0.8090169943749477 62.36067977499792 -68.81909602355869)" fill="#FFFFFF" fill-opacity="1"/>
<use xlink:href="#p2" transform="matrix(0.30901699437494773 -0.9510565162951539 0.9510565162951539 0.30901699437494773 62.36067977499791 -30.77683537175253)" fill="#FFFFFF" fill-opacity="1"/>
<use xlink:href="#p2" transform="matrix(-0.8090169943749475 -0.587785252292473 0.587785252292473 -0.8090169943749475 52.36067977499789 61.553670743505066)" fill="#FFFFFF" fill-opacity="1"/>
<use xlink:href="#p2" transform="matrix(1.0 -1.7763568394002506e-16 1.7763568394002506e-16 1.0 -42.36067977499789 30.77683537175254)" fill="#FFFFFF" fill-opacity="1"/>
<use xlink:href="#r1" transform="matrix(-0.8090169943749473 0.5877852522924731 -0.5877852522924731 -0.8090169943749473 -32.36067977499789 3.552713678800501e-15)" fill="#000000" fill-opacity="0"/>
<use xlink:href="#p1" transform="matrix(-0.8090169943749473 0.5877852522924731 -0.5877852522924731 -0.8090169943749473 -32.36067977499789 3.552713678800501e-15)" fill="#FFFFFF" fill-opacity="1"/>
<use xlink:href="#p2" transform="matrix(-0.8090169943749479 0.5877852522924732 -0.5877852522924732 -0.8090169943749479 -16.180339887498956 -49.79796569765563)" fill="#FFFFFF" fill-opacity="1"/>
<use xlink:href="#p2" transform="matrix(-1.0000000000000002 -1.332267629550188e-16 1.332267629550188e-16 -1.0000000000000002 3.8196601125010474 -49.79796569765563)" fill="#FFFFFF" fill-opacity="1"/>
<use xlink:href="#r1" transform="matrix(-0.30901699437494795 0.9510565162951539 -0.9510565162951539 -0.30901699437494795 7.105427357601002e-15 -99.59593139531125)" fill="#000000" fill-opacity="0"/>
<use xlink:href="#p1" transform="matrix(-0.30901699437494795 0.9510565162951539 -0.9510565162951539 -0.30901699437494795 7.105427357601002e-15 -99.59593139531125)" fill="#FFFFFF" fill-opacity="1"/>
<use xlink:href="#p7" transform="matrix(0.3090169943749472 0.9510565162951544 -0.9510565162951544 0.3090169943749472 30.000000000000036 -130.3727667670638)" fill="#FFFFFF" fill-opacity="1"/>
<use xlink:href="#p2" transform="matrix(-0.309016994374947 -0.9510565162951541 0.9510565162951541 -0.309016994374947 26.180339887498956 -80.57480106940817)" fill="#FFFFFF" fill-opacity="1"/>
<use xlink:href="#r1" transform="matrix(-1.0000000000000007 -2.664535259100376e-16 2.664535259100376e-16 -1.0000000000000007 72.36067977499793 -99.59593139531123)" fill="#000000" fill-opacity="0"/>
<use xlink:href="#p1" transform="matrix(-1.0000000000000007 -2.664535259100376e-16 2.664535259100376e-16 -1.0000000000000007 72.36067977499793 -99.59593139531123)" fill="#FFFFFF" fill-opacity="1"/>
<use xlink:href="#p2" transform="matrix(0.809016994374948 -0.5877852522924731 0.5877852522924731 0.809016994374948 62.36067977499792 -68.81909602355869)" fill="#FFFFFF" fill-opacity="1"/>
<use xlink:href="#p2" transform="matrix(-1.0 1.7763568394002506e-16 -1.7763568394002506e-16 -1.0 62.36067977499789 30.77683537175253)" fill="#FFFFFF" fill-opacity="1"/>
<use xlink:href="#r1" transform="matrix(-0.30901699437494745 -0.9510565162951536 0.9510565162951536 -0.30901699437494745 68.54101966249684 49.797965697655606)" fill="#000000" fill-opacity="0"/>
<use xlink:href="#p1" transform="matrix(-0.30901699437494745 -0.9510565162951536 0.9510565162951536 -0.30901699437494745 68.54101966249684 49.797965697655606)" fill="#FFFFFF" fill-opacity="1"/>
<use xlink:href="#p7" transform="matrix(-0.8090169943749477 -0.5877852522924731 0.5877852522924731 -0.8090169943749477 62.36067977499789 92.3305061152576)" fill="#FFFFFF" fill-opacity="1"/>
<use xlink:href="#p2" transform="matrix(0.8090169943749473 -0.5877852522924735 0.5877852522924735 0.8090169943749473 -32.360679774997884 61.55367074350507)" fill="#FFFFFF" fill-opacity="1"/>
<use xlink:href="#r1" transform="matrix(0.8090169943749477 0.5877852522924731 -0.5877852522924731 0.8090169943749477 -48.541019662496836 49.79796569765561)" fill="#000000" fill-opacity="0"/>
<use xlink:href="#p1" transform="matrix(0.8090169943749477 0.5877852522924731 -0.5877852522924731 0.8090169943749477 -48.541019662496836 49.79796569765561)" fill="#FFFFFF" fill-opacity="1"/>
<use xlink:href="#p7" transform="matrix(1.0 0.0 0.0 1.0 -68.54101966249684 11.755705045849465)" fill="#FFFFFF" fill-opacity="1"/>
<use xlink:href="#p2" transform="matrix(0.3090169943749475 0.9510565162951535 -0.9510565162951535 0.3090169943749475 -90.90169943749473 -19.021130325903062)" fill="#FFFFFF" fill-opacity="1"/>
<use xlink:href="#p2" transform="matrix(-0.3090169943749477 0.9510565162951541 -0.9510565162951541 -0.3090169943749477 -42.360679774997905 -68.81909602355871)" fill="#FFFFFF" fill-opacity="1"/>
<use xlink:href="#p2" transform="matrix(-0.8090169943749483 0.587785252292473 -0.587785252292473 -0.8090169943749483 -42.360679774997884 -130.3727667670638)" fill="#FFFFFF" fill-opacity="1"/>
<use xlink:href="#p2" transform="matrix(-1.0000000000000004 -3.9968028886505636e-16 3.9968028886505636e-16 -1.0000000000000004 -22.360679774997873 -130.3727667670638)" fill="#FFFFFF" fill-opacity="1"/>
<use xlink:href="#p2" transform="matrix(-0.8090169943749477 -0.5877852522924737 0.5877852522924737 -0.8090169943749477 -6.180339887498924 -118.61706172121433)" fill="#FFFFFF" fill-opacity="1"/>
<use xlink:href="#p2" transform="matrix(-1.0000000000000007 -4.884981308350689e-16 4.884981308350689e-16 -1.0000000000000007 30.000000000000036 -130.3727667670638)" fill="#FFFFFF" fill-opacity="1"/>
<use xlink:href="#p2" transform="matrix(-0.8090169943749482 0.5877852522924732 -0.5877852522924732 -0.8090169943749482 52.360679774997934 -161.14960213881633)" fill="#FFFFFF" fill-opacity="1"/>
<use xlink:href="#p2" transform="matrix(-1.0000000000000007 -2.664535259100376e-16 2.664535259100376e-16 -1.0000000000000007 72.36067977499795 -161.14960213881633)" fill="#FFFFFF" fill-opacity="1"/>
<use xlink:href="#p2" transform="matrix(-0.30901699437494745 -0.9510565162951544 0.9510565162951544 -0.30901699437494745 94.72135954999585 -130.37276676706375)" fill="#FFFFFF" fill-opacity="1"/>
<use xlink:href="#p7" transform="matrix(-0.8090169943749473 0.5877852522924732 -0.5877852522924732 -0.8090169943749473 84.72135954999578 -7.105427357601002e-15)" fill="#FFFFFF" fill-opacity="1"/>
<use xlink:href="#p2" transform="matrix(-1.0000000000000002 0.0 0.0 -1.0000000000000002 104.72135954999578 -7.105427357601002e-15)" fill="#FFFFFF" fill-opacity="1"/>
<use xlink:href="#p7" transform="matrix(0.3090169943749473 -0.9510565162951541 0.9510565162951541 0.3090169943749473 -32.36067977499788 99.59593139531123)" fill="#FFFFFF" fill-opacity="1"/>
<use xlink:href="#p2" transform="matrix(1.0 0.0 0.0 1.0 -68.54101966249684 111.35163644116068)" fill="#FFFFFF" fill-opacity="1"/>
<use xlink:href="#p2" transform="matrix(0.8090169943749477 0.5877852522924731 -0.5877852522924731 0.8090169943749477 -84.72135954999578 99.59593139531123)" fill="#FFFFFF" fill-opacity="1"/>
<use xlink:href="#p2" transform="matrix(-0.8090169943749475 0.5877852522924732 -0.5877852522924732 -0.8090169943749475 -68.54101966249684 49.797965697655606)" fill="#FFFFFF" fill-opacity="1"/>
<use xlink:href="#p2" transform="matrix(-0.30901699437494745 0.9510565162951535 -0.9510565162951535 -0.30901699437494745 -68.54101966249684 11.755705045849465)" fill="#FFFFFF" fill-opacity="1"/>
<use xlink:href="#r1" transform="matrix(0.8090169943749475 0.587785252292473 -0.587785252292473 0.8090169943749475 -117.08203932499367 1.0658141036401503e-14)" fill="#000000" fill-opacity="0"/>
<use xlink:href="#p1" transform="matrix(0.8090169943749475 0.587785252292473 -0.587785252292473 0.8090169943749475 -117.08203932499367 1.0658141036401503e-14)" fill="#FFFFFF" fill-opacity="1"/>
<use xlink:href="#p2" transform="matrix(-1.0 8.881784197001253e-17 -8.881784197001253e-17 -1.0 -90.90169943749473 -19.021130325903062)" fill="#FFFFFF" fill-opacity="1"/>
<use xlink:href="#p2" transform="matrix(-0.809016994374948 0.5877852522924734 -0.5877852522924734 -0.809016994374948 104.72135954999587 -161.1496021388163)" fill="#FFFFFF" fill-opacity="1"/>
<use xlink:href="#r1" transform="matrix(-0.8090169943749477 -0.5877852522924734 0.5877852522924734 -0.8090169943749477 110.90169943749473 -19.02113032590308)" fill="#000000" fill-opacity="0"/>
<use xlink:href="#p1" transform="matrix(-0.8090169943749477 -0.5877852522924734 0.5877852522924734 -0.8090169943749477 110.90169943749473 -19.02113032590308)" fill="#FFFFFF" fill-opacity="1"/>
<use xlink:href="#p2" transform="matrix(0.3090169943749475 -0.9510565162951536 0.9510565162951536 0.3090169943749475 104.72135954999578 -7.105427357601002e-15)" fill="#FFFFFF" fill-opacity="1"/>
<use xlink:href="#p2" transform="matrix(0.8090169943749479 0.5877852522924731 -0.5877852522924731 0.8090169943749479 -32.36067977499788 99.59593139531123)" fill="#FFFFFF" fill-opacity="1"/>
<use xlink:href="#p7" transform="matrix(0.3090169943749473 -0.9510565162951541 0.9510565162951541 0.3090169943749473 -100.90169943749473 149.39389709296682)" fill="#FFFFFF" fill-opacity="1"/>
<use xlink:href="#r1" transform="matrix(0.3090169943749476 0.9510565162951536 -0.9510565162951536 0.3090169943749476 -100.90169943749473 111.3516364411607)" fill="#000000" fill-opacity="0"/>
<use xlink:href="#p1" transform="matrix(0.3090169943749476 0.9510565162951536 -0.9510565162951536 0.3090169943749476 -100.90169943749473 111.3516364411607)" fill="#FFFFFF" fill-opacity="1"/>
<use xlink:href="#p2" transform="matrix(-0.8090169943749475 0.5877852522924732 -0.5877852522924732 -0.8090169943749475 -84.72135954999578 99.59593139531123)" fill="#FFFFFF" fill-opacity="1"/>
<use xlink:href="#p7" transform="matrix(0.9999999999999999 8.881784197001253e-17 -8.881784197001253e-17 0.9999999999999999 -137.08203932499367 61.55367074350508)" fill="#FFFFFF" fill-opacity="1"/>
<use xlink:href="#p2" transform="matrix(0.8090169943749475 0.587785252292473 -0.587785252292473 0.8090169943749475 -153.26237921249262 49.79796569765561)" fill="#FFFFFF" fill-opacity="1"/>
<use xlink:href="#p2" transform="matrix(0.3090169943749474 0.9510565162951536 -0.9510565162951536 0.3090169943749474 -159.44271909999156 30.776835371752536)" fill="#FFFFFF" fill-opacity="1"/>
<use xlink:href="#r1" transform="matrix(-0.8090169943749475 0.5877852522924734 -0.5877852522924734 -0.8090169943749475 -100.90169943749473 -49.7979656976556)" fill="#000000" fill-opacity="0"/>
<use xlink:href="#p1" transform="matrix(-0.8090169943749475 0.5877852522924734 -0.5877852522924734 -0.8090169943749475 -100.90169943749473 -49.7979656976556)" fill="#FFFFFF" fill-opacity="1"/>
<use xlink:href="#p2" transform="matrix(-0.8090169943749475 -0.5877852522924732 0.5877852522924732 -0.8090169943749475 -84.72135954999578 -38.04226065180613)" fill="#FFFFFF" fill-opacity="1"/>
<use xlink:href="#p7" transform="matrix(-0.8090169943749479 0.5877852522924732 -0.5877852522924732 -0.8090169943749479 110.90169943749473 -80.57480106940815)" fill="#FFFFFF" fill-opacity="1"/>
<use xlink:href="#p2" transform="matrix(-1.0000000000000002 -2.664535259100376e-16 2.664535259100376e-16 -1.0000000000000002 130.90169943749473 -80.57480106940815)" fill="#FFFFFF" fill-opacity="1"/>
<use xlink:href="#p2" transform="matrix(-0.8090169943749477 -0.5877852522924734 0.5877852522924734 -0.8090169943749477 147.08203932499367 -68.8190960235587)" fill="#FFFFFF" fill-opacity="1"/>
<use xlink:href="#p2" transform="matrix(-0.3090169943749474 -0.9510565162951541 0.9510565162951541 -0.3090169943749474 153.26237921249265 -49.79796569765561)" fill="#FFFFFF" fill-opacity="1"/>
<use xlink:href="#p2" transform="matrix(0.3090169943749477 -0.9510565162951541 0.9510565162951541 0.3090169943749477 147.08203932499367 -30.776835371752533)" fill="#FFFFFF" fill-opacity="1"/>
<use xlink:href="#p2" transform="matrix(0.8090169943749477 -0.5877852522924731 0.5877852522924731 0.8090169943749477 120.90169943749473 11.755705045849457)" fill="#FFFFFF" fill-opacity="1"/>
<use xlink:href="#p2" transform="matrix(0.30901699437494723 -0.9510565162951541 0.9510565162951541 0.30901699437494723 -22.360679774997863 130.37276676706375)" fill="#FFFFFF" fill-opacity="1"/>
<use xlink:href="#p2" transform="matrix(1.0000000000000002 -2.664535259100376e-16 2.664535259100376e-16 1.0000000000000002 -84.72135954999577 161.14960213881628)" fill="#FFFFFF" fill-opacity="1"/>
<use xlink:href="#p2" transform="matrix(1.0000000000000002 -1.332267629550188e-16 1.332267629550188e-16 1.0000000000000002 -137.08203932499367 161.1496021388163)" fill="#FFFFFF" fill-opacity="1"/>
<use xlink:href="#p2" transform="matrix(-1.0000000000000002 0.0 0.0 -1.0000000000000002 -90.90169943749473 80.57480106940815)" fill="#FFFFFF" fill-opacity="1"/>
<use xlink:href="#p2" transform="matrix(0.3090169943749473 0.9510565162951533 -0.9510565162951533 0.3090169943749473 -143.26237921249262 80.57480106940815)" fill="#FFFFFF" fill-opacity="1"/>
<use xlink:href="#p7" transform="matrix(1.0000000000000002 -1.7763568394002506e-16 1.7763568394002506e-16 1.0000000000000002 -137.08203932499367 -38.04226065180613)" fill="#FFFFFF" fill-opacity="1"/>
<use xlink:href="#p2" transform="matrix(0.3090169943749477 0.9510565162951536 -0.9510565162951536 0.3090169943749477 -159.4427190999916 -68.81909602355866)" fill="#FFFFFF" fill-opacity="1"/>
<use xlink:href="#p2" transform="matrix(-0.8090169943749475 0.5877852522924734 -0.5877852522924734 -0.8090169943749475 -137.08203932499367 -99.5959313953112)" fill="#FFFFFF" fill-opacity="1"/>
<use xlink:href="#p2" transform="matrix(-0.8090169943749479 -0.5877852522924731 0.5877852522924731 -0.8090169943749479 -100.90169943749473 -87.84022634946174)" fill="#FFFFFF" fill-opacity="1"/>
<use xlink:href="#p7" transform="matrix(0.3090169943749477 0.9510565162951541 -0.9510565162951541 0.3090169943749477 -64.72135954999578 -99.59593139531123)" fill="#FFFFFF" fill-opacity="1"/>
<use xlink:href="#p2" transform="matrix(-0.8090169943749479 0.5877852522924732 -0.5877852522924732 -0.8090169943749479 120.90169943749473 -111.3516364411607)" fill="#FFFFFF" fill-opacity="1"/>
<use xlink:href="#p7" transform="matrix(-0.8090169943749477 0.5877852522924732 -0.5877852522924732 -0.8090169943749477 169.44271909999156 -3.552713678800501e-15)" fill="#FFFFFF" fill-opacity="1"/>
<use xlink:href="#p2" transform="matrix(1.0000000000000002 2.664535259100376e-16 -2.664535259100376e-16 1.0000000000000002 127.08203932499367 30.77683537175253)" fill="#FFFFFF" fill-opacity="1"/>
<use xlink:href="#p2" transform="matrix(0.8090169943749477 -0.5877852522924736 0.5877852522924736 0.8090169943749477 -6.180339887498906 142.1284718129132)" fill="#FFFFFF" fill-opacity="1"/>
<use xlink:href="#r1" transform="matrix(0.8090169943749479 0.5877852522924731 -0.5877852522924731 0.8090169943749479 -22.360679774997863 130.37276676706375)" fill="#000000" fill-opacity="0"/>
<use xlink:href="#p1" transform="matrix(0.8090169943749479 0.5877852522924731 -0.5877852522924731 0.8090169943749479 -22.360679774997863 130.37276676706375)" fill="#FFFFFF" fill-opacity="1"/>
<use xlink:href="#p2" transform="matrix(-0.3090169943749477 -0.9510565162951536 0.9510565162951536 -0.3090169943749477 -110.90169943749471 180.17073246471938)" fill="#FFFFFF" fill-opacity="1"/>
<use xlink:href="#p2" transform="matrix(0.8090169943749473 0.587785252292473 -0.587785252292473 0.8090169943749473 -169.44271909999156 99.59593139531123)" fill="#FFFFFF" fill-opacity="1"/>
<use xlink:href="#p2" transform="matrix(0.3090169943749477 0.9510565162951536 -0.9510565162951536 0.3090169943749477 -143.26237921249262 -19.02113032590306)" fill="#FFFFFF" fill-opacity="1"/>
<use xlink:href="#p2" transform="matrix(0.8090169943749475 -0.5877852522924734 0.5877852522924734 0.8090169943749475 -169.4427190999916 -38.04226065180612)" fill="#FFFFFF" fill-opacity="1"/>
<use xlink:href="#p2" transform="matrix(0.8090169943749477 0.587785252292473 -0.587785252292473 0.8090169943749477 -169.44271909999156 -99.5959313953112)" fill="#FFFFFF" fill-opacity="1"/>
<use xlink:href="#p2" transform="matrix(-0.30901699437494723 0.9510565162951541 -0.9510565162951541 -0.30901699437494723 -110.90169943749474 -118.61706172121428)" fill="#FFFFFF" fill-opacity="1"/>
<use xlink:href="#p2" transform="matrix(-1.0000000000000004 8.881784197001253e-17 -8.881784197001253e-17 -1.0000000000000004 -64.72135954999578 -99.59593139531123)" fill="#FFFFFF" fill-opacity="1"/>
<use xlink:href="#p2" transform="matrix(-0.30901699437494745 -0.9510565162951536 0.9510565162951536 -0.30901699437494745 169.44271909999156 -3.552713678800501e-15)" fill="#FFFFFF" fill-opacity="1"/>
<use xlink:href="#r1" transform="matrix(-0.30901699437494723 -0.9510565162951536 0.9510565162951536 -0.30901699437494723 153.26237921249262 49.79796569765561)" fill="#000000" fill-opacity="0"/>
<use xlink:href="#p1" transform="matrix(-0.30901699437494723 -0.9510565162951536 0.9510565162951536 -0.30901699437494723 153.26237921249262 49.79796569765561)" fill="#FFFFFF" fill-opacity="1"/>
<use xlink:href="#p2" transform="matrix(0.8090169943749475 0.5877852522924736 -0.5877852522924736 0.8090169943749475 120.90169943749471 49.7979656976556)" fill="#FFFFFF" fill-opacity="1"/>
<use xlink:href="#p2" transform="matrix(0.30901699437494734 -0.9510565162951541 0.9510565162951541 0.30901699437494734 20.000000000000057 161.14960213881628)" fill="#FFFFFF" fill-opacity="1"/>
<use xlink:href="#p2" transform="matrix(0.8090169943749479 0.5877852522924731 -0.5877852522924731 0.8090169943749479 -58.54101966249681 180.17073246471938)" fill="#FFFFFF" fill-opacity="1"/>
<use xlink:href="#p2" transform="matrix(1.0 -8.881784197001253e-17 8.881784197001253e-17 1.0 -179.44271909999156 130.37276676706375)" fill="#FFFFFF" fill-opacity="1"/>
<use xlink:href="#p2" transform="matrix(0.8090169943749477 0.587785252292473 -0.587785252292473 0.8090169943749477 -169.44271909999156 2.1316282072803006e-14)" fill="#FFFFFF" fill-opacity="1"/>
<use xlink:href="#p2" transform="matrix(-0.8090169943749471 -0.5877852522924734 0.5877852522924734 -0.8090169943749471 205.6230589874905 11.755705045849481)" fill="#FFFFFF" fill-opacity="1"/>
<use xlink:href="#p2" transform="matrix(-0.30901699437494723 -0.9510565162951536 0.9510565162951536 -0.30901699437494723 211.80339887498945 30.776835371752554)" fill="#FFFFFF" fill-opacity="1"/>
<use xlink:href="#p2" transform="matrix(0.3090169943749479 -0.9510565162951536 0.9510565162951536 0.3090169943749479 205.6230589874905 49.79796569765563)" fill="#FFFFFF" fill-opacity="1"/>
<use xlink:href="#p2" transform="matrix(1.0 2.220446049250313e-16 -2.220446049250313e-16 1.0 169.44271909999156 61.55367074350508)" fill="#FFFFFF" fill-opacity="1"/>
<use xlink:href="#p7" transform="matrix(0.8090169943749468 0.5877852522924735 -0.5877852522924735 0.8090169943749468 153.26237921249262 49.79796569765561)" fill="#FFFFFF" fill-opacity="1"/>
<use xlink:href="#p2" transform="matrix(0.3090169943749472 0.9510565162951541 -0.9510565162951541 0.3090169943749472 104.72135954999575 61.55367074350506)" fill="#FFFFFF" fill-opacity="1"/>
<use xlink:href="#r1" transform="matrix(0.8090169943749477 -0.5877852522924736 0.5877852522924736 0.8090169943749477 36.18033988749902 172.90530718466573)" fill="#000000" fill-opacity="0"/>
<use xlink:href="#p1" transform="matrix(0.8090169943749477 -0.5877852522924736 0.5877852522924736 0.8090169943749477 36.18033988749902 172.90530718466573)" fill="#FFFFFF" fill-opacity="1"/>
<use xlink:href="#p2" transform="matrix(0.30901699437494723 -0.9510565162951541 0.9510565162951541 0.30901699437494723 -48.541019662496794 210.94756783647193)" fill="#FFFFFF" fill-opacity="1"/>
<use xlink:href="#p2" transform="matrix(0.8090169943749475 -0.5877852522924734 0.5877852522924734 0.8090169943749475 -169.44271909999156 161.14960213881628)" fill="#FFFFFF" fill-opacity="1"/>
<use xlink:href="#p2" transform="matrix(-0.30901699437494723 -0.9510565162951535 0.9510565162951535 -0.30901699437494723 195.6230589874905 80.57480106940815)" fill="#FFFFFF" fill-opacity="1"/>
<use xlink:href="#p2" transform="matrix(0.8090169943749477 -0.5877852522924724 0.5877852522924724 0.8090169943749477 147.08203932499364 92.33050611525759)" fill="#FFFFFF" fill-opacity="1"/>
<use xlink:href="#r1" transform="matrix(0.8090169943749479 -0.587785252292473 0.587785252292473 0.8090169943749479 94.72135954999574 92.3305061152576)" fill="#000000" fill-opacity="0"/>
<use xlink:href="#p1" transform="matrix(0.8090169943749479 -0.587785252292473 0.587785252292473 0.8090169943749479 94.72135954999574 92.3305061152576)" fill="#FFFFFF" fill-opacity="1"/>
<use xlink:href="#p2" transform="matrix(0.8090169943749477 0.5877852522924736 -0.5877852522924736 0.8090169943749477 78.5410196624968 80.57480106940812)" fill="#FFFFFF" fill-opacity="1"/>
<use xlink:href="#p7" transform="matrix(-0.8090169943749479 -0.587785252292473 0.587785252292473 -0.8090169943749479 88.54101966249694 172.90530718466573)" fill="#FFFFFF" fill-opacity="1"/>
<use xlink:href="#p2" transform="matrix(1.0000000000000007 0.0 0.0 1.0000000000000007 52.360679774997976 222.70327288232136)" fill="#FFFFFF" fill-opacity="1"/>
<use xlink:href="#p7" transform="matrix(-0.30901699437494773 0.9510565162951536 -0.9510565162951536 -0.30901699437494773 36.18033988749902 172.90530718466573)" fill="#FFFFFF" fill-opacity="1"/>
<use xlink:href="#p2" transform="matrix(0.309016994374948 -0.9510565162951536 0.9510565162951536 0.309016994374948 147.08203932499362 130.37276676706378)" fill="#FFFFFF" fill-opacity="1"/>
<use xlink:href="#p2" transform="matrix(1.0000000000000004 4.440892098500626e-16 -4.440892098500626e-16 1.0000000000000004 110.90169943749467 142.12847181291323)" fill="#FFFFFF" fill-opacity="1"/>
<use xlink:href="#p2" transform="matrix(1.0000000000000007 8.881784197001253e-17 -8.881784197001253e-17 1.0000000000000007 68.54101966249678 111.35163644116068)" fill="#FFFFFF" fill-opacity="1"/>
<use xlink:href="#p2" transform="matrix(-0.3090169943749477 -0.9510565162951541 0.9510565162951541 -0.3090169943749477 78.54101966249694 241.72440320822443)" fill="#FFFFFF" fill-opacity="1"/>
<use xlink:href="#p2" transform="matrix(1.0000000000000002 2.220446049250313e-16 -2.220446049250313e-16 1.0000000000000002 10.000000000000057 191.9264375105688)" fill="#FFFFFF" fill-opacity="1"/>
<use xlink:href="#p2" transform="matrix(0.8090169943749475 0.5877852522924734 -0.5877852522924734 0.8090169943749475 -6.180339887498889 180.17073246471932)" fill="#FFFFFF" fill-opacity="1"/>
<use xlink:href="#p2" transform="matrix(-0.3090169943749471 -0.9510565162951541 0.9510565162951541 -0.3090169943749471 137.08203932499362 161.1496021388163)" fill="#FFFFFF" fill-opacity="1"/>
<use xlink:href="#p2" transform="matrix(0.8090169943749479 0.5877852522924737 -0.5877852522924737 0.8090169943749479 62.36067977499783 130.37276676706375)" fill="#FFFFFF" fill-opacity="1"/>
<use xlink:href="#p2" transform="matrix(-0.809016994374948 -0.5877852522924732 0.5877852522924732 -0.809016994374948 104.7213595499959 222.70327288232136)" fill="#FFFFFF" fill-opacity="1"/>
<use xlink:href="#p2" transform="matrix(0.8090169943749479 -0.5877852522924732 0.5877852522924732 0.8090169943749479 20.00000000000005 222.70327288232136)" fill="#FFFFFF" fill-opacity="1"/>
<use xlink:href="#p2" transform="matrix(-1.0000000000000007 2.664535259100376e-16 -2.664535259100376e-16 -1.0000000000000007 114.7213595499959 191.9264375105688)" fill="#FFFFFF" fill-opacity="1"/>
</g>
</svg>