<?xml version="1.0" encoding="UTF-8" standalone="no"?>
<!DOCTYPE svg PUBLIC "-//W3C//DTD SVG 1.1//EN" "http://www.w3.org/Graphics/SVG/1.1/DTD/svg11.dtd">
<svg xmlns="http://www.w3.org/2000/svg" xmlns:xlink="http://www.w3.org/1999/xlink" viewBox="0 0 146.0 164.56406460551017" version="1.1" xml:space="preserve">
<defs>
<path id="p21" fill-rule="evenodd" stroke="#D800ED" stroke-opacity="1" stroke-width="6.0" d="M10.0,0.0 L10.0,5.773502691896256 L5.000000000000001,8.660254037844386 L10.0,5.773502691896256 Z M25.0,8.660254037844386 L20.0,11.547005383792515 L20.0,17.32050807568877 L20.0,11.547005383792515 Z"/>
<path id="q21" stroke="#000000" stroke-opacity="1" stroke-width="2.0" fill-opacity="0" d="M10.0,0.0 L10.0,5.773502691896256 L5.000000000000001,8.660254037844386 L10.0,5.773502691896256 Z M25.0,8.660254037844386 L20.0,11.547005383792515 L20.0,17.32050807568877 L20.0,11.547005383792515 Z"/>
</defs>
<g transform="translate(73.00000000000001 99.60254037844383) scale(1 -1) rotate(0.0)">
<use xlink:href="#p21" transform="matrix(1.0 0.0 0.0 1.0 0.0 0.0)" fill="#000000" fill-opacity="0.502"/>
<use xlink:href="#p21" transform="matrix(-0.5 -0.8660254037844386 0.8660254037844386 -0.5 30.0 17.32050807568877)" fill="#000000" fill-opacity="0.502"/>
<use xlink:href="#p21" transform="matrix(0.5 -0.8660254037844388 0.8660254037844388 0.5 1.7763568394002505e-15 34.64101615137754)" fill="#000000" fill-opacity="0.502"/>
<use xlink:href="#p21" transform="matrix(0.5000000000000001 0.8660254037844386 -0.8660254037844386 0.5000000000000001 0.0 0.0)" fill="#000000" fill-opacity="0.502"/>
<use xlink:href="#p21" transform="matrix(0.49999999999999983 -0.8660254037844386 0.8660254037844386 0.49999999999999983 30.0 17.32050807568877)" fill="#000000" fill-opacity="0.502"/>
<use xlink:href="#p21" transform="matrix(1.0 -1.7763568394002506e-16 1.7763568394002506e-16 1.0 1.7763568394002505e-15 34.64101615137754)" fill="#000000" fill-opacity="0.502"/>
<use xlink:href="#p21" transform="matrix(-0.49999999999999983 0.8660254037844388 -0.8660254037844388 -0.49999999999999983 0.0 0.0)" fill="#000000" fill-opacity="0.502"/>
<use xlink:href="#p21" transform="matrix(0.9999999999999999 -1.7763568394002506e-16 1.7763568394002506e-16 0.9999999999999999 30.0 17.32050807568877)" fill="#000000" fill-opacity="0.502"/>
<use xlink:href="#p21" transform="matrix(0.5000000000000003 0.8660254037844384 -0.8660254037844384 0.5000000000000003 1.7763568394002505e-15 34.64101615137754)" fill="#000000" fill-opacity="0.502"/>
<use xlink:href="#p21" transform="matrix(-1.0 2.664535259100376e-16 -2.664535259100376e-16 -1.0 0.0 0.0)" fill="#000000" fill-opacity="0.502"/>
<use xlink:href="#p21" transform="matrix(0.4999999999999998 -0.8660254037844386 0.8660254037844386 0.4999999999999998 30.000000000000007 51.961524227066306)" fill="#000000" fill-opacity="0.502"/>
<use xlink:href="#p21" transform="matrix(0.5000000000000002 0.8660254037844383 -0.8660254037844383 0.5000000000000002 30.0 17.32050807568877)" fill="#000000" fill-opacity="0.502"/>
<use xlink:href="#p21" transform="matrix(-0.49999999999999956 0.8660254037844389 -0.8660254037844389 -0.49999999999999956 1.7763568394002505e-15 34.64101615137754)" fill="#000000" fill-opacity="0.502"/>
<use xlink:href="#p21" transform="matrix(-0.5000000000000003 -0.8660254037844384 0.8660254037844384 -0.5000000000000003 0.0 0.0)" fill="#000000" fill-opacity="0.502"/>
<use xlink:href="#p21" transform="matrix(0.9999999999999999 -2.664535259100376e-16 2.664535259100376e-16 0.9999999999999999 30.000000000000007 51.961524227066306)" fill="#000000" fill-opacity="0.502"/>
<use xlink:href="#p21" transform="matrix(-1.0 6.217248937900877e-16 -6.217248937900877e-16 -1.0 1.7763568394002505e-15 34.64101615137754)" fill="#000000" fill-opacity="0.502"/>
<use xlink:href="#p21" transform="matrix(0.4999999999999995 -0.8660254037844389 0.8660254037844389 0.4999999999999995 0.0 0.0)" fill="#000000" fill-opacity="0.502"/>
<use xlink:href="#p21" transform="matrix(0.5000000000000003 0.8660254037844383 -0.8660254037844383 0.5000000000000003 30.000000000000007 51.961524227066306)" fill="#000000" fill-opacity="0.502"/>
<use xlink:href="#p21" transform="matrix(0.5000000000000006 0.8660254037844383 -0.8660254037844383 0.5000000000000006 -30.000000000000007 17.32050807568879)" fill="#000000" fill-opacity="0.502"/>
<use xlink:href="#p21" transform="matrix(-1.0 6.217248937900877e-16 -6.217248937900877e-16 -1.0 29.999999999999986 -17.320508075688792)" fill="#000000" fill-opacity="0.502"/>
<use xlink:href="#p21" transform="matrix(-0.4999999999999994 0.8660254037844388 -0.8660254037844388 -0.4999999999999994 30.000000000000007 51.961524227066306)" fill="#000000" fill-opacity="0.502"/>
<use xlink:href="#p21" transform="matrix(-0.49999999999999933 0.8660254037844389 -0.8660254037844389 -0.49999999999999933 -30.000000000000007 17.32050807568879)" fill="#000000" fill-opacity="0.502"/>
<use xlink:href="#p21" transform="matrix(-0.5000000000000007 -0.8660254037844383 0.8660254037844383 -0.5000000000000007 29.999999999999986 -17.320508075688792)" fill="#000000" fill-opacity="0.502"/>
<use xlink:href="#p21" transform="matrix(-0.9999999999999999 8.881784197001252e-16 -8.881784197001252e-16 -0.9999999999999999 -30.000000000000007 17.32050807568879)" fill="#000000" fill-opacity="0.502"/>
<use xlink:href="#p21" transform="matrix(0.4999999999999992 -0.8660254037844389 0.8660254037844389 0.4999999999999992 29.999999999999986 -17.320508075688792)" fill="#000000" fill-opacity="0.502"/>
<use xlink:href="#p21" transform="matrix(-0.5000000000000008 -0.8660254037844379 0.8660254037844379 -0.5000000000000008 -30.000000000000007 17.32050807568879)" fill="#000000" fill-opacity="0.502"/>
<use xlink:href="#p21" transform="matrix(0.9999999999999999 -9.769962616701378e-16 9.769962616701378e-16 0.9999999999999999 29.999999999999986 -17.320508075688792)" fill="#000000" fill-opacity="0.502"/>
<use xlink:href="#q21" transform="matrix(1.0 0.0 0.0 1.0 0.0 0.0)"/>
<use xlink:href="#q21" transform="matrix(-0.5 -0.8660254037844386 0.8660254037844386 -0.5 30.0 17.32050807568877)"/>
<use xlink:href="#q21" transform="matrix(0.5 -0.8660254037844388 0.8660254037844388 0.5 1.7763568394002505e-15 34.64101615137754)"/>
<use xlink:href="#q21" transform="matrix(0.5000000000000001 0.8660254037844386 -0.8660254037844386 0.5000000000000001 0.0 0.0)"/>
<use xlink:href="#q21" transform="matrix(0.49999999999999983 -0.8660254037844386 0.8660254037844386 0.49999999999999983 30.0 17.32050807568877)"/>
<use xlink:href="#q21" transform="matrix(1.0 -1.7763568394002506e-16 1.7763568394002506e-16 1.0 1.7763568394002505e-15 34.64101615137754)"/>
<use xlink:href="#q21" transform="matrix(-0.49999999999999983 0.8660254037844388 -0.8660254037844388 -0.49999999999999983 0.0 0.0)"/>
<use xlink:href="#q21" transform="matrix(0.9999999999999999 -1.7763568394002506e-16 1.7763568394002506e-16 0.9999999999999999 30.0 17.32050807568877)"/>
<use xlink:href="#q21" transform="matrix(0.5000000000000003 0.8660254037844384 -0.8660254037844384 0.5000000000000003 1.7763568394002505e-15 34.64101615137754)"/>
<use xlink:href="#q21" transform="matrix(-1.0 2.664535259100376e-16 -2.664535259100376e-16 -1.0 0.0 0.0)"/>
<use xlink:href="#q21" transform="matrix(0.4999999999999998 -0.8660254037844386 0.8660254037844386 0.4999999999999998 30.000000000000007 51.961524227066306)"/>
<use xlink:href="#q21" transform="matrix(0.5000000000000002 0.8660254037844383 -0.8660254037844383 0.5000000000000002 30.0 17.32050807568877)"/>
<use xlink:href="#q21" transform="matrix(-0.49999999999999956 0.8660254037844389 -0.8660254037844389 -0.49999999999999956 1.7763568394002505e-15 34.64101615137754)"/>
<use xlink:href="#q21" transform="matrix(-0.5000000000000003 -0.8660254037844384 0.8660254037844384 -0.5000000000000003 0.0 0.0)"/>
<use xlink:href="#q21" transform="matrix(0.9999999999999999 -2.664535259100376e-16 2.664535259100376e-16 0.9999999999999999 30.000000000000007 51.961524227066306)"/>
<use xlink:href="#q21" transform="matrix(-1.0 6.217248937900877e-16 -6.217248937900877e-16 -1.0 1.7763568394002505e-15 34.64101615137754)"/>
<use xlink:href="#q21" transform="matrix(0.4999999999999995 -0.8660254037844389 0.8660254037844389 0.4999999999999995 0.0 0.0)"/>
<use xlink:href="#q21" transform="matrix(0.5000000000000003 0.8660254037844383 -0.8660254037844383 0.5000000000000003 30.000000000000007 51.961524227066306)"/>
<use xlink:href="#q21" transform="matrix(0.5000000000000006 0.8660254037844383 -0.8660254037844383 0.5000000000000006 -30.000000000000007 17.32050807568879)"/>
<use xlink:href="#q21" transform="matrix(-1.0 6.217248937900877e-16 -6.217248937900877e-16 -1.0 29.999999999999986 -17.320508075688792)"/>
<use xlink:href="#q21" transform="matrix(-0.4999999999999994 0.8660254037844388 -0.8660254037844388 -0.4999999999999994 30.000000000000007 51.961524227066306)"/>
<use xlink:href="#q21" transform="matrix(-0.49999999999999933 0.8660254037844389 -0.8660254037844389 -0.49999999999999933 -30.000000000000007 17.32050807568879)"/>
<use xlink:href="#q21" transform="matrix(-0.5000000000000007 -0.8660254037844383 0.8660254037844383 -0.5000000000000007 29.999999999999986 -17.320508075688792)"/>
<use xlink:href="#q21" transform="matrix(-0.9999999999999999 8.881784197001252e-16 -8.881784197001252e-16 -0.9999999999999999 -30.000000000000007 17.32050807568879)"/>
<use xlink:href="#q21" transform="matrix(0.4999999999999992 -0.8660254037844389 0.8660254037844389 0.4999999999999992 29.999999999999986 -17.320508075688792)"/>
<use xlink:href="#q21" transform="matrix(-0.5000000000000008 -0.8660254037844379 0.8660254037844379 -0.5000000000000008 -30.000000000000007 17.32050807568879)"/>
<use xlink:href="#q21" transform="matrix(0.9999999999999999 -9.769962616701378e-16 9.769962616701378e-16 0.9999999999999999 29.999999999999986 -17.320508075688792)"/>
<path stroke="#D800ED" stroke-opacity="1" stroke-width="2.0" fill-opacity="0" d=""/>
</g>
</svg>