<?xml version="1.0" encoding="UTF-8" standalone="no"?>
<!DOCTYPE svg PUBLIC "-//W3C//DTD SVG 1.1//EN" "http://www.w3.org/Graphics/SVG/1.1/DTD/svg11.dtd">
<svg xmlns="http://www.w3.org/2000/svg" xmlns:xlink="http://www.w3.org/1999/xlink" viewBox="0 0 469.6067977499799 447.89513567294415" version="1.1" xml:space="preserve">
<defs>
<path id="p1" fill-rule="evenodd" stroke="#00E990" stroke-opacity="1" stroke-width="2.0" d="M10.0,0.0 L21.18033988749895,15.388417685876261 L39.270509831248425,21.266270208800996 L28.090169943749473,36.654687894677245 L28.090169943749473,55.675818220580325 L10.000000000000007,49.7979656976556 L-8.090169943749475,55.675818220580325 L-8.090169943749475,36.65468789467727 L-19.270509831248425,21.266270208800986 L-1.1803398874989404,15.388417685876249 Z M28.090169943749473,5.877852522924732 L28.09016994374948,24.8989828488278 L39.270509831248425,40.28740053470407 L21.180339887498945,46.16525305762881 L10.0,61.553670743505066 L-1.1803398874989517,46.16525305762879 L-19.270509831248425,40.28740053470406 L-8.090169943749485,24.89898284882779 L-8.090169943749475,5.877852522924726 L9.999999999999993,11.75570504584946 Z"/>
<path id="r1" d="M16.909830056250524,9.510565162951535 L21.18033988749895,15.388417685876261 L28.09016994374948,17.633557568774187 L28.09016994374948,24.8989828488278 L32.3606797749979,30.776835371752533 L28.090169943749473,36.654687894677245 L28.09016994374948,43.92011317473087 L21.180339887498945,46.16525305762881 L16.90983005625053,52.04310558055353 L10.000000000000007,49.7979656976556 L3.0901699437494705,52.04310558055353 L-1.1803398874989517,46.16525305762879 L-8.090169943749473,43.92011317473087 L-8.090169943749475,36.65468789467727 L-12.360679774997898,30.776835371752522 L-8.090169943749485,24.89898284882779 L-8.090169943749482,17.633557568774183 L-1.1803398874989404,15.388417685876249 L3.090169943749474,9.510565162951535 L9.999999999999993,11.75570504584946 Z"/>
<path id="p2" fill-rule="evenodd" stroke="#00E990" stroke-opacity="1" stroke-width="2.0" d="M10.0,0.0 L15.0,6.881909602355868 L23.090169943749473,9.510565162951535 L18.090169943749473,16.392474765307405 L18.090169943749473,24.898982848827803 L10.0,22.27032728823214 L1.9098300562505255,24.898982848827803 L1.9098300562505255,16.392474765307405 L-3.0901699437494745,9.510565162951535 L5.0,6.881909602355868 Z"/>
<path id="p3" fill-rule="evenodd" stroke="#00E990" stroke-opacity="1" stroke-width="2.0" d="M10.0,0.0 L16.909830056250524,9.510565162951535 L28.090169943749473,5.877852522924732 L28.090169943749473,11.755705045849464 L28.090169943749473,17.633557568774194 L16.909830056250524,14.000844928747396 L10.0,23.511410091698927 L3.0901699437494736,14.000844928747396 L-8.090169943749475,17.633557568774194 L-8.090169943749476,11.755705045849464 L-8.090169943749475,5.877852522924732 L3.0901699437494736,9.510565162951533 Z"/>
<path id="p4" fill-rule="evenodd" stroke="#00E990" stroke-opacity="1" stroke-width="2.0" d="M10.0,0.0 L16.909830056250527,9.510565162951535 L10.0,11.755705045849464 L3.0901699437494745,9.510565162951535 Z M10.0,38.04226065180614 L3.0901699437494745,28.531695488854606 L10.0,26.28655560595668 L16.909830056250527,28.531695488854606 Z"/>
<path id="p5" fill-rule="evenodd" stroke="#00E990" stroke-opacity="1" stroke-width="2.0" d="M10.0,0.0 L15.0,6.881909602355867 L23.090169943749473,9.510565162951535 L19.635254915624213,14.265847744427305 L16.18033988749895,19.02113032590307 L11.180339887498949,12.139220723547206 L3.0901699437494745,9.510565162951535 L6.545084971874737,4.755282581475766 Z"/>
<path id="p6" fill-rule="evenodd" stroke="#00E990" stroke-opacity="1" stroke-width="2.0" d="M10.0,0.0 L21.18033988749895,15.388417685876268 L39.270509831248425,21.266270208801 L27.360679774997898,37.6587449741084 L8.090169943749478,43.92011317473088 L8.090169943749476,24.8989828488278 L-3.0901699437494745,9.510565162951535 L5.0,6.881909602355868 Z M26.18033988749895,49.79796569765561 L15.0,34.40954801177934 L-3.0901699437494745,28.531695488854613 L8.819660112501051,12.1392207235472 L28.090169943749466,5.877852522924729 L28.090169943749473,24.898982848827806 L39.270509831248425,40.28740053470408 L31.18033988749895,42.916056095299744 Z"/>
<path id="p7" fill-rule="evenodd" stroke="#00E990" stroke-opacity="1" stroke-width="2.0" d="M10.0,0.0 L15.0,6.881909602355868 L23.090169943749473,9.510565162951535 L16.18033988749895,19.02113032590307 L23.090169943749473,28.531695488854606 L15.0,31.160351049450274 L10.0,38.04226065180614 L5.0,31.160351049450274 L-3.0901699437494745,28.531695488854606 L3.819660112501051,19.02113032590307 L-3.0901699437494745,9.510565162951535 L5.0,6.881909602355868 Z"/>
<path id="p8" fill-rule="evenodd" stroke="#00E990" stroke-opacity="1" stroke-width="2.0" d="M10.0,0.0 L21.18033988749895,15.388417685876268 L28.090169943749473,17.633557568774194 L28.090169943749473,5.877852522924732 L10.0,11.755705045849464 L3.0901699437494745,9.510565162951535 Z M16.18033988749895,42.532540417602 L5.0,27.14412273172573 L-1.9098300562505255,24.898982848827803 L-1.9098300562505255,36.65468789467727 L16.18033988749895,30.776835371752536 L23.090169943749473,33.021975254650464 Z"/>
<path id="p9" fill-rule="evenodd" stroke="#00E990" stroke-opacity="1" stroke-width="2.0" d="M10.0,0.0 L16.909830056250524,9.510565162951535 L28.090169943749473,5.877852522924732 L28.09016994374947,9.127049485253794 L26.18033988749895,11.755705045849464 L19.270509831248425,2.2451398828979303 L8.090169943749475,5.877852522924732 L8.090169943749473,2.6286555605956674 Z"/>
<path id="p18" fill-rule="evenodd" stroke="#00E990" stroke-opacity="1" stroke-width="2.0" d="M10.0,0.0 L27.360679774997898,23.894925769396682 L30.45084971874738,24.898982848827803 L30.45084971874738,9.89408084064928 L39.27050983124842,-2.24513988289792 L36.18033988749898,-3.24919696232906 L8.09016994374948,5.877852522924741 L8.09016994374948,2.6286555605956603 Z M28.09016994374948,-5.877852522924741 L31.18033988749894,-4.8737954434935995 L48.541019662496836,19.02113032590306 L50.45084971874738,16.39247476530738 L50.45084971874738,13.14327780297834 L22.360679774997898,22.270327288232142 L19.270509831248418,21.266270208801 L28.09016994374948,9.1270494852538 Z"/>
<path id="p19" fill-rule="evenodd" stroke="#00E990" stroke-opacity="1" stroke-width="2.0" d="M10.0,0.0 L25.45084971874738,21.266270208801 L22.2894608932112,22.29346770566832 L19.270509831248418,21.266270208801 L27.36067977499792,10.13110656468494 L40.45084971874738,5.877852522924741 L40.45084971874738,9.1270494852538 L38.541019662496836,11.75570504584946 L23.09016994374948,-9.51056516295154 L26.056907409281642,-10.474516599055018 L29.270509831248418,-9.51056516295154 L21.18033988749894,1.62459848116454 L8.09016994374948,5.877852522924741 L8.09016994374948,2.6286555605956603 Z"/>
<path id="p20" fill-rule="evenodd" stroke="#00E990" stroke-opacity="1" stroke-width="2.0" d="M10.0,0.0 L15.2786404500042,7.2654252800536 L10.0,14.53085056010722 L4.7213595499958,7.2654252800536 Z M28.09016994374948,-5.877852522924741 L39.27050983124842,-2.24513988289794 L28.09016994374948,13.14327780297832 L28.09016994374948,20.40870308303194 L39.27050983124842,16.77599044300514 L28.09016994374948,1.38757275712888 Z M-8.09016994374948,-5.877852522924741 L-8.09016994374948,1.3875727571289 L-19.270509831248418,16.77599044300514 L-8.09016994374948,20.40870308303196 L-8.09016994374948,13.14327780297834 L-19.270509831248418,-2.24513988289792 Z"/>
<path id="p34" fill-rule="evenodd" stroke="#00E990" stroke-opacity="1" stroke-width="2.0" d="M10.0,0.0 L15.2786404500042,7.2654252800536 L10.0,14.53085056010722 L4.7213595499958,7.2654252800536 Z M28.09016994374948,-5.877852522924741 L31.18033988749894,-4.8737954434935995 L33.09016994374948,-2.24513988289792 L28.09016994374948,-0.6205414017334 Z M33.09016994374948,16.77599044300514 L31.18033988749898,19.40464600360078 L28.09016994374948,20.40870308303194 L28.09016994374948,15.15139196184062 Z M-8.09016994374948,20.408703083031916 L-11.18033988749894,19.40464600360078 L-13.09016994374948,16.77599044300514 L-8.09016994374948,15.151391961840599 Z M-13.09016994374948,-2.24513988289794 L-11.18033988749894,-4.8737954434935995 L-8.09016994374948,-5.877852522924741 L-8.09016994374948,-0.6205414017334 Z"/>
<path id="p43" fill-rule="evenodd" stroke="#00E990" stroke-opacity="1" stroke-width="2.0" d="M10.0,0.0 L15.0,6.88190960235586 L23.09016994374948,9.51056516295154 L21.18033988749896,12.139220723547199 L18.09016994374948,13.14327780297834 L18.09016994374948,3.1432778029783397 L10.0,5.25731112119134 L1.90983005625052,3.1432778029783397 L1.90983005625052,13.14327780297834 L-1.18033988749894,12.139220723547199 L-3.09016994374948,9.51056516295154 L5.0,6.88190960235586 Z"/>
</defs>
<g transform="translate(71.5410196624969 143.37276676706375) scale(1 -1) rotate(0.0)">
<use xlink:href="#p2" transform="matrix(1.0 0.0 0.0 1.0 0.0 0.0)" fill="#000000" fill-opacity="0.502"/>
<use xlink:href="#p5" transform="matrix(-0.3090169943749475 0.9510565162951539 -0.9510565162951539 -0.3090169943749475 26.18033988749895 -19.021130325903076)" fill="#000000" fill-opacity="0.502"/>
<use xlink:href="#p9" transform="matrix(-0.8090169943749475 -0.5877852522924731 0.5877852522924731 -0.8090169943749475 42.3606797749979 30.776835371752533)" fill="#000000" fill-opacity="0.502"/>
<use xlink:href="#p2" transform="matrix(0.8090169943749475 -0.5877852522924732 0.5877852522924732 0.8090169943749475 10.0 30.776835371752536)" fill="#000000" fill-opacity="0.502"/>
<use xlink:href="#p9" transform="matrix(0.3090169943749475 -0.9510565162951539 0.9510565162951539 0.3090169943749475 20.0 0.0)" fill="#000000" fill-opacity="0.502"/>
<use xlink:href="#p5" transform="matrix(0.8090169943749479 0.5877852522924734 -0.5877852522924734 0.8090169943749479 -10.000000000000014 -30.776835371752544)" fill="#000000" fill-opacity="0.502"/>
<use xlink:href="#p9" transform="matrix(-0.8090169943749479 0.5877852522924734 -0.5877852522924734 -0.8090169943749479 42.360679774997905 -30.776835371752544)" fill="#000000" fill-opacity="0.502"/>
<use xlink:href="#p20" transform="matrix(1.0000000000000004 -2.664535259100376e-16 2.664535259100376e-16 1.0000000000000004 58.54101966249686 42.53254041760199)" fill="#000000" fill-opacity="0.502"/>
<use xlink:href="#p9" transform="matrix(0.8090169943749477 -0.5877852522924732 0.5877852522924732 0.8090169943749477 -3.552713678800501e-15 61.55367074350508)" fill="#000000" fill-opacity="0.502"/>
<use xlink:href="#p9" transform="matrix(-0.8090169943749479 -0.5877852522924734 0.5877852522924734 -0.8090169943749479 6.180339887498942 -19.021130325903076)" fill="#000000" fill-opacity="0.502"/>
<use xlink:href="#p9" transform="matrix(0.3090169943749477 0.9510565162951541 -0.9510565162951541 0.3090169943749477 -16.180339887498967 -49.79796569765563)" fill="#000000" fill-opacity="0.502"/>
<use xlink:href="#p5" transform="matrix(0.30901699437494756 0.9510565162951542 -0.9510565162951542 0.30901699437494756 16.180339887498945 -49.79796569765563)" fill="#000000" fill-opacity="0.502"/>
<use xlink:href="#p5" transform="matrix(1.0000000000000007 0.0 0.0 1.0000000000000007 16.180339887498942 -49.79796569765563)" fill="#000000" fill-opacity="0.502"/>
<use xlink:href="#p3" transform="matrix(-1.0000000000000004 2.664535259100376e-16 -2.664535259100376e-16 -1.0000000000000004 78.54101966249686 42.532540417601986)" fill="#000000" fill-opacity="0.502"/>
<use xlink:href="#p3" transform="matrix(1.0000000000000007 -2.664535259100376e-16 2.664535259100376e-16 1.0000000000000007 58.54101966249685 57.06339097770921)" fill="#000000" fill-opacity="0.502"/>
<use xlink:href="#p7" transform="matrix(0.8090169943749477 -0.5877852522924732 0.5877852522924732 0.8090169943749477 -22.3606797749979 30.77683537175254)" fill="#000000" fill-opacity="0.502"/>
<use xlink:href="#p9" transform="matrix(-1.0000000000000007 0.0 0.0 -1.0000000000000007 36.18033988749895 -49.79796569765563)" fill="#000000" fill-opacity="0.502"/>
<use xlink:href="#p8" transform="matrix(-0.3090169943749477 -0.9510565162951541 0.9510565162951541 -0.3090169943749477 42.360679774997905 -30.776835371752547)" fill="#000000" fill-opacity="0.502"/>
<use xlink:href="#p9" transform="matrix(-1.0000000000000007 2.664535259100376e-16 -2.664535259100376e-16 -1.0000000000000007 114.72135954999582 30.77683537175251)" fill="#000000" fill-opacity="0.502"/>
<use xlink:href="#r1" transform="matrix(0.8090169943749477 -0.5877852522924737 0.5877852522924737 0.8090169943749477 78.54101966249686 80.57480106940815)" fill="#000000" fill-opacity="0"/>
<use xlink:href="#p1" transform="matrix(0.8090169943749477 -0.5877852522924737 0.5877852522924737 0.8090169943749477 78.54101966249686 80.57480106940815)" fill="#000000" fill-opacity="0.502"/>
<use xlink:href="#p9" transform="matrix(-0.30901699437494756 0.9510565162951539 -0.9510565162951539 -0.30901699437494756 1.7763568394002505e-15 -3.552713678800501e-15)" fill="#000000" fill-opacity="0.502"/>
<use xlink:href="#p5" transform="matrix(0.809016994374948 -0.5877852522924736 0.5877852522924736 0.809016994374948 -16.180339887498974 -49.79796569765563)" fill="#000000" fill-opacity="0.502"/>
<use xlink:href="#p5" transform="matrix(-0.809016994374948 0.5877852522924737 -0.5877852522924737 -0.809016994374948 74.72135954999582 -68.81909602355871)" fill="#000000" fill-opacity="0.502"/>
<use xlink:href="#p5" transform="matrix(-0.30901699437494756 0.9510565162951541 -0.9510565162951541 -0.30901699437494756 100.90169943749477 -49.79796569765563)" fill="#000000" fill-opacity="0.502"/>
<use xlink:href="#p5" transform="matrix(0.809016994374948 -0.5877852522924737 0.5877852522924737 0.809016994374948 42.360679774997905 -30.776835371752547)" fill="#000000" fill-opacity="0.502"/>
<use xlink:href="#p5" transform="matrix(-0.30901699437494745 0.9510565162951542 -0.9510565162951542 -0.30901699437494745 104.72135954999581 -3.907985046680551e-14)" fill="#000000" fill-opacity="0.502"/>
<use xlink:href="#p5" transform="matrix(0.30901699437494784 0.9510565162951541 -0.9510565162951541 0.30901699437494784 147.08203932499373 68.81909602355866)" fill="#000000" fill-opacity="0.502"/>
<use xlink:href="#p4" transform="matrix(-0.809016994374948 0.5877852522924736 -0.5877852522924736 -0.809016994374948 -1.4210854715202004e-14 -61.553670743505094)" fill="#000000" fill-opacity="0.502"/>
<use xlink:href="#p9" transform="matrix(0.809016994374948 -0.5877852522924737 0.5877852522924737 0.809016994374948 58.541019662496865 -19.02113032590308)" fill="#000000" fill-opacity="0.502"/>
<use xlink:href="#p9" transform="matrix(-0.30901699437494734 0.9510565162951541 -0.9510565162951541 -0.30901699437494734 153.26237921249268 49.79796569765558)" fill="#000000" fill-opacity="0.502"/>
<use xlink:href="#p3" transform="matrix(0.809016994374948 0.5877852522924736 -0.5877852522924736 0.809016994374948 -38.541019662496886 -80.57480106940817)" fill="#000000" fill-opacity="0.502"/>
<use xlink:href="#p9" transform="matrix(0.809016994374948 -0.5877852522924737 0.5877852522924737 0.809016994374948 78.54101966249688 -19.021130325903084)" fill="#000000" fill-opacity="0.502"/>
<use xlink:href="#p5" transform="matrix(-0.809016994374948 -0.5877852522924732 0.5877852522924732 -0.809016994374948 163.2623792124927 80.57480106940812)" fill="#000000" fill-opacity="0.502"/>
<use xlink:href="#p3" transform="matrix(0.809016994374948 -0.5877852522924736 0.5877852522924736 0.809016994374948 -52.36067977499795 -99.59593139531125)" fill="#000000" fill-opacity="0.502"/>
<use xlink:href="#p5" transform="matrix(0.3090169943749479 0.9510565162951545 -0.9510565162951545 0.3090169943749479 114.72135954999585 -30.77683537175256)" fill="#000000" fill-opacity="0.502"/>
<use xlink:href="#p9" transform="matrix(1.0000000000000007 -1.7763568394002506e-16 1.7763568394002506e-16 1.0000000000000007 153.2623792124927 49.79796569765557)" fill="#000000" fill-opacity="0.502"/>
<use xlink:href="#p3" transform="matrix(0.3090169943749477 0.9510565162951542 -0.9510565162951542 0.3090169943749477 -1.4210854715202004e-14 -99.59593139531125)" fill="#000000" fill-opacity="0.502"/>
<use xlink:href="#p9" transform="matrix(0.8090169943749483 0.5877852522924737 -0.5877852522924737 0.8090169943749483 114.72135954999585 -30.77683537175256)" fill="#000000" fill-opacity="0.502"/>
<use xlink:href="#p5" transform="matrix(-1.0000000000000013 8.881784197001253e-17 -8.881784197001253e-17 -1.0000000000000013 104.72135954999585 1.0658141036401503e-14)" fill="#000000" fill-opacity="0.502"/>
<use xlink:href="#p5" transform="matrix(-0.3090169943749475 0.9510565162951542 -0.9510565162951542 -0.3090169943749475 179.44271909999165 30.776835371752487)" fill="#000000" fill-opacity="0.502"/>
<use xlink:href="#p5" transform="matrix(-0.3090169943749475 0.9510565162951542 -0.9510565162951542 -0.3090169943749475 189.44271909999168 61.55367074350503)" fill="#000000" fill-opacity="0.502"/>
<use xlink:href="#p9" transform="matrix(-1.0000000000000007 0.0 0.0 -1.0000000000000007 20.0 -99.59593139531125)" fill="#000000" fill-opacity="0.502"/>
<use xlink:href="#p5" transform="matrix(-0.8090169943749483 0.587785252292474 -0.587785252292474 -0.8090169943749483 137.0820393249938 3.552713678800501e-15)" fill="#000000" fill-opacity="0.502"/>
<use xlink:href="#p9" transform="matrix(-0.30901699437494795 -0.9510565162951548 0.9510565162951548 -0.30901699437494795 78.54101966249686 19.02113032590311)" fill="#000000" fill-opacity="0.502"/>
<use xlink:href="#p9" transform="matrix(-0.3090169943749475 0.9510565162951542 -0.9510565162951542 -0.3090169943749475 195.6230589874906 19.021130325903012)" fill="#000000" fill-opacity="0.502"/>
<use xlink:href="#p9" transform="matrix(-0.3090169943749478 -0.9510565162951542 0.9510565162951542 -0.3090169943749478 189.44271909999168 99.5959313953112)" fill="#000000" fill-opacity="0.502"/>
<use xlink:href="#p5" transform="matrix(-1.0000000000000007 0.0 0.0 -1.0000000000000007 3.8196601125010403 -111.35163644116072)" fill="#000000" fill-opacity="0.502"/>
<use xlink:href="#p2" transform="matrix(1.0000000000000007 -8.881784197001253e-17 8.881784197001253e-17 1.0000000000000007 9.99999999999999 -130.3727667670638)" fill="#000000" fill-opacity="0.502"/>
<use xlink:href="#p9" transform="matrix(-0.8090169943749479 0.5877852522924736 -0.5877852522924736 -0.8090169943749479 195.6230589874906 19.021130325903012)" fill="#000000" fill-opacity="0.502"/>
<use xlink:href="#p5" transform="matrix(-0.3090169943749478 -0.9510565162951542 0.9510565162951542 -0.3090169943749478 173.26237921249273 111.35163644116066)" fill="#000000" fill-opacity="0.502"/>
<use xlink:href="#p9" transform="matrix(-0.30901699437494756 0.9510565162951544 -0.9510565162951544 -0.30901699437494756 211.8033988749896 68.81909602355864)" fill="#000000" fill-opacity="0.502"/>
<use xlink:href="#p2" transform="matrix(-0.3090169943749478 -0.9510565162951542 0.9510565162951542 -0.3090169943749478 9.999999999999986 -130.3727667670638)" fill="#000000" fill-opacity="0.502"/>
<use xlink:href="#p34" transform="matrix(-0.8090169943749479 0.5877852522924736 -0.5877852522924736 -0.8090169943749479 175.6230589874906 19.021130325903016)" fill="#000000" fill-opacity="0.502"/>
<use xlink:href="#p19" transform="matrix(-0.8090169943749482 0.5877852522924737 -0.5877852522924737 -0.8090169943749482 183.26237921249276 80.5748010694081)" fill="#000000" fill-opacity="0.502"/>
<use xlink:href="#p5" transform="matrix(-0.30901699437494756 0.9510565162951544 -0.9510565162951544 -0.30901699437494756 231.80339887498963 68.81909602355864)" fill="#000000" fill-opacity="0.502"/>
<use xlink:href="#p5" transform="matrix(0.3090169943749479 0.9510565162951545 -0.9510565162951545 0.3090169943749479 205.62305898749065 87.84022634946172)" fill="#000000" fill-opacity="0.502"/>
<use xlink:href="#p9" transform="matrix(0.3090169943749478 0.9510565162951542 -0.9510565162951542 0.3090169943749478 3.8196601125010305 -149.39389709296688)" fill="#000000" fill-opacity="0.502"/>
<use xlink:href="#p9" transform="matrix(-0.8090169943749479 0.5877852522924737 -0.5877852522924737 -0.8090169943749479 19.999999999999986 -161.14960213881636)" fill="#000000" fill-opacity="0.502"/>
<use xlink:href="#p9" transform="matrix(-0.809016994374948 -0.5877852522924734 0.5877852522924734 -0.809016994374948 153.26237921249268 49.79796569765557)" fill="#000000" fill-opacity="0.502"/>
<use xlink:href="#p9" transform="matrix(0.809016994374948 -0.5877852522924737 0.5877852522924737 0.809016994374948 130.90169943749476 19.021130325903023)" fill="#000000" fill-opacity="0.502"/>
<use xlink:href="#p9" transform="matrix(-0.809016994374948 -0.5877852522924734 0.5877852522924734 -0.809016994374948 195.6230589874906 19.021130325903016)" fill="#000000" fill-opacity="0.502"/>
<use xlink:href="#p9" transform="matrix(-1.000000000000001 1.7763568394002506e-16 -1.7763568394002506e-16 -1.000000000000001 173.26237921249276 111.35163644116065)" fill="#000000" fill-opacity="0.502"/>
<use xlink:href="#p9" transform="matrix(0.8090169943749483 0.5877852522924737 -0.5877852522924737 0.8090169943749483 205.62305898749065 87.84022634946172)" fill="#000000" fill-opacity="0.502"/>
<use xlink:href="#p5" transform="matrix(-0.30901699437494756 0.9510565162951544 -0.9510565162951544 -0.30901699437494756 3.8196601125010305 -149.39389709296688)" fill="#000000" fill-opacity="0.502"/>
<use xlink:href="#p6" transform="matrix(-0.3090169943749479 -0.9510565162951544 0.9510565162951544 -0.3090169943749479 -3.197442310920451e-14 -161.14960213881636)" fill="#000000" fill-opacity="0.502"/>
<use xlink:href="#p9" transform="matrix(0.3090169943749476 -0.9510565162951544 0.9510565162951544 0.3090169943749476 130.90169943749476 19.021130325903023)" fill="#000000" fill-opacity="0.502"/>
<use xlink:href="#p9" transform="matrix(-0.809016994374948 -0.5877852522924732 0.5877852522924732 -0.809016994374948 211.80339887498957 30.776835371752483)" fill="#000000" fill-opacity="0.502"/>
<use xlink:href="#p5" transform="matrix(-0.8090169943749483 0.587785252292474 -0.587785252292474 -0.8090169943749483 227.98373876248857 118.61706172121427)" fill="#000000" fill-opacity="0.502"/>
<use xlink:href="#p9" transform="matrix(0.8090169943749483 0.5877852522924736 -0.5877852522924736 0.8090169943749483 -22.360679774997955 -191.92643751056892)" fill="#000000" fill-opacity="0.502"/>
<use xlink:href="#p5" transform="matrix(0.809016994374948 -0.5877852522924737 0.5877852522924737 0.809016994374948 -16.180339887499 -210.94756783647202)" fill="#000000" fill-opacity="0.502"/>
<use xlink:href="#p9" transform="matrix(-1.0000000000000009 1.7763568394002506e-16 -1.7763568394002506e-16 -1.0000000000000009 36.180339887498945 -210.94756783647202)" fill="#000000" fill-opacity="0.502"/>
<use xlink:href="#p9" transform="matrix(0.3090169943749479 0.9510565162951544 -0.9510565162951544 0.3090169943749479 42.360679774997884 -229.9686981623751)" fill="#000000" fill-opacity="0.502"/>
<use xlink:href="#p9" transform="matrix(-0.3090169943749476 0.9510565162951544 -0.9510565162951544 -0.3090169943749476 137.0820393249937 -6.394884621840902e-14)" fill="#000000" fill-opacity="0.502"/>
<use xlink:href="#p5" transform="matrix(0.3090169943749476 -0.9510565162951544 0.9510565162951544 0.3090169943749476 147.08203932499373 7.265425280053549)" fill="#000000" fill-opacity="0.502"/>
<use xlink:href="#p5" transform="matrix(-0.809016994374948 -0.5877852522924732 0.5877852522924732 -0.809016994374948 205.62305898749062 11.755705045849403)" fill="#000000" fill-opacity="0.502"/>
<use xlink:href="#p9" transform="matrix(0.8090169943749483 -0.587785252292474 0.587785252292474 0.8090169943749483 211.8033988749896 130.37276676706375)" fill="#000000" fill-opacity="0.502"/>
<use xlink:href="#p5" transform="matrix(0.8090169943749483 0.5877852522924736 -0.5877852522924736 0.8090169943749483 -16.180339887499006 -210.947567836472)" fill="#000000" fill-opacity="0.502"/>
<use xlink:href="#p34" transform="matrix(1.000000000000001 -1.332267629550188e-16 1.332267629550188e-16 1.000000000000001 58.54101966249685 -218.2129931165256)" fill="#000000" fill-opacity="0.502"/>
<use xlink:href="#p5" transform="matrix(0.8090169943749483 0.5877852522924737 -0.5877852522924737 0.8090169943749483 104.72135954999578 -6.394884621840902e-14)" fill="#000000" fill-opacity="0.502"/>
<use xlink:href="#p9" transform="matrix(-0.3090169943749479 -0.9510565162951541 0.9510565162951541 -0.3090169943749479 211.80339887498957 30.776835371752483)" fill="#000000" fill-opacity="0.502"/>
<use xlink:href="#p5" transform="matrix(0.30901699437494773 -0.951056516295155 0.951056516295155 0.30901699437494773 227.98373876248857 118.61706172121427)" fill="#000000" fill-opacity="0.502"/>
<use xlink:href="#p3" transform="matrix(-1.000000000000001 1.332267629550188e-16 -1.332267629550188e-16 -1.000000000000001 78.54101966249686 -218.2129931165256)" fill="#000000" fill-opacity="0.502"/>
<use xlink:href="#p9" transform="matrix(0.30901699437494784 0.9510565162951545 -0.9510565162951545 0.30901699437494784 94.72135954999584 -229.9686981623751)" fill="#000000" fill-opacity="0.502"/>
<use xlink:href="#p3" transform="matrix(1.000000000000001 -8.881784197001253e-17 8.881784197001253e-17 1.000000000000001 58.54101966249686 -203.68214255641837)" fill="#000000" fill-opacity="0.502"/>
<use xlink:href="#p5" transform="matrix(-0.3090169943749474 0.9510565162951542 -0.9510565162951542 -0.3090169943749474 237.9837387624885 11.755705045849393)" fill="#000000" fill-opacity="0.502"/>
<use xlink:href="#p5" transform="matrix(-0.8090169943749483 -0.5877852522924737 0.5877852522924737 -0.8090169943749483 94.72135954999584 -229.9686981623751)" fill="#000000" fill-opacity="0.502"/>
<use xlink:href="#p9" transform="matrix(-0.8090169943749483 0.5877852522924739 -0.5877852522924739 -0.8090169943749483 114.72135954999587 -191.92643751056892)" fill="#000000" fill-opacity="0.502"/>
<use xlink:href="#p9" transform="matrix(0.3090169943749479 0.9510565162951548 -0.9510565162951548 0.3090169943749479 78.54101966249686 -279.76666386003075)" fill="#000000" fill-opacity="0.502"/>
<use xlink:href="#p5" transform="matrix(0.8090169943749483 -0.5877852522924739 0.5877852522924739 0.8090169943749483 84.72135954999582 -260.7455335341277)" fill="#000000" fill-opacity="0.502"/>
<use xlink:href="#p5" transform="matrix(-0.8090169943749483 0.5877852522924739 -0.5877852522924739 -0.8090169943749483 130.9016994374948 -180.17073246471944)" fill="#000000" fill-opacity="0.502"/>
<use xlink:href="#p7" transform="matrix(1.0000000000000013 -8.881784197001253e-17 8.881784197001253e-17 1.0000000000000013 78.54101966249686 -180.17073246471944)" fill="#000000" fill-opacity="0.502"/>
<use xlink:href="#p5" transform="matrix(0.3090169943749479 0.9510565162951548 -0.9510565162951548 0.3090169943749479 94.72135954999584 -291.5223689058802)" fill="#000000" fill-opacity="0.502"/>
<use xlink:href="#p9" transform="matrix(-1.0000000000000013 1.7763568394002506e-16 -1.7763568394002506e-16 -1.0000000000000013 137.0820393249938 -260.7455335341277)" fill="#000000" fill-opacity="0.502"/>
<use xlink:href="#p19" transform="matrix(0.8090169943749486 0.587785252292474 -0.587785252292474 0.8090169943749486 98.54101966249688 -180.17073246471944)" fill="#000000" fill-opacity="0.502"/>
<use xlink:href="#p9" transform="matrix(1.0000000000000013 -8.881784197001253e-17 8.881784197001253e-17 1.0000000000000013 78.54101966249686 -142.12847181291323)" fill="#000000" fill-opacity="0.502"/>
<use xlink:href="#p5" transform="matrix(1.0000000000000013 -4.4408920985006264e-17 4.4408920985006264e-17 1.0000000000000013 94.72135954999584 -291.5223689058802)" fill="#000000" fill-opacity="0.502"/>
<use xlink:href="#p9" transform="matrix(-0.8090169943749483 0.5877852522924741 -0.5877852522924741 -0.8090169943749483 137.0820393249938 -260.7455335341277)" fill="#000000" fill-opacity="0.502"/>
<use xlink:href="#p9" transform="matrix(-0.8090169943749488 -0.5877852522924737 0.5877852522924737 -0.8090169943749488 137.0820393249938 -260.7455335341277)" fill="#000000" fill-opacity="0.502"/>
<use xlink:href="#p5" transform="matrix(0.8090169943749486 -0.5877852522924741 0.5877852522924741 0.8090169943749486 98.5410196624969 -142.12847181291323)" fill="#000000" fill-opacity="0.502"/>
<use xlink:href="#p9" transform="matrix(-1.0000000000000013 8.881784197001253e-17 -8.881784197001253e-17 -1.0000000000000013 94.72135954999584 -130.37276676706375)" fill="#000000" fill-opacity="0.502"/>
<use xlink:href="#p9" transform="matrix(-0.3090169943749476 0.951056516295155 -0.951056516295155 -0.3090169943749476 137.0820393249938 -260.7455335341277)" fill="#000000" fill-opacity="0.502"/>
<use xlink:href="#p18" transform="matrix(0.8090169943749486 0.5877852522924738 -0.5877852522924738 0.8090169943749486 58.541019662496836 -142.12847181291323)" fill="#000000" fill-opacity="0.502"/>
<use xlink:href="#p9" transform="matrix(-0.3090169943749476 0.951056516295155 -0.951056516295155 -0.3090169943749476 153.26237921249276 -272.50123857997716)" fill="#000000" fill-opacity="0.502"/>
<use xlink:href="#p5" transform="matrix(0.3090169943749476 -0.951056516295155 0.951056516295155 0.3090169943749476 94.72135954999584 -229.9686981623751)" fill="#000000" fill-opacity="0.502"/>
<use xlink:href="#p9" transform="matrix(-0.3090169943749479 -0.951056516295155 0.951056516295155 -0.3090169943749479 94.72135954999584 -92.33050611525756)" fill="#000000" fill-opacity="0.502"/>
<use xlink:href="#p3" transform="matrix(1.0000000000000013 -8.881784197001253e-17 8.881784197001253e-17 1.0000000000000013 58.541019662496836 -104.08621116110704)" fill="#000000" fill-opacity="0.502"/>
<use xlink:href="#p5" transform="matrix(-0.8090169943749488 -0.5877852522924738 0.5877852522924738 -0.8090169943749488 163.2623792124928 -241.72440320822457)" fill="#000000" fill-opacity="0.502"/>
<use xlink:href="#p9" transform="matrix(-1.0000000000000013 8.881784197001253e-17 -8.881784197001253e-17 -1.0000000000000013 94.72135954999584 -68.81909602355861)" fill="#000000" fill-opacity="0.502"/>
<use xlink:href="#p3" transform="matrix(-0.30901699437494784 0.9510565162951551 -0.9510565162951551 -0.30901699437494784 64.7213595499958 -123.10734148701015)" fill="#000000" fill-opacity="0.502"/>
<use xlink:href="#p5" transform="matrix(-0.8090169943749488 0.5877852522924742 -0.5877852522924742 -0.8090169943749488 163.2623792124928 -241.72440320822457)" fill="#000000" fill-opacity="0.502"/>
<use xlink:href="#p5" transform="matrix(-1.0000000000000013 8.881784197001253e-17 -8.881784197001253e-17 -1.0000000000000013 100.90169943749478 -49.79796569765553)" fill="#000000" fill-opacity="0.502"/>
<use xlink:href="#p9" transform="matrix(0.30901699437494806 0.9510565162951551 -0.9510565162951551 0.30901699437494806 36.1803398874989 -149.39389709296685)" fill="#000000" fill-opacity="0.502"/>
<use xlink:href="#p9" transform="matrix(-0.8090169943749488 0.5877852522924742 -0.5877852522924742 -0.8090169943749488 183.26237921249282 -241.72440320822457)" fill="#000000" fill-opacity="0.502"/>
<use xlink:href="#p5" transform="matrix(-0.3090169943749482 -0.9510565162951554 0.9510565162951554 -0.3090169943749482 173.26237921249282 -210.947567836472)" fill="#000000" fill-opacity="0.502"/>
<use xlink:href="#p5" transform="matrix(-1.0000000000000022 8.881784197001253e-17 -8.881784197001253e-17 -1.0000000000000022 173.26237921249282 -210.947567836472)" fill="#000000" fill-opacity="0.502"/>
<use xlink:href="#p9" transform="matrix(0.8090169943749492 -0.5877852522924746 0.5877852522924746 0.8090169943749492 137.0820393249938 -199.1918627906225)" fill="#000000" fill-opacity="0.502"/>
<use xlink:href="#p9" transform="matrix(0.8090169943749492 0.5877852522924744 -0.5877852522924744 0.8090169943749492 130.90169943749484 -241.72440320822457)" fill="#000000" fill-opacity="0.502"/>
<use xlink:href="#p5" transform="matrix(0.8090169943749492 -0.5877852522924746 0.5877852522924746 0.8090169943749492 157.08203932499384 -199.1918627906225)" fill="#000000" fill-opacity="0.502"/>
<use xlink:href="#p4" transform="matrix(0.3090169943749483 0.951056516295156 -0.951056516295156 0.3090169943749483 189.4427190999918 -199.1918627906225)" fill="#000000" fill-opacity="0.502"/>
<use xlink:href="#p9" transform="matrix(-0.8090169943749494 0.5877852522924746 -0.5877852522924746 -0.8090169943749494 195.62305898749077 -180.17073246471938)" fill="#000000" fill-opacity="0.502"/>
<use xlink:href="#p9" transform="matrix(-0.3090169943749482 0.951056516295156 -0.951056516295156 -0.3090169943749482 195.62305898749077 -180.17073246471938)" fill="#000000" fill-opacity="0.502"/>
<use xlink:href="#p5" transform="matrix(-0.8090169943749497 -0.5877852522924747 0.5877852522924747 -0.8090169943749497 205.6230589874908 -149.39389709296677)" fill="#000000" fill-opacity="0.502"/>
<use xlink:href="#p5" transform="matrix(-0.3090169943749482 0.951056516295156 -0.951056516295156 -0.3090169943749482 179.4427190999918 -168.4150274188699)" fill="#000000" fill-opacity="0.502"/>
<use xlink:href="#p9" transform="matrix(-0.8090169943749497 -0.5877852522924747 0.5877852522924747 -0.8090169943749497 211.80339887498974 -130.37276676706364)" fill="#000000" fill-opacity="0.502"/>
<use xlink:href="#p9" transform="matrix(1.0000000000000024 -8.881784197001253e-17 8.881784197001253e-17 1.0000000000000024 153.2623792124928 -149.39389709296677)" fill="#000000" fill-opacity="0.502"/>
<use xlink:href="#p3" transform="matrix(-0.3090169943749483 -0.951056516295156 0.951056516295156 -0.3090169943749483 137.0820393249938 -161.14960213881628)" fill="#000000" fill-opacity="0.502"/>
<use xlink:href="#p9" transform="matrix(-0.30901699437494834 -0.9510565162951562 0.9510565162951562 -0.30901699437494834 211.80339887498974 -130.37276676706364)" fill="#000000" fill-opacity="0.502"/>
<use xlink:href="#p5" transform="matrix(1.0000000000000024 -8.881784197001253e-17 8.881784197001253e-17 1.0000000000000024 169.4427190999918 -137.6381920471173)" fill="#000000" fill-opacity="0.502"/>
<use xlink:href="#p9" transform="matrix(0.3090169943749483 0.951056516295156 -0.951056516295156 0.3090169943749483 130.9016994374948 -180.1707324647194)" fill="#000000" fill-opacity="0.502"/>
<use xlink:href="#p9" transform="matrix(1.0000000000000027 -8.881784197001253e-17 8.881784197001253e-17 1.0000000000000027 137.08203932499376 -199.1918627906225)" fill="#000000" fill-opacity="0.502"/>
<use xlink:href="#p4" transform="matrix(0.30901699437494834 0.9510565162951562 -0.9510565162951562 0.30901699437494834 247.9837387624888 -180.17073246471938)" fill="#000000" fill-opacity="0.502"/>
<use xlink:href="#p9" transform="matrix(0.8090169943749494 -0.5877852522924747 0.5877852522924747 0.8090169943749494 159.4427190999918 -106.86135667536468)" fill="#000000" fill-opacity="0.502"/>
<use xlink:href="#p3" transform="matrix(0.8090169943749497 -0.5877852522924747 0.5877852522924747 0.8090169943749497 217.9837387624887 -149.39389709296677)" fill="#000000" fill-opacity="0.502"/>
<use xlink:href="#p5" transform="matrix(0.3090169943749484 0.9510565162951562 -0.9510565162951562 0.3090169943749484 169.4427190999918 -137.6381920471173)" fill="#000000" fill-opacity="0.502"/>
<use xlink:href="#p9" transform="matrix(0.3090169943749481 -0.9510565162951562 0.9510565162951562 0.3090169943749481 173.26237921249287 -87.84022634946155)" fill="#000000" fill-opacity="0.502"/>
<use xlink:href="#p3" transform="matrix(0.8090169943749497 -0.5877852522924747 0.5877852522924747 0.8090169943749497 231.8033988749898 -130.37276676706364)" fill="#000000" fill-opacity="0.502"/>
<use xlink:href="#p9" transform="matrix(0.3090169943749484 0.9510565162951562 -0.9510565162951562 0.3090169943749484 153.2623792124928 -125.88248700126779)" fill="#000000" fill-opacity="0.502"/>
<use xlink:href="#p9" transform="matrix(0.3090169943749483 0.9510565162951562 -0.9510565162951562 0.3090169943749483 267.9837387624888 -142.12847181291312)" fill="#000000" fill-opacity="0.502"/>
<use xlink:href="#p5" transform="matrix(-0.3090169943749482 0.9510565162951563 -0.9510565162951563 -0.3090169943749482 179.44271909999182 -106.86135667536468)" fill="#000000" fill-opacity="0.502"/>
<use xlink:href="#p9" transform="matrix(0.8090169943749498 0.5877852522924747 -0.5877852522924747 0.8090169943749498 130.9016994374948 -118.61706172121416)" fill="#000000" fill-opacity="0.502"/>
<use xlink:href="#p9" transform="matrix(0.8090169943749497 0.5877852522924748 -0.5877852522924748 0.8090169943749497 267.9837387624888 -142.12847181291312)" fill="#000000" fill-opacity="0.502"/>
<use xlink:href="#p5" transform="matrix(0.8090169943749498 0.5877852522924747 -0.5877852522924747 0.8090169943749498 137.0820393249938 -137.6381920471173)" fill="#000000" fill-opacity="0.502"/>
<use xlink:href="#p9" transform="matrix(0.8090169943749497 0.5877852522924748 -0.5877852522924748 0.8090169943749497 284.1640786499878 -130.37276676706364)" fill="#000000" fill-opacity="0.502"/>
<use xlink:href="#p5" transform="matrix(0.8090169943749498 -0.587785252292475 0.587785252292475 0.8090169943749498 137.0820393249938 -137.6381920471173)" fill="#000000" fill-opacity="0.502"/>
<use xlink:href="#p43" transform="matrix(-0.8090169943749497 -0.5877852522924748 0.5877852522924748 -0.8090169943749497 300.3444185374868 -118.61706172121414)" fill="#000000" fill-opacity="0.502"/>
<use xlink:href="#p2" transform="matrix(-0.30901699437494834 0.951056516295156 -0.951056516295156 -0.30901699437494834 322.7050983124847 -149.39389709296677)" fill="#000000" fill-opacity="0.502"/>
<use xlink:href="#p43" transform="matrix(0.3090169943749481 0.9510565162951562 -0.9510565162951562 0.3090169943749481 326.5247584249858 -161.14960213881625)" fill="#000000" fill-opacity="0.502"/>
<use xlink:href="#p9" transform="matrix(-0.8090169943749497 -0.5877852522924748 0.5877852522924748 -0.8090169943749497 348.88543819998375 -130.37276676706364)" fill="#000000" fill-opacity="0.502"/>
<use xlink:href="#p43" transform="matrix(-0.30901699437494856 0.9510565162951563 -0.9510565162951563 -0.30901699437494856 332.7050983124848 -180.17073246471938)" fill="#000000" fill-opacity="0.502"/>
<use xlink:href="#p43" transform="matrix(0.8090169943749497 0.5877852522924748 -0.5877852522924748 0.8090169943749497 332.7050983124848 -142.12847181291312)" fill="#000000" fill-opacity="0.502"/>
<use xlink:href="#p9" transform="matrix(0.30901699437494856 -0.9510565162951563 0.9510565162951563 0.30901699437494856 326.5247584249858 -161.14960213881625)" fill="#000000" fill-opacity="0.502"/>
<use xlink:href="#p2" transform="matrix(-0.8090169943749498 0.5877852522924748 -0.5877852522924748 -0.8090169943749498 342.70509831248484 -111.35163644116051)" fill="#000000" fill-opacity="0.502"/>
<use xlink:href="#p43" transform="matrix(-0.80901699437495 0.5877852522924748 -0.5877852522924748 -0.80901699437495 348.88543819998375 -191.92643751056886)" fill="#000000" fill-opacity="0.502"/>
<use xlink:href="#p43" transform="matrix(-0.30901699437494834 -0.9510565162951565 0.9510565162951565 -0.30901699437494834 332.70509831248484 -80.57480106940788)" fill="#000000" fill-opacity="0.502"/>
<use xlink:href="#p43" transform="matrix(-0.30901699437494834 -0.9510565162951563 0.9510565162951563 -0.30901699437494834 306.52475842498575 -99.59593139531101)" fill="#000000" fill-opacity="0.502"/>
<use xlink:href="#p43" transform="matrix(-0.30901699437494856 0.9510565162951568 -0.9510565162951568 -0.30901699437494856 342.7050983124848 -210.947567836472)" fill="#000000" fill-opacity="0.502"/>
<use xlink:href="#p43" transform="matrix(-0.80901699437495 -0.587785252292475 0.587785252292475 -0.80901699437495 336.5247584249859 -68.81909602355839)" fill="#000000" fill-opacity="0.502"/>
<use xlink:href="#p2" transform="matrix(0.30901699437494834 -0.9510565162951565 0.9510565162951565 0.30901699437494834 300.3444185374867 -203.68214255641837)" fill="#000000" fill-opacity="0.502"/>
<use xlink:href="#p43" transform="matrix(-1.0000000000000033 0.0 0.0 -1.0000000000000033 346.524758424986 -61.55367074350475)" fill="#000000" fill-opacity="0.502"/>
<use xlink:href="#p43" transform="matrix(-0.3090169943749484 -0.9510565162951565 0.9510565162951565 -0.3090169943749484 296.52475842498563 -191.92643751056886)" fill="#000000" fill-opacity="0.502"/>
<use xlink:href="#p43" transform="matrix(-0.8090169943749501 0.587785252292475 -0.587785252292475 -0.8090169943749501 358.8854381999839 -61.55367074350475)" fill="#000000" fill-opacity="0.502"/>
<use xlink:href="#p9" transform="matrix(-0.3090169943749484 -0.9510565162951565 0.9510565162951565 -0.3090169943749484 290.34441853748666 -172.90530718466573)" fill="#000000" fill-opacity="0.502"/>
<use xlink:href="#p43" transform="matrix(-0.30901699437494856 0.9510565162951568 -0.9510565162951568 -0.30901699437494856 368.8854381999839 -68.81909602355839)" fill="#000000" fill-opacity="0.502"/>
<use xlink:href="#p43" transform="matrix(-0.30901699437494845 0.9510565162951569 -0.9510565162951569 -0.30901699437494845 342.70509831248495 -49.79796569765525)" fill="#000000" fill-opacity="0.502"/>
<use xlink:href="#p43" transform="matrix(-1.0000000000000033 4.4408920985006264e-17 -4.4408920985006264e-17 -1.0000000000000033 284.1640786499877 -191.92643751056886)" fill="#000000" fill-opacity="0.502"/>
<use xlink:href="#p2" transform="matrix(0.30901699437494834 -0.9510565162951565 0.9510565162951565 0.30901699437494834 290.34441853748666 -172.90530718466573)" fill="#000000" fill-opacity="0.502"/>
<use xlink:href="#p43" transform="matrix(0.30901699437494834 0.9510565162951569 -0.9510565162951569 0.30901699437494834 372.705098312485 -80.5748010694079)" fill="#000000" fill-opacity="0.502"/>
<use xlink:href="#p43" transform="matrix(-0.8090169943749501 0.5877852522924751 -0.5877852522924751 -0.8090169943749501 348.8854381999839 -30.776835371752114)" fill="#000000" fill-opacity="0.502"/>
<use xlink:href="#p43" transform="matrix(-0.8090169943749501 -0.587785252292475 0.587785252292475 -0.8090169943749501 267.9837387624887 -180.17073246471935)" fill="#000000" fill-opacity="0.502"/>
<use xlink:href="#p43" transform="matrix(0.8090169943749501 0.5877852522924752 -0.5877852522924752 0.8090169943749501 368.8854381999839 -92.3305061152574)" fill="#000000" fill-opacity="0.502"/>
<use xlink:href="#p43" transform="matrix(-1.0000000000000033 8.881784197001253e-17 -8.881784197001253e-17 -1.0000000000000033 342.70509831248495 -11.755705045848979)" fill="#000000" fill-opacity="0.502"/>
<use xlink:href="#p9" transform="matrix(1.0000000000000033 0.0 0.0 1.0000000000000033 231.80339887498965 -191.92643751056886)" fill="#000000" fill-opacity="0.502"/>
<use xlink:href="#p43" transform="matrix(1.0000000000000036 1.7763568394002506e-16 -1.7763568394002506e-16 1.0000000000000036 358.8854381999839 -99.59593139531104)" fill="#000000" fill-opacity="0.502"/>
<use xlink:href="#p43" transform="matrix(-0.8090169943749501 -0.587785252292475 0.587785252292475 -0.8090169943749501 326.524758424986 5.258016244624741e-13)" fill="#000000" fill-opacity="0.502"/>
<use xlink:href="#p43" transform="matrix(-1.0000000000000033 0.0 0.0 -1.0000000000000033 251.8033988749897 -191.92643751056886)" fill="#000000" fill-opacity="0.502"/>
<use xlink:href="#p9" transform="matrix(-1.0000000000000033 -8.881784197001253e-17 8.881784197001253e-17 -1.0000000000000033 247.98373876248866 -180.17073246471935)" fill="#000000" fill-opacity="0.502"/>
<use xlink:href="#p43" transform="matrix(0.8090169943749506 -0.587785252292475 0.587785252292475 0.8090169943749506 346.524758424986 -99.59593139531104)" fill="#000000" fill-opacity="0.502"/>
<use xlink:href="#p43" transform="matrix(-0.30901699437494856 -0.9510565162951568 0.9510565162951568 -0.30901699437494856 306.52475842498586 5.258016244624741e-13)" fill="#000000" fill-opacity="0.502"/>
<use xlink:href="#p43" transform="matrix(-0.8090169943749501 -0.5877852522924751 0.5877852522924751 -0.8090169943749501 241.80339887498968 -199.19186279062248)" fill="#000000" fill-opacity="0.502"/>
<use xlink:href="#p9" transform="matrix(-0.8090169943749501 0.587785252292475 -0.587785252292475 -0.8090169943749501 247.98373876248866 -180.17073246471935)" fill="#000000" fill-opacity="0.502"/>
<use xlink:href="#p43" transform="matrix(0.3090169943749488 -0.9510565162951569 0.9510565162951569 0.3090169943749488 336.524758424986 -92.3305061152574)" fill="#000000" fill-opacity="0.502"/>
<use xlink:href="#p43" transform="matrix(0.30901699437494834 -0.9510565162951569 0.9510565162951569 0.30901699437494834 290.34441853748683 -11.755705045848973)" fill="#000000" fill-opacity="0.502"/>
<use xlink:href="#p5" transform="matrix(-0.3090169943749485 -0.9510565162951569 0.9510565162951569 -0.3090169943749485 237.98373876248863 -210.947567836472)" fill="#000000" fill-opacity="0.502"/>
<use xlink:href="#p5" transform="matrix(-0.8090169943749501 0.587785252292475 -0.587785252292475 -0.8090169943749501 227.9837387624886 -180.17073246471935)" fill="#000000" fill-opacity="0.502"/>
<use xlink:href="#p43" transform="matrix(0.8090169943749501 -0.5877852522924752 0.5877852522924752 0.8090169943749501 284.16407864998786 -30.776835371752107)" fill="#000000" fill-opacity="0.502"/>
<use xlink:href="#p43" transform="matrix(-0.8090169943749503 0.5877852522924751 -0.5877852522924751 -0.8090169943749503 247.98373876248866 -241.72440320822463)" fill="#000000" fill-opacity="0.502"/>
<use xlink:href="#p43" transform="matrix(-0.3090169943749485 0.9510565162951569 -0.9510565162951569 -0.3090169943749485 264.1640786499877 -229.96869816237512)" fill="#000000" fill-opacity="0.502"/>
<use xlink:href="#p43" transform="matrix(1.0000000000000036 -1.7763568394002506e-16 1.7763568394002506e-16 1.0000000000000036 290.3444185374868 -49.79796569765524)" fill="#000000" fill-opacity="0.502"/>
<use xlink:href="#p43" transform="matrix(-0.30901699437494845 -0.9510565162951569 0.9510565162951569 -0.30901699437494845 211.8033988749896 -229.96869816237512)" fill="#000000" fill-opacity="0.502"/>
<use xlink:href="#p43" transform="matrix(0.3090169943749485 -0.9510565162951569 0.9510565162951569 0.3090169943749485 257.9837387624887 -210.947567836472)" fill="#000000" fill-opacity="0.502"/>
<use xlink:href="#p43" transform="matrix(0.8090169943749506 0.587785252292475 -0.587785252292475 0.8090169943749506 306.52475842498575 -61.553670743504746)" fill="#000000" fill-opacity="0.502"/>
<use xlink:href="#p9" transform="matrix(0.30901699437494856 0.9510565162951569 -0.9510565162951569 0.30901699437494856 284.1640786499878 -68.81909602355839)" fill="#000000" fill-opacity="0.502"/>
<use xlink:href="#p9" transform="matrix(0.8090169943749501 0.5877852522924751 -0.5877852522924751 0.8090169943749501 189.44271909999162 -260.74553353412773)" fill="#000000" fill-opacity="0.502"/>
<use xlink:href="#p9" transform="matrix(-1.0000000000000033 4.4408920985006264e-17 -4.4408920985006264e-17 -1.0000000000000033 284.16407864998774 -229.96869816237512)" fill="#000000" fill-opacity="0.502"/>
<use xlink:href="#p5" transform="matrix(-0.30901699437494856 -0.9510565162951571 0.9510565162951571 -0.30901699437494856 274.16407864998774 -199.1918627906225)" fill="#000000" fill-opacity="0.502"/>
<use xlink:href="#p43" transform="matrix(0.3090169943749488 0.9510565162951569 -0.9510565162951569 0.3090169943749488 326.52475842498586 -61.55367074350475)" fill="#000000" fill-opacity="0.502"/>
<use xlink:href="#p5" transform="matrix(0.30901699437494856 0.9510565162951569 -0.9510565162951569 0.30901699437494856 277.9837387624888 -49.79796569765525)" fill="#000000" fill-opacity="0.502"/>
<use xlink:href="#p43" transform="matrix(-0.8090169943749501 -0.5877852522924751 0.5877852522924751 -0.8090169943749501 205.62305898749062 -248.98982848827822)" fill="#000000" fill-opacity="0.502"/>
<use xlink:href="#p9" transform="matrix(-0.3090169943749485 -0.9510565162951569 0.9510565162951569 -0.3090169943749485 189.44271909999162 -222.70327288232147)" fill="#000000" fill-opacity="0.502"/>
<use xlink:href="#p9" transform="matrix(-0.8090169943749501 -0.5877852522924751 0.5877852522924751 -0.8090169943749501 267.9837387624888 -19.02113032590261)" fill="#000000" fill-opacity="0.502"/>
<use xlink:href="#p43" transform="matrix(0.8090169943749503 -0.5877852522924754 0.5877852522924754 0.8090169943749503 195.6230589874906 -279.76666386003086)" fill="#000000" fill-opacity="0.502"/>
<use xlink:href="#p5" transform="matrix(-0.3090169943749485 0.9510565162951569 -0.9510565162951569 -0.3090169943749485 189.44271909999162 -260.74553353412773)" fill="#000000" fill-opacity="0.502"/>
<use xlink:href="#p9" transform="matrix(-1.0000000000000033 -8.881784197001253e-17 8.881784197001253e-17 -1.0000000000000033 267.9837387624888 -19.02113032590261)" fill="#000000" fill-opacity="0.502"/>
<use xlink:href="#p43" transform="matrix(0.3090169943749488 0.9510565162951571 -0.9510565162951571 0.3090169943749488 231.80339887498965 -291.52236890588034)" fill="#000000" fill-opacity="0.502"/>
<use xlink:href="#p9" transform="matrix(-1.0000000000000033 4.4408920985006264e-17 -4.4408920985006264e-17 -1.0000000000000033 189.44271909999162 -260.74553353412773)" fill="#000000" fill-opacity="0.502"/>
<use xlink:href="#p3" transform="matrix(-1.0000000000000036 -1.7763568394002506e-16 1.7763568394002506e-16 -1.0000000000000036 231.80339887498974 -7.265425280053112)" fill="#000000" fill-opacity="0.502"/>
<use xlink:href="#p5" transform="matrix(-1.0000000000000033 -8.881784197001253e-17 8.881784197001253e-17 -1.0000000000000033 251.80339887498982 -30.776835371752114)" fill="#000000" fill-opacity="0.502"/>
<use xlink:href="#p9" transform="matrix(-0.8090169943749506 -0.5877852522924751 0.5877852522924751 -0.8090169943749506 254.16407864998763 -260.74553353412773)" fill="#000000" fill-opacity="0.502"/>
<use xlink:href="#p5" transform="matrix(-0.30901699437494845 0.9510565162951572 -0.9510565162951572 -0.30901699437494845 227.9837387624886 -279.76666386003086)" fill="#000000" fill-opacity="0.502"/>
<use xlink:href="#p4" transform="matrix(0.30901699437494845 0.9510565162951572 -0.9510565162951572 0.30901699437494845 247.98373876248877 -19.021130325902615)" fill="#000000" fill-opacity="0.502"/>
<use xlink:href="#p9" transform="matrix(0.8090169943749501 -0.587785252292475 0.587785252292475 0.8090169943749501 225.6230589874908 -49.79796569765524)" fill="#000000" fill-opacity="0.502"/>
<use xlink:href="#p43" transform="matrix(0.8090169943749506 0.5877852522924751 -0.5877852522924751 0.8090169943749506 237.98373876248863 -272.5012385799772)" fill="#000000" fill-opacity="0.502"/>
<use xlink:href="#p9" transform="matrix(-0.8090169943749507 0.5877852522924751 -0.5877852522924751 -0.8090169943749507 254.16407864998774 5.293543381412746e-13)" fill="#000000" fill-opacity="0.502"/>
<use xlink:href="#p9" transform="matrix(0.30901699437494856 -0.9510565162951568 0.9510565162951568 0.30901699437494856 225.6230589874908 -49.79796569765524)" fill="#000000" fill-opacity="0.502"/>
<use xlink:href="#p5" transform="matrix(-0.3090169943749485 0.9510565162951574 -0.9510565162951574 -0.3090169943749485 241.8033988749897 -260.74553353412773)" fill="#000000" fill-opacity="0.502"/>
<use xlink:href="#p9" transform="matrix(-0.30901699437494884 0.9510565162951572 -0.9510565162951572 -0.30901699437494884 254.16407864998774 5.293543381412746e-13)" fill="#000000" fill-opacity="0.502"/>
<use xlink:href="#p5" transform="matrix(0.30901699437494856 -0.9510565162951568 0.9510565162951568 0.30901699437494856 241.8033988749898 -61.553670743504746)" fill="#000000" fill-opacity="0.502"/>
<use xlink:href="#p9" transform="matrix(0.30901699437494895 -0.9510565162951574 0.9510565162951574 0.30901699437494895 225.62305898749077 49.79796569765632)" fill="#000000" fill-opacity="0.502"/>
<use xlink:href="#p5" transform="matrix(1.0000000000000033 8.881784197001253e-17 -8.881784197001253e-17 1.0000000000000033 241.8033988749898 -99.59593139531101)" fill="#000000" fill-opacity="0.502"/>
<use xlink:href="#p4" transform="matrix(0.8090169943749501 0.5877852522924754 -0.5877852522924754 0.8090169943749501 267.9837387624888 -80.57480106940788)" fill="#000000" fill-opacity="0.502"/>
<use xlink:href="#p5" transform="matrix(0.30901699437494895 -0.9510565162951574 0.9510565162951574 0.30901699437494895 241.8033988749898 38.042260651806814)" fill="#000000" fill-opacity="0.502"/>
<use xlink:href="#p9" transform="matrix(1.0000000000000033 8.881784197001253e-17 -8.881784197001253e-17 1.0000000000000033 225.6230589874908 -111.35163644116052)" fill="#000000" fill-opacity="0.502"/>
<use xlink:href="#p9" transform="matrix(-0.3090169943749487 0.9510565162951569 -0.9510565162951569 -0.3090169943749487 284.16407864998786 -68.81909602355837)" fill="#000000" fill-opacity="0.502"/>
<use xlink:href="#p20" transform="matrix(-0.8090169943749509 0.5877852522924754 -0.5877852522924754 -0.8090169943749509 270.3444185374867 49.79796569765633)" fill="#000000" fill-opacity="0.502"/>
<use xlink:href="#p4" transform="matrix(-0.8090169943749503 0.5877852522924751 -0.5877852522924751 -0.8090169943749503 284.1640786499878 -92.33050611525738)" fill="#000000" fill-opacity="0.502"/>
<use xlink:href="#p9" transform="matrix(0.8090169943749501 0.5877852522924751 -0.5877852522924751 0.8090169943749501 225.6230589874908 -111.35163644116052)" fill="#000000" fill-opacity="0.502"/>
<use xlink:href="#p9" transform="matrix(0.30901699437494895 -0.9510565162951574 0.9510565162951574 0.30901699437494895 247.9837387624887 80.57480106940898)" fill="#000000" fill-opacity="0.502"/>
<use xlink:href="#p9" transform="matrix(0.8090169943749506 0.5877852522924756 -0.5877852522924756 0.8090169943749506 231.8033988749897 68.81909602355947)" fill="#000000" fill-opacity="0.502"/>
<use xlink:href="#p9" transform="matrix(0.809016994374951 -0.5877852522924755 0.5877852522924755 0.809016994374951 225.62305898749074 49.79796569765632)" fill="#000000" fill-opacity="0.502"/>
<use xlink:href="#p5" transform="matrix(-0.30901699437494845 -0.9510565162951574 0.9510565162951574 -0.30901699437494845 290.3444185374868 49.79796569765634)" fill="#000000" fill-opacity="0.502"/>
<use xlink:href="#p5" transform="matrix(0.8090169943749501 0.5877852522924752 -0.5877852522924752 0.8090169943749501 274.16407864998774 -123.10734148701002)" fill="#000000" fill-opacity="0.502"/>
<use xlink:href="#p5" transform="matrix(0.30901699437494895 -0.9510565162951574 0.9510565162951574 0.30901699437494895 264.16407864998774 68.81909602355947)" fill="#000000" fill-opacity="0.502"/>
<use xlink:href="#p19" transform="matrix(1.000000000000004 1.7763568394002506e-16 -1.7763568394002506e-16 1.000000000000004 205.62305898749065 87.84022634946261)" fill="#000000" fill-opacity="0.502"/>
<use xlink:href="#p9" transform="matrix(-0.30901699437494895 0.9510565162951574 -0.9510565162951574 -0.30901699437494895 306.5247584249858 5.364597654988756e-13)" fill="#000000" fill-opacity="0.502"/>
<use xlink:href="#p9" transform="matrix(0.809016994374951 -0.5877852522924755 0.5877852522924755 0.809016994374951 247.9837387624887 80.57480106940898)" fill="#000000" fill-opacity="0.502"/>
<use xlink:href="#p5" transform="matrix(-0.8090169943749509 -0.5877852522924759 0.5877852522924759 -0.8090169943749509 316.52475842498586 30.7768353717532)" fill="#000000" fill-opacity="0.502"/>
<use xlink:href="#p9" transform="matrix(-0.8090169943749509 -0.5877852522924759 0.5877852522924759 -0.8090169943749509 322.70509831248484 49.79796569765635)" fill="#000000" fill-opacity="0.502"/>
<use xlink:href="#p5" transform="matrix(0.8090169943749512 -0.5877852522924756 0.5877852522924756 0.8090169943749512 290.3444185374868 49.797965697656345)" fill="#000000" fill-opacity="0.502"/>
<use xlink:href="#p9" transform="matrix(0.8090169943749512 -0.5877852522924756 0.5877852522924756 0.8090169943749512 306.5247584249858 61.55367074350586)" fill="#000000" fill-opacity="0.502"/>
<use xlink:href="#p5" transform="matrix(-0.30901699437494917 0.951056516295158 -0.951056516295158 -0.30901699437494917 348.88543819998387 30.776835371753194)" fill="#000000" fill-opacity="0.502"/>
<use xlink:href="#p9" transform="matrix(-0.30901699437494856 -0.9510565162951581 0.9510565162951581 -0.30901699437494856 322.7050983124848 49.797965697656345)" fill="#000000" fill-opacity="0.502"/>
<use xlink:href="#p5" transform="matrix(-1.000000000000005 -3.552713678800501e-16 3.552713678800501e-16 -1.000000000000005 348.88543819998387 30.776835371753194)" fill="#000000" fill-opacity="0.502"/>
<use xlink:href="#p9" transform="matrix(-1.000000000000005 -3.552713678800501e-16 3.552713678800501e-16 -1.000000000000005 342.7050983124849 11.755705045850025)" fill="#000000" fill-opacity="0.502"/>
</g>
</svg>