<?xml version="1.0" encoding="UTF-8" standalone="no"?>
<!DOCTYPE svg PUBLIC "-//W3C//DTD SVG 1.1//EN" "http://www.w3.org/Graphics/SVG/1.1/DTD/svg11.dtd">
<svg xmlns="http://www.w3.org/2000/svg" xmlns:xlink="http://www.w3.org/1999/xlink" viewBox="0 0 64.04226065180615 58.3606797749979" version="1.1" xml:space="preserve">
<defs>
<path id="p5" fill-rule="evenodd" stroke="#3802DA" stroke-opacity="1" stroke-width="3.0" d="M10.0,0.0 L15.0,6.881909602355867 L23.090169943749473,9.510565162951535 L19.635254915624213,14.265847744427305 L16.18033988749895,19.02113032590307 L11.180339887498949,12.139220723547206 L3.0901699437494745,9.510565162951535 L6.545084971874737,4.755282581475766 Z"/>
<path id="q5" stroke="#011993" stroke-opacity="1" stroke-width="2.0" fill-opacity="0" d="M10.0,0.0 L15.0,6.881909602355867 L23.090169943749473,9.510565162951535 L19.635254915624213,14.265847744427305 L16.18033988749895,19.02113032590307 L11.180339887498949,12.139220723547206 L3.0901699437494745,9.510565162951535 L6.545084971874737,4.755282581475766 Z"/>
<path id="p43" fill-rule="evenodd" stroke="#3802DA" stroke-opacity="1" stroke-width="3.0" d="M10.0,0.0 L15.0,6.88190960235586 L23.09016994374948,9.51056516295154 L21.18033988749896,12.139220723547199 L18.09016994374948,13.14327780297834 L18.09016994374948,3.1432778029783397 L10.0,5.25731112119134 L1.90983005625052,3.1432778029783397 L1.90983005625052,13.14327780297834 L-1.18033988749894,12.139220723547199 L-3.09016994374948,9.51056516295154 L5.0,6.88190960235586 Z"/>
<path id="q43" stroke="#011993" stroke-opacity="1" stroke-width="2.0" fill-opacity="0" d="M10.0,0.0 L15.0,6.88190960235586 L23.09016994374948,9.51056516295154 L21.18033988749896,12.139220723547199 L18.09016994374948,13.14327780297834 L18.09016994374948,3.1432778029783397 L10.0,5.25731112119134 L1.90983005625052,3.1432778029783397 L1.90983005625052,13.14327780297834 L-1.18033988749894,12.139220723547199 L-3.09016994374948,9.51056516295154 L5.0,6.88190960235586 Z"/>
</defs>
<g transform="translate(32.02113032590307 45.3606797749979) scale(1 -1) rotate(54.0)">
<use xlink:href="#p5" transform="matrix(1.0 0.0 0.0 1.0 0.0 0.0)" fill="#00AAAA" fill-opacity="0"/>
<use xlink:href="#p43" transform="matrix(0.8090169943749475 0.5877852522924732 -0.5877852522924732 0.8090169943749475 16.18033988749895 -11.755705045849464)" fill="#00AAAA" fill-opacity="0"/>
<use xlink:href="#p43" transform="matrix(-0.8090169943749475 -0.5877852522924731 0.5877852522924731 -0.8090169943749475 10.000000000000002 30.776835371752533)" fill="#00AAAA" fill-opacity="0"/>
<use xlink:href="#q5" transform="matrix(1.0 0.0 0.0 1.0 0.0 0.0)"/>
<use xlink:href="#q43" transform="matrix(0.8090169943749475 0.5877852522924732 -0.5877852522924732 0.8090169943749475 16.18033988749895 -11.755705045849464)"/>
<use xlink:href="#q43" transform="matrix(-0.8090169943749475 -0.5877852522924731 0.5877852522924731 -0.8090169943749475 10.000000000000002 30.776835371752533)"/>
<path stroke="#3802DA" stroke-opacity="1" stroke-width="0.5" fill-opacity="0" d="M10.0,2.126627020880099 L8.454915028125264,-1.3877787807814457e-16 M21.067627457812108,10.167729053100452 L22.61271242968684,8.041102032220353 M16.18033988749895,16.894503305022972 L17.725424859373685,19.02113032590307 M5.112712429686843,8.85340127280262 L3.567627457812106,10.980028293682718 M25.112712429686844,8.85340127280262 L23.567627457812108,10.980028293682718 M10.0,-2.1266270208801066 L11.545084971874735,-2.220446049250313e-15 M24.635254915624216,5.2573111211913375 L26.18033988749895,7.38393814207144 M27.72542485937369,5.257311121191339 L26.180339887498953,3.1306841003112362 M25.520509831248425,-1.2697408413805111 L23.020509831248425,-2.2472439911972133 M23.02050983124843,0.43706456183866704 L25.52050983124843,1.41456771165537 M12.61271242968684,-5.7227171724913894 L11.0676274578121,-3.5960901516112886 M13.567627457812101,-2.7837909110290235 L15.112712429686841,-4.910417931909125 M18.650938030889282,-2.737615180295203 L21.20386717200087,-3.5671121413293125 M19.501663945731288,-5.642688346718796 L16.9487348046197,-4.813191385684687 M1.0676274578121059,10.167729053100455 L2.612712429686843,8.041102032220358 M16.18033988749895,21.147757346783177 L14.635254915624214,19.021130325903073 M1.545084971874734,13.763819204711735 L0.0,11.63719218383163 M-1.5450849718747395,13.763819204711734 L-4.440892098500626e-15,15.890446225591838 M0.6598300562505255,20.290871167283584 L3.1598300562505255,21.26837431710029 M3.1598300562505233,18.584065764064405 L0.6598300562505233,17.606562614247704 M13.567627457812112,24.743847498394462 L15.11271242968685,22.61722047751436 M12.612712429686848,21.804921236932095 L11.06762745781211,23.931548257812196 M7.52940185660967,21.758745506198274 L4.9764727154980815,22.588242467232384 M6.678675941767662,24.663818672621865 L9.23160508287925,23.834321711587762"/>
</g>
</svg>