<?xml version="1.0" encoding="UTF-8" standalone="no"?>
<!DOCTYPE svg PUBLIC "-//W3C//DTD SVG 1.1//EN" "http://www.w3.org/Graphics/SVG/1.1/DTD/svg11.dtd">
<svg xmlns="http://www.w3.org/2000/svg" xmlns:xlink="http://www.w3.org/1999/xlink" viewBox="0 0 90.7213595499958 87.55367074350508" version="1.1" xml:space="preserve">
<defs>
<polygon id="s5" stroke="#941751" stroke-opacity="1" stroke-width="2.0" stroke-linejoin="round" points="0.0,0.0 20.0,0.0 26.18033988749895,19.02113032590307 6.180339887498949,19.02113032590307"/>
<path id="p5" fill-rule="evenodd" stroke="#CB00ED" stroke-opacity="1" stroke-width="6.0" d="M10.0,0.0 L15.0,6.881909602355867 L23.090169943749473,9.510565162951535 L19.635254915624213,14.265847744427305 L16.18033988749895,19.02113032590307 L11.180339887498949,12.139220723547206 L3.0901699437494745,9.510565162951535 L6.545084971874737,4.755282581475766 Z"/>
<path id="q5" stroke="#BFBFBF" stroke-opacity="1" stroke-width="2.0" fill-opacity="0" d="M10.0,0.0 L15.0,6.881909602355867 L23.090169943749473,9.510565162951535 L19.635254915624213,14.265847744427305 L16.18033988749895,19.02113032590307 L11.180339887498949,12.139220723547206 L3.0901699437494745,9.510565162951535 L6.545084971874737,4.755282581475766 Z"/>
<polygon id="s10" stroke="#941751" stroke-opacity="1" stroke-width="2.0" stroke-linejoin="round" points="0.0,0.0 20.0,0.0 26.18033988749895,-19.02113032590307 32.3606797749979,0.0 52.3606797749979,0.0 36.180339887498945,11.755705045849464 42.3606797749979,30.776835371752533 26.18033988749895,19.02113032590307 10.0,30.776835371752533 16.18033988749895,11.75570504584946"/>
<path id="p10" fill-rule="evenodd" stroke="#CB00ED" stroke-opacity="1" stroke-width="6.0" d="M29.270509831248425,-9.510565162951535 L26.18033988749895,-5.257311121191334 L23.090169943749473,-9.510565162951535 L26.18033988749895,-10.514622242382671 Z M44.270509831248425,5.877852522924732 L39.270509831248425,4.253254041760201 L42.3606797749979,0.0 L44.270509831248425,2.6286555605956674 Z M34.270509831248425,24.8989828488278 L34.270509831248425,19.64167172763646 L39.270509831248425,21.266270208800996 L37.360679774997905,23.894925769396657 Z M13.090169943749475,21.266270208800996 L18.090169943749473,19.64167172763646 L18.090169943749473,24.8989828488278 L15.000000000000007,23.894925769396664 Z M10.0,0.0 L13.090169943749476,4.253254041760199 L8.090169943749475,5.87785252292473 L8.090169943749473,2.6286555605956674 Z"/>
<path id="q10" stroke="#BFBFBF" stroke-opacity="1" stroke-width="2.0" fill-opacity="0" d="M29.270509831248425,-9.510565162951535 L26.18033988749895,-5.257311121191334 L23.090169943749473,-9.510565162951535 L26.18033988749895,-10.514622242382671 Z M44.270509831248425,5.877852522924732 L39.270509831248425,4.253254041760201 L42.3606797749979,0.0 L44.270509831248425,2.6286555605956674 Z M34.270509831248425,24.8989828488278 L34.270509831248425,19.64167172763646 L39.270509831248425,21.266270208800996 L37.360679774997905,23.894925769396657 Z M13.090169943749475,21.266270208800996 L18.090169943749473,19.64167172763646 L18.090169943749473,24.8989828488278 L15.000000000000007,23.894925769396664 Z M10.0,0.0 L13.090169943749476,4.253254041760199 L8.090169943749475,5.87785252292473 L8.090169943749473,2.6286555605956674 Z"/>
</defs>
<g transform="translate(19.18033988749895 55.53254041760201) scale(1 -1) rotate(0.0)">
<use xlink:href="#s10" transform="matrix(1.0 0.0 0.0 1.0 0.0 0.0)" fill="#FFFFFF" fill-opacity="1"/>
<use xlink:href="#s5" transform="matrix(0.3090169943749475 -0.9510565162951539 0.9510565162951539 0.3090169943749475 -3.552713678800501e-15 0.0)" fill="#FFFFFF" fill-opacity="1"/>
<use xlink:href="#s5" transform="matrix(-1.0 0.0 0.0 -1.0 52.3606797749979 0.0)" fill="#FFFFFF" fill-opacity="1"/>
<use xlink:href="#s5" transform="matrix(-0.30901699437494745 -0.9510565162951535 0.9510565162951535 -0.30901699437494745 42.3606797749979 30.776835371752533)" fill="#FFFFFF" fill-opacity="1"/>
<use xlink:href="#s5" transform="matrix(0.8090169943749477 -0.5877852522924732 0.5877852522924732 0.8090169943749477 9.999999999999996 30.776835371752533)" fill="#FFFFFF" fill-opacity="1"/>
<use xlink:href="#s5" transform="matrix(0.8090169943749475 0.5877852522924732 -0.5877852522924732 0.8090169943749475 0.0 -3.552713678800501e-15)" fill="#FFFFFF" fill-opacity="1"/>
<use xlink:href="#p10" transform="matrix(1.0 0.0 0.0 1.0 0.0 0.0)" fill="#000000" fill-opacity="0.502"/>
<use xlink:href="#p5" transform="matrix(0.3090169943749475 -0.9510565162951539 0.9510565162951539 0.3090169943749475 -3.552713678800501e-15 0.0)" fill="#000000" fill-opacity="0.502"/>
<use xlink:href="#p5" transform="matrix(-1.0 0.0 0.0 -1.0 52.3606797749979 0.0)" fill="#000000" fill-opacity="0.502"/>
<use xlink:href="#p5" transform="matrix(-0.30901699437494745 -0.9510565162951535 0.9510565162951535 -0.30901699437494745 42.3606797749979 30.776835371752533)" fill="#000000" fill-opacity="0.502"/>
<use xlink:href="#p5" transform="matrix(0.8090169943749477 -0.5877852522924732 0.5877852522924732 0.8090169943749477 9.999999999999996 30.776835371752533)" fill="#000000" fill-opacity="0.502"/>
<use xlink:href="#p5" transform="matrix(0.8090169943749475 0.5877852522924732 -0.5877852522924732 0.8090169943749475 0.0 -3.552713678800501e-15)" fill="#000000" fill-opacity="0.502"/>
<use xlink:href="#q10" transform="matrix(1.0 0.0 0.0 1.0 0.0 0.0)"/>
<use xlink:href="#q5" transform="matrix(0.3090169943749475 -0.9510565162951539 0.9510565162951539 0.3090169943749475 -3.552713678800501e-15 0.0)"/>
<use xlink:href="#q5" transform="matrix(-1.0 0.0 0.0 -1.0 52.3606797749979 0.0)"/>
<use xlink:href="#q5" transform="matrix(-0.30901699437494745 -0.9510565162951535 0.9510565162951535 -0.30901699437494745 42.3606797749979 30.776835371752533)"/>
<use xlink:href="#q5" transform="matrix(0.8090169943749477 -0.5877852522924732 0.5877852522924732 0.8090169943749477 9.999999999999996 30.776835371752533)"/>
<use xlink:href="#q5" transform="matrix(0.8090169943749475 0.5877852522924732 -0.5877852522924732 0.8090169943749475 0.0 -3.552713678800501e-15)"/>
<path stroke="#CB00ED" stroke-opacity="1" stroke-width="2.0" fill-opacity="0" d="M19.854101966249686,-10.562027387189808 L23.854101966249686,-11.861706172121433 M9.999999999999998,-3.402603233408161 L12.47213595499958,0.0 M42.3606797749979,-3.402603233408159 L44.83281572999748,0.0 M32.50657780874821,-10.562027387189802 L30.034441853748636,-7.159424153781643 M42.50657780874821,20.214807984562732 L40.03444185374863,23.61741121797089 M46.270509831248425,8.630616363867079 L42.27050983124842,7.330937578935455 M20.090169943749473,27.65174668977015 L16.090169943749473,26.352067904838524 M32.270509831248425,27.65174668977015 L32.27050983124842,23.44589779281708 M6.0901699437494745,8.630616363867075 L6.0901699437494745,4.424767466914007 M9.854101966249686,20.214807984562732 L13.854101966249683,18.915129199631103"/>
</g>
</svg>