<?xml version="1.0" encoding="UTF-8" standalone="no"?>
<!DOCTYPE svg PUBLIC "-//W3C//DTD SVG 1.1//EN" "http://www.w3.org/Graphics/SVG/1.1/DTD/svg11.dtd">
<svg xmlns="http://www.w3.org/2000/svg" xmlns:xlink="http://www.w3.org/1999/xlink" viewBox="0 0 429.60679774997925 409.8528750211377" version="1.1" xml:space="preserve">
<defs>
<polygon id="s1" stroke="#000000" stroke-opacity="1" stroke-width="2.0" stroke-linejoin="round" points="0.0,0.0 20.0,0.0 36.180339887498945,11.755705045849464 42.3606797749979,30.776835371752533 36.180339887498945,49.797965697655606 20.0,61.553670743505066 0.0,61.553670743505066 -16.18033988749895,49.7979656976556 -22.360679774997898,30.776835371752522 -16.18033988749895,11.755705045849451"/>
<path id="p1" fill-rule="evenodd" stroke="#170159" stroke-opacity="1" stroke-width="2.0" d="M10.0,0.0 L21.18033988749895,15.388417685876261 L39.270509831248425,21.266270208800996 L28.090169943749473,36.654687894677245 L28.090169943749473,55.675818220580325 L10.000000000000007,49.7979656976556 L-8.090169943749475,55.675818220580325 L-8.090169943749475,36.65468789467727 L-19.270509831248425,21.266270208800986 L-1.1803398874989404,15.388417685876249 Z M28.090169943749473,5.877852522924732 L28.09016994374948,24.8989828488278 L39.270509831248425,40.28740053470407 L21.180339887498945,46.16525305762881 L10.0,61.553670743505066 L-1.1803398874989517,46.16525305762879 L-19.270509831248425,40.28740053470406 L-8.090169943749485,24.89898284882779 L-8.090169943749475,5.877852522924726 L9.999999999999993,11.75570504584946 Z"/>
<path id="r1" d="M16.909830056250524,9.510565162951535 L21.18033988749895,15.388417685876261 L28.09016994374948,17.633557568774187 L28.09016994374948,24.8989828488278 L32.3606797749979,30.776835371752533 L28.090169943749473,36.654687894677245 L28.09016994374948,43.92011317473087 L21.180339887498945,46.16525305762881 L16.90983005625053,52.04310558055353 L10.000000000000007,49.7979656976556 L3.0901699437494705,52.04310558055353 L-1.1803398874989517,46.16525305762879 L-8.090169943749473,43.92011317473087 L-8.090169943749475,36.65468789467727 L-12.360679774997898,30.776835371752522 L-8.090169943749485,24.89898284882779 L-8.090169943749482,17.633557568774183 L-1.1803398874989404,15.388417685876249 L3.090169943749474,9.510565162951535 L9.999999999999993,11.75570504584946 Z"/>
<polygon id="s2" stroke="#000000" stroke-opacity="1" stroke-width="2.0" stroke-linejoin="round" points="0.0,0.0 20.0,0.0 26.18033988749895,19.02113032590307 10.0,30.776835371752536 -6.180339887498949,19.02113032590307"/>
<path id="p2" fill-rule="evenodd" stroke="#170159" stroke-opacity="1" stroke-width="2.0" d="M10.0,0.0 L15.0,6.881909602355868 L23.090169943749473,9.510565162951535 L18.090169943749473,16.392474765307405 L18.090169943749473,24.898982848827803 L10.0,22.27032728823214 L1.9098300562505255,24.898982848827803 L1.9098300562505255,16.392474765307405 L-3.0901699437494745,9.510565162951535 L5.0,6.881909602355868 Z"/>
<polygon id="s3" stroke="#000000" stroke-opacity="1" stroke-width="2.0" stroke-linejoin="round" points="0.0,0.0 20.0,0.0 36.180339887498945,11.755705045849464 20.0,23.511410091698927 0.0,23.511410091698927 -16.18033988749895,11.755705045849464"/>
<path id="p3" fill-rule="evenodd" stroke="#170159" stroke-opacity="1" stroke-width="2.0" d="M10.0,0.0 L16.909830056250524,9.510565162951535 L28.090169943749473,5.877852522924732 L28.090169943749473,11.755705045849464 L28.090169943749473,17.633557568774194 L16.909830056250524,14.000844928747396 L10.0,23.511410091698927 L3.0901699437494736,14.000844928747396 L-8.090169943749475,17.633557568774194 L-8.090169943749476,11.755705045849464 L-8.090169943749475,5.877852522924732 L3.0901699437494736,9.510565162951533 Z"/>
<polygon id="s6" stroke="#000000" stroke-opacity="1" stroke-width="2.0" stroke-linejoin="round" points="0.0,0.0 20.0,0.0 36.180339887498945,11.755705045849464 42.3606797749979,30.776835371752533 36.180339887498945,49.797965697655606 16.18033988749895,49.797965697655606 0.0,38.04226065180614 -6.180339887498948,19.02113032590307"/>
<path id="p6" fill-rule="evenodd" stroke="#170159" stroke-opacity="1" stroke-width="2.0" d="M10.0,0.0 L21.18033988749895,15.388417685876268 L39.270509831248425,21.266270208801 L27.360679774997898,37.6587449741084 L8.090169943749478,43.92011317473088 L8.090169943749476,24.8989828488278 L-3.0901699437494745,9.510565162951535 L5.0,6.881909602355868 Z M26.18033988749895,49.79796569765561 L15.0,34.40954801177934 L-3.0901699437494745,28.531695488854613 L8.819660112501051,12.1392207235472 L28.090169943749466,5.877852522924729 L28.090169943749473,24.898982848827806 L39.270509831248425,40.28740053470408 L31.18033988749895,42.916056095299744 Z"/>
<polygon id="s9" stroke="#000000" stroke-opacity="1" stroke-width="2.0" stroke-linejoin="round" points="0.0,0.0 20.0,0.0 36.180339887498945,11.755705045849464 16.18033988749895,11.755705045849464"/>
<path id="p9" fill-rule="evenodd" stroke="#170159" stroke-opacity="1" stroke-width="2.0" d="M10.0,0.0 L16.909830056250524,9.510565162951535 L28.090169943749473,5.877852522924732 L28.09016994374947,9.127049485253794 L26.18033988749895,11.755705045849464 L19.270509831248425,2.2451398828979303 L8.090169943749475,5.877852522924732 L8.090169943749473,2.6286555605956674 Z"/>
<polygon id="s18" stroke="#000000" stroke-opacity="1" stroke-width="2.0" stroke-linejoin="round" points="0.0,0.0 20.0,0.0 36.180339887498945,-11.755705045849464 42.3606797749979,7.265425280053607 58.54101966249685,19.02113032590307 38.54101966249685,19.02113032590307 22.360679774997898,30.776835371752533 16.18033988749895,11.75570504584946"/>
<path id="p18" fill-rule="evenodd" stroke="#170159" stroke-opacity="1" stroke-width="2.0" d="M10.0,0.0 L27.360679774997898,23.894925769396682 L30.45084971874738,24.898982848827803 L30.45084971874738,9.89408084064928 L39.27050983124842,-2.24513988289792 L36.18033988749898,-3.24919696232906 L8.09016994374948,5.877852522924741 L8.09016994374948,2.6286555605956603 Z M28.09016994374948,-5.877852522924741 L31.18033988749894,-4.8737954434935995 L48.541019662496836,19.02113032590306 L50.45084971874738,16.39247476530738 L50.45084971874738,13.14327780297834 L22.360679774997898,22.270327288232142 L19.270509831248418,21.266270208801 L28.09016994374948,9.1270494852538 Z"/>
</defs>
<g transform="translate(93.90169943749478 254.7244032082245) scale(1 -1) rotate(0.0)">
<use xlink:href="#s2" transform="matrix(1.0 0.0 0.0 1.0 0.0 0.0)" fill="#FFFFFF" fill-opacity="1"/>
<use xlink:href="#s2" transform="matrix(0.8090169943749473 0.5877852522924732 -0.5877852522924732 0.8090169943749473 10.000000000000004 -30.776835371752533)" fill="#FFFFFF" fill-opacity="1"/>
<use xlink:href="#s6" transform="matrix(-0.30901699437494745 -0.9510565162951535 0.9510565162951535 -0.30901699437494745 26.18033988749895 19.02113032590307)" fill="#FFFFFF" fill-opacity="1"/>
<use xlink:href="#s6" transform="matrix(-0.8090169943749475 -0.587785252292473 0.587785252292473 -0.8090169943749475 26.18033988749896 80.57480106940814)" fill="#FFFFFF" fill-opacity="1"/>
<use xlink:href="#s2" transform="matrix(0.8090169943749475 0.5877852522924732 -0.5877852522924732 0.8090169943749475 -6.180339887498949 19.02113032590307)" fill="#FFFFFF" fill-opacity="1"/>
<use xlink:href="#s2" transform="matrix(0.30901699437494756 -0.9510565162951536 0.9510565162951536 0.30901699437494756 10.0 -30.776835371752533)" fill="#FFFFFF" fill-opacity="1"/>
<use xlink:href="#s2" transform="matrix(-0.30901699437494756 -0.9510565162951539 0.9510565162951539 -0.30901699437494756 42.36067977499789 -30.776835371752536)" fill="#FFFFFF" fill-opacity="1"/>
<use xlink:href="#s18" transform="matrix(-0.8090169943749475 -0.5877852522924731 0.5877852522924731 -0.8090169943749475 98.54101966249684 19.021130325903062)" fill="#FFFFFF" fill-opacity="1"/>
<use xlink:href="#s18" transform="matrix(-1.0 1.7763568394002506e-16 -1.7763568394002506e-16 -1.0 84.7213595499958 38.04226065180613)" fill="#FFFFFF" fill-opacity="1"/>
<use xlink:href="#s2" transform="matrix(0.8090169943749477 -0.5877852522924732 0.5877852522924732 0.8090169943749477 -6.180339887498942 80.57480106940814)" fill="#FFFFFF" fill-opacity="1"/>
<use xlink:href="#s2" transform="matrix(1.0000000000000004 0.0 0.0 1.0000000000000004 -16.18033988749895 49.79796569765561)" fill="#FFFFFF" fill-opacity="1"/>
<use xlink:href="#s18" transform="matrix(0.8090169943749473 -0.5877852522924732 0.5877852522924732 0.8090169943749473 26.18033988749896 80.57480106940814)" fill="#FFFFFF" fill-opacity="1"/>
<use xlink:href="#s2" transform="matrix(-0.8090169943749479 -0.5877852522924732 0.5877852522924732 -0.8090169943749479 68.54101966249685 -49.79796569765561)" fill="#FFFFFF" fill-opacity="1"/>
<use xlink:href="#s6" transform="matrix(0.3090169943749477 -0.9510565162951541 0.9510565162951541 0.3090169943749477 62.3606797749979 -30.776835371752536)" fill="#FFFFFF" fill-opacity="1"/>
<use xlink:href="#s3" transform="matrix(-0.8090169943749475 -0.5877852522924731 0.5877852522924731 -0.8090169943749475 84.72135954999578 38.04226065180613)" fill="#FFFFFF" fill-opacity="1"/>
<use xlink:href="#s3" transform="matrix(-0.30901699437494756 -0.9510565162951536 0.9510565162951536 -0.30901699437494756 98.54101966249684 19.021130325903066)" fill="#FFFFFF" fill-opacity="1"/>
<use xlink:href="#s3" transform="matrix(1.0 -1.7763568394002506e-16 1.7763568394002506e-16 1.0 64.7213595499958 38.04226065180613)" fill="#FFFFFF" fill-opacity="1"/>
<use xlink:href="#s6" transform="matrix(-1.0000000000000004 1.332267629550188e-16 -1.332267629550188e-16 -1.0000000000000004 62.360679774997934 130.37276676706375)" fill="#FFFFFF" fill-opacity="1"/>
<use xlink:href="#s2" transform="matrix(-0.8090169943749475 0.5877852522924732 -0.5877852522924732 -0.8090169943749475 26.180339887498967 118.61706172121428)" fill="#FFFFFF" fill-opacity="1"/>
<use xlink:href="#s3" transform="matrix(0.8090169943749473 -0.5877852522924732 0.5877852522924732 0.8090169943749473 68.54101966249685 73.30937578935452)" fill="#FFFFFF" fill-opacity="1"/>
<use xlink:href="#s2" transform="matrix(-0.3090169943749477 -0.9510565162951541 0.9510565162951541 -0.3090169943749477 84.72135954999581 -61.55367074350508)" fill="#FFFFFF" fill-opacity="1"/>
<use xlink:href="#s2" transform="matrix(0.3090169943749474 0.9510565162951541 -0.9510565162951541 0.3090169943749474 130.90169943749478 -80.57480106940815)" fill="#FFFFFF" fill-opacity="1"/>
<use xlink:href="#s18" transform="matrix(-0.30901699437494756 -0.9510565162951541 0.9510565162951541 -0.30901699437494756 120.90169943749476 11.755705045849481)" fill="#FFFFFF" fill-opacity="1"/>
<use xlink:href="#s9" transform="matrix(0.8090169943749475 0.5877852522924732 -0.5877852522924732 0.8090169943749475 98.54101966249684 19.02113032590306)" fill="#FFFFFF" fill-opacity="1"/>
<use xlink:href="#s9" transform="matrix(1.0 -8.881784197001253e-17 8.881784197001253e-17 1.0 84.72135954999578 38.04226065180613)" fill="#FFFFFF" fill-opacity="1"/>
<use xlink:href="#s9" transform="matrix(-0.3090169943749475 -0.9510565162951536 0.9510565162951536 -0.3090169943749475 120.90169943749473 49.7979656976556)" fill="#FFFFFF" fill-opacity="1"/>
<use xlink:href="#s9" transform="matrix(0.8090169943749473 -0.5877852522924734 0.5877852522924734 0.8090169943749473 84.7213595499958 61.55367074350505)" fill="#FFFFFF" fill-opacity="1"/>
<use xlink:href="#s2" transform="matrix(1.0000000000000004 -1.332267629550188e-16 1.332267629550188e-16 1.0000000000000004 42.36067977499793 130.37276676706375)" fill="#FFFFFF" fill-opacity="1"/>
<use xlink:href="#s2" transform="matrix(-1.0000000000000004 1.7763568394002506e-16 -1.7763568394002506e-16 -1.0000000000000004 36.18033988749899 149.39389709296682)" fill="#FFFFFF" fill-opacity="1"/>
<use xlink:href="#s18" transform="matrix(-0.30901699437494734 0.9510565162951542 -0.9510565162951542 -0.30901699437494734 98.54101966249688 80.57480106940812)" fill="#FFFFFF" fill-opacity="1"/>
<use xlink:href="#s9" transform="matrix(-0.30901699437494734 0.9510565162951536 -0.9510565162951536 -0.30901699437494734 120.90169943749474 49.797965697655584)" fill="#FFFFFF" fill-opacity="1"/>
<use xlink:href="#s2" transform="matrix(-0.30901699437494784 0.9510565162951536 -0.9510565162951536 -0.30901699437494784 163.2623792124927 -80.57480106940814)" fill="#FFFFFF" fill-opacity="1"/>
<use xlink:href="#s6" transform="matrix(0.8090169943749477 -0.5877852522924732 0.5877852522924732 0.8090169943749477 120.90169943749478 -49.79796569765561)" fill="#FFFFFF" fill-opacity="1"/>
<use xlink:href="#s3" transform="matrix(-0.3090169943749475 0.9510565162951541 -0.9510565162951541 -0.3090169943749475 149.44271909999162 1.2434497875801753e-14)" fill="#FFFFFF" fill-opacity="1"/>
<use xlink:href="#s9" transform="matrix(-0.30901699437494745 0.9510565162951536 -0.9510565162951536 -0.30901699437494745 143.26237921249262 19.02113032590306)" fill="#FFFFFF" fill-opacity="1"/>
<use xlink:href="#s6" transform="matrix(-0.8090169943749475 0.5877852522924734 -0.5877852522924734 -0.8090169943749475 120.9016994374948 149.39389709296682)" fill="#FFFFFF" fill-opacity="1"/>
<use xlink:href="#s2" transform="matrix(0.8090169943749479 -0.5877852522924736 0.5877852522924736 0.8090169943749479 52.360679774997934 161.1496021388163)" fill="#FFFFFF" fill-opacity="1"/>
<use xlink:href="#s3" transform="matrix(0.30901699437494734 -0.9510565162951542 0.9510565162951542 0.30901699437494734 92.36067977499793 99.59593139531121)" fill="#FFFFFF" fill-opacity="1"/>
<use xlink:href="#s9" transform="matrix(0.30901699437494756 0.9510565162951536 -0.9510565162951536 0.30901699437494756 120.90169943749474 49.797965697655584)" fill="#FFFFFF" fill-opacity="1"/>
<use xlink:href="#s2" transform="matrix(-0.8090169943749477 0.5877852522924728 -0.5877852522924728 -0.8090169943749477 189.44271909999165 -61.55367074350505)" fill="#FFFFFF" fill-opacity="1"/>
<use xlink:href="#s2" transform="matrix(-1.0000000000000007 -8.881784197001253e-17 8.881784197001253e-17 -1.0000000000000007 199.44271909999162 -30.776835371752533)" fill="#FFFFFF" fill-opacity="1"/>
<use xlink:href="#s18" transform="matrix(-0.3090169943749478 0.9510565162951541 -0.9510565162951541 -0.3090169943749478 179.44271909999165 -30.776835371752536)" fill="#FFFFFF" fill-opacity="1"/>
<use xlink:href="#s3" transform="matrix(0.8090169943749475 -0.5877852522924732 0.5877852522924732 0.8090169943749475 143.26237921249262 19.02113032590306)" fill="#FFFFFF" fill-opacity="1"/>
<use xlink:href="#s9" transform="matrix(-0.8090169943749475 0.5877852522924732 -0.5877852522924732 -0.8090169943749475 157.08203932499367 38.04226065180613)" fill="#FFFFFF" fill-opacity="1"/>
<use xlink:href="#s2" transform="matrix(0.8090169943749475 -0.5877852522924734 0.5877852522924734 0.8090169943749475 104.72135954999585 161.1496021388163)" fill="#FFFFFF" fill-opacity="1"/>
<use xlink:href="#s2" transform="matrix(0.3090169943749474 -0.9510565162951541 0.9510565162951541 0.3090169943749474 78.5410196624969 180.17073246471938)" fill="#FFFFFF" fill-opacity="1"/>
<use xlink:href="#s18" transform="matrix(0.3090169943749479 0.9510565162951536 -0.9510565162951536 0.3090169943749479 120.90169943749477 87.84022634946174)" fill="#FFFFFF" fill-opacity="1"/>
<use xlink:href="#s9" transform="matrix(-0.8090169943749477 -0.5877852522924731 0.5877852522924731 -0.8090169943749477 143.26237921249265 80.57480106940812)" fill="#FFFFFF" fill-opacity="1"/>
<use xlink:href="#s3" transform="matrix(-0.3090169943749475 -0.9510565162951536 0.9510565162951536 -0.3090169943749475 127.08203932499369 106.8613566753648)" fill="#FFFFFF" fill-opacity="1"/>
<use xlink:href="#s6" transform="matrix(1.0000000000000007 8.881784197001253e-17 -8.881784197001253e-17 1.0000000000000007 179.44271909999162 -30.776835371752533)" fill="#FFFFFF" fill-opacity="1"/>
<use xlink:href="#s2" transform="matrix(-0.809016994374948 0.5877852522924731 -0.5877852522924731 -0.809016994374948 231.8033988749895 -30.776835371752526)" fill="#FFFFFF" fill-opacity="1"/>
<use xlink:href="#s18" transform="matrix(-0.8090169943749475 0.5877852522924735 -0.5877852522924735 -0.8090169943749475 215.62305898749054 19.02113032590305)" fill="#FFFFFF" fill-opacity="1"/>
<use xlink:href="#s3" transform="matrix(1.0 0.0 0.0 1.0 157.08203932499367 38.04226065180613)" fill="#FFFFFF" fill-opacity="1"/>
<use xlink:href="#s9" transform="matrix(-1.0 -0.0 -0.0 -1.0 157.08203932499367 61.553670743505066)" fill="#FFFFFF" fill-opacity="1"/>
<use xlink:href="#s6" transform="matrix(-0.3090169943749472 0.9510565162951536 -0.9510565162951536 -0.3090169943749472 179.44271909999165 130.37276676706375)" fill="#FFFFFF" fill-opacity="1"/>
<use xlink:href="#s2" transform="matrix(0.30901699437494723 -0.9510565162951541 0.9510565162951541 0.30901699437494723 130.9016994374948 180.17073246471938)" fill="#FFFFFF" fill-opacity="1"/>
<use xlink:href="#s3" transform="matrix(0.8090169943749477 0.5877852522924731 -0.5877852522924731 0.8090169943749477 157.0820393249937 61.55367074350505)" fill="#FFFFFF" fill-opacity="1"/>
<use xlink:href="#s18" transform="matrix(0.8090169943749477 0.5877852522924734 -0.5877852522924734 0.8090169943749477 143.26237921249265 80.57480106940812)" fill="#FFFFFF" fill-opacity="1"/>
<use xlink:href="#s2" transform="matrix(-1.0000000000000007 -4.4408920985006264e-17 4.4408920985006264e-17 -1.0000000000000007 241.80339887498957 1.865174681370263e-14)" fill="#FFFFFF" fill-opacity="1"/>
<use xlink:href="#s2" transform="matrix(-0.8090169943749482 -0.5877852522924737 0.5877852522924737 -0.8090169943749482 231.80339887498957 30.77683537175257)" fill="#FFFFFF" fill-opacity="1"/>
<use xlink:href="#s6" transform="matrix(0.8090169943749479 0.5877852522924732 -0.5877852522924732 0.8090169943749479 215.62305898749054 19.021130325903048)" fill="#FFFFFF" fill-opacity="1"/>
<use xlink:href="#s18" transform="matrix(-1.0000000000000002 1.7763568394002506e-16 -1.7763568394002506e-16 -1.0000000000000002 215.62305898749054 80.57480106940812)" fill="#FFFFFF" fill-opacity="1"/>
<use xlink:href="#s2" transform="matrix(0.3090169943749472 -0.9510565162951536 0.9510565162951536 0.3090169943749472 173.2623792124927 149.39389709296682)" fill="#FFFFFF" fill-opacity="1"/>
<use xlink:href="#s2" transform="matrix(-0.30901699437494773 -0.9510565162951536 0.9510565162951536 -0.30901699437494773 163.2623792124927 180.17073246471938)" fill="#FFFFFF" fill-opacity="1"/>
<use xlink:href="#s6" transform="matrix(0.30901699437494745 0.9510565162951539 -0.9510565162951539 0.30901699437494745 215.62305898749054 80.57480106940812)" fill="#FFFFFF" fill-opacity="1"/>
<use xlink:href="#s2" transform="matrix(-1.0000000000000009 -2.664535259100376e-16 2.664535259100376e-16 -1.0000000000000009 257.98373876248854 49.79796569765566)" fill="#FFFFFF" fill-opacity="1"/>
<use xlink:href="#s2" transform="matrix(-0.809016994374948 -0.5877852522924732 0.5877852522924732 -0.809016994374948 247.98373876248849 80.57480106940814)" fill="#FFFFFF" fill-opacity="1"/>
<use xlink:href="#s2" transform="matrix(-0.3090169943749478 -0.9510565162951541 0.9510565162951541 -0.3090169943749478 221.80339887498948 99.59593139531123)" fill="#FFFFFF" fill-opacity="1"/>
<use xlink:href="#s2" transform="matrix(-0.3090169943749478 -0.9510565162951535 0.9510565162951535 -0.3090169943749478 205.6230589874906 149.39389709296682)" fill="#FFFFFF" fill-opacity="1"/>
<use xlink:href="#s2" transform="matrix(-0.8090169943749479 -0.5877852522924734 0.5877852522924734 -0.8090169943749479 231.80339887498948 130.37276676706375)" fill="#FFFFFF" fill-opacity="1"/>
<use xlink:href="#s1" transform="matrix(0.8090169943749488 -0.5877852522924727 0.5877852522924727 0.8090169943749488 94.72135954999584 191.92643751056883)" fill="#FFFFFF" fill-opacity="1"/>
<use xlink:href="#s1" transform="matrix(-1.0 0.0 0.0 -1.0 130.90169943749478 -80.57480106940815)" fill="#FFFFFF" fill-opacity="1"/>
<use xlink:href="#s1" transform="matrix(0.30901699437494745 0.9510565162951542 -0.9510565162951542 0.30901699437494745 -22.3606797749979 30.77683537175253)" fill="#FFFFFF" fill-opacity="1"/>
<use xlink:href="#s1" transform="matrix(0.30901699437494873 -0.9510565162951544 0.9510565162951544 0.30901699437494873 257.98373876248854 49.79796569765566)" fill="#FFFFFF" fill-opacity="1"/>
<use xlink:href="#s1" transform="matrix(1.0000000000000004 0.0 0.0 1.0000000000000004 16.18033988749898 149.39389709296682)" fill="#FFFFFF" fill-opacity="1"/>
<use xlink:href="#s1" transform="matrix(-1.0 0.0 0.0 -1.0 36.18033988749895 -49.797965697655606)" fill="#FFFFFF" fill-opacity="1"/>
<use xlink:href="#s1" transform="matrix(-0.8090169943749473 -0.5877852522924734 0.5877852522924734 -0.8090169943749473 205.62305898749057 -49.79796569765561)" fill="#FFFFFF" fill-opacity="1"/>
<use xlink:href="#s1" transform="matrix(0.3090169943749473 -0.9510565162951536 0.9510565162951536 0.3090169943749473 183.2623792124927 180.17073246471938)" fill="#FFFFFF" fill-opacity="1"/>
<use xlink:href="#p2" transform="matrix(1.0 0.0 0.0 1.0 0.0 0.0)" fill="#00AAAA" fill-opacity="0"/>
<use xlink:href="#p2" transform="matrix(0.8090169943749473 0.5877852522924732 -0.5877852522924732 0.8090169943749473 10.000000000000004 -30.776835371752533)" fill="#00AAAA" fill-opacity="0"/>
<use xlink:href="#p6" transform="matrix(-0.30901699437494745 -0.9510565162951535 0.9510565162951535 -0.30901699437494745 26.18033988749895 19.02113032590307)" fill="#00AAAA" fill-opacity="0"/>
<use xlink:href="#p6" transform="matrix(-0.8090169943749475 -0.587785252292473 0.587785252292473 -0.8090169943749475 26.18033988749896 80.57480106940814)" fill="#00AAAA" fill-opacity="0"/>
<use xlink:href="#p2" transform="matrix(0.8090169943749475 0.5877852522924732 -0.5877852522924732 0.8090169943749475 -6.180339887498949 19.02113032590307)" fill="#00AAAA" fill-opacity="0"/>
<use xlink:href="#p2" transform="matrix(0.30901699437494756 -0.9510565162951536 0.9510565162951536 0.30901699437494756 10.0 -30.776835371752533)" fill="#00AAAA" fill-opacity="0"/>
<use xlink:href="#p2" transform="matrix(-0.30901699437494756 -0.9510565162951539 0.9510565162951539 -0.30901699437494756 42.36067977499789 -30.776835371752536)" fill="#00AAAA" fill-opacity="0"/>
<use xlink:href="#p18" transform="matrix(-0.8090169943749475 -0.5877852522924731 0.5877852522924731 -0.8090169943749475 98.54101966249684 19.021130325903062)" fill="#00AAAA" fill-opacity="0"/>
<use xlink:href="#p18" transform="matrix(-1.0 1.7763568394002506e-16 -1.7763568394002506e-16 -1.0 84.7213595499958 38.04226065180613)" fill="#00AAAA" fill-opacity="0"/>
<use xlink:href="#p2" transform="matrix(0.8090169943749477 -0.5877852522924732 0.5877852522924732 0.8090169943749477 -6.180339887498942 80.57480106940814)" fill="#00AAAA" fill-opacity="0"/>
<use xlink:href="#p2" transform="matrix(1.0000000000000004 0.0 0.0 1.0000000000000004 -16.18033988749895 49.79796569765561)" fill="#00AAAA" fill-opacity="0"/>
<use xlink:href="#p18" transform="matrix(0.8090169943749473 -0.5877852522924732 0.5877852522924732 0.8090169943749473 26.18033988749896 80.57480106940814)" fill="#00AAAA" fill-opacity="0"/>
<use xlink:href="#p2" transform="matrix(-0.8090169943749479 -0.5877852522924732 0.5877852522924732 -0.8090169943749479 68.54101966249685 -49.79796569765561)" fill="#00AAAA" fill-opacity="0"/>
<use xlink:href="#p6" transform="matrix(0.3090169943749477 -0.9510565162951541 0.9510565162951541 0.3090169943749477 62.3606797749979 -30.776835371752536)" fill="#00AAAA" fill-opacity="0"/>
<use xlink:href="#p3" transform="matrix(-0.8090169943749475 -0.5877852522924731 0.5877852522924731 -0.8090169943749475 84.72135954999578 38.04226065180613)" fill="#00AAAA" fill-opacity="0"/>
<use xlink:href="#p3" transform="matrix(-0.30901699437494756 -0.9510565162951536 0.9510565162951536 -0.30901699437494756 98.54101966249684 19.021130325903066)" fill="#00AAAA" fill-opacity="0"/>
<use xlink:href="#p3" transform="matrix(1.0 -1.7763568394002506e-16 1.7763568394002506e-16 1.0 64.7213595499958 38.04226065180613)" fill="#00AAAA" fill-opacity="0"/>
<use xlink:href="#p6" transform="matrix(-1.0000000000000004 1.332267629550188e-16 -1.332267629550188e-16 -1.0000000000000004 62.360679774997934 130.37276676706375)" fill="#00AAAA" fill-opacity="0"/>
<use xlink:href="#p2" transform="matrix(-0.8090169943749475 0.5877852522924732 -0.5877852522924732 -0.8090169943749475 26.180339887498967 118.61706172121428)" fill="#00AAAA" fill-opacity="0"/>
<use xlink:href="#p3" transform="matrix(0.8090169943749473 -0.5877852522924732 0.5877852522924732 0.8090169943749473 68.54101966249685 73.30937578935452)" fill="#00AAAA" fill-opacity="0"/>
<use xlink:href="#p2" transform="matrix(-0.3090169943749477 -0.9510565162951541 0.9510565162951541 -0.3090169943749477 84.72135954999581 -61.55367074350508)" fill="#00AAAA" fill-opacity="0"/>
<use xlink:href="#p2" transform="matrix(0.3090169943749474 0.9510565162951541 -0.9510565162951541 0.3090169943749474 130.90169943749478 -80.57480106940815)" fill="#00AAAA" fill-opacity="0"/>
<use xlink:href="#p18" transform="matrix(-0.30901699437494756 -0.9510565162951541 0.9510565162951541 -0.30901699437494756 120.90169943749476 11.755705045849481)" fill="#00AAAA" fill-opacity="0"/>
<use xlink:href="#p9" transform="matrix(0.8090169943749475 0.5877852522924732 -0.5877852522924732 0.8090169943749475 98.54101966249684 19.02113032590306)" fill="#00AAAA" fill-opacity="0"/>
<use xlink:href="#p9" transform="matrix(1.0 -8.881784197001253e-17 8.881784197001253e-17 1.0 84.72135954999578 38.04226065180613)" fill="#00AAAA" fill-opacity="0"/>
<use xlink:href="#p9" transform="matrix(-0.3090169943749475 -0.9510565162951536 0.9510565162951536 -0.3090169943749475 120.90169943749473 49.7979656976556)" fill="#00AAAA" fill-opacity="0"/>
<use xlink:href="#p9" transform="matrix(0.8090169943749473 -0.5877852522924734 0.5877852522924734 0.8090169943749473 84.7213595499958 61.55367074350505)" fill="#00AAAA" fill-opacity="0"/>
<use xlink:href="#p2" transform="matrix(1.0000000000000004 -1.332267629550188e-16 1.332267629550188e-16 1.0000000000000004 42.36067977499793 130.37276676706375)" fill="#00AAAA" fill-opacity="0"/>
<use xlink:href="#p2" transform="matrix(-1.0000000000000004 1.7763568394002506e-16 -1.7763568394002506e-16 -1.0000000000000004 36.18033988749899 149.39389709296682)" fill="#00AAAA" fill-opacity="0"/>
<use xlink:href="#p18" transform="matrix(-0.30901699437494734 0.9510565162951542 -0.9510565162951542 -0.30901699437494734 98.54101966249688 80.57480106940812)" fill="#00AAAA" fill-opacity="0"/>
<use xlink:href="#p9" transform="matrix(-0.30901699437494734 0.9510565162951536 -0.9510565162951536 -0.30901699437494734 120.90169943749474 49.797965697655584)" fill="#00AAAA" fill-opacity="0"/>
<use xlink:href="#p2" transform="matrix(-0.30901699437494784 0.9510565162951536 -0.9510565162951536 -0.30901699437494784 163.2623792124927 -80.57480106940814)" fill="#00AAAA" fill-opacity="0"/>
<use xlink:href="#p6" transform="matrix(0.8090169943749477 -0.5877852522924732 0.5877852522924732 0.8090169943749477 120.90169943749478 -49.79796569765561)" fill="#00AAAA" fill-opacity="0"/>
<use xlink:href="#p3" transform="matrix(-0.3090169943749475 0.9510565162951541 -0.9510565162951541 -0.3090169943749475 149.44271909999162 1.2434497875801753e-14)" fill="#00AAAA" fill-opacity="0"/>
<use xlink:href="#p9" transform="matrix(-0.30901699437494745 0.9510565162951536 -0.9510565162951536 -0.30901699437494745 143.26237921249262 19.02113032590306)" fill="#00AAAA" fill-opacity="0"/>
<use xlink:href="#p6" transform="matrix(-0.8090169943749475 0.5877852522924734 -0.5877852522924734 -0.8090169943749475 120.9016994374948 149.39389709296682)" fill="#00AAAA" fill-opacity="0"/>
<use xlink:href="#p2" transform="matrix(0.8090169943749479 -0.5877852522924736 0.5877852522924736 0.8090169943749479 52.360679774997934 161.1496021388163)" fill="#00AAAA" fill-opacity="0"/>
<use xlink:href="#p3" transform="matrix(0.30901699437494734 -0.9510565162951542 0.9510565162951542 0.30901699437494734 92.36067977499793 99.59593139531121)" fill="#00AAAA" fill-opacity="0"/>
<use xlink:href="#p9" transform="matrix(0.30901699437494756 0.9510565162951536 -0.9510565162951536 0.30901699437494756 120.90169943749474 49.797965697655584)" fill="#00AAAA" fill-opacity="0"/>
<use xlink:href="#p2" transform="matrix(-0.8090169943749477 0.5877852522924728 -0.5877852522924728 -0.8090169943749477 189.44271909999165 -61.55367074350505)" fill="#00AAAA" fill-opacity="0"/>
<use xlink:href="#p2" transform="matrix(-1.0000000000000007 -8.881784197001253e-17 8.881784197001253e-17 -1.0000000000000007 199.44271909999162 -30.776835371752533)" fill="#00AAAA" fill-opacity="0"/>
<use xlink:href="#p18" transform="matrix(-0.3090169943749478 0.9510565162951541 -0.9510565162951541 -0.3090169943749478 179.44271909999165 -30.776835371752536)" fill="#00AAAA" fill-opacity="0"/>
<use xlink:href="#p3" transform="matrix(0.8090169943749475 -0.5877852522924732 0.5877852522924732 0.8090169943749475 143.26237921249262 19.02113032590306)" fill="#00AAAA" fill-opacity="0"/>
<use xlink:href="#p9" transform="matrix(-0.8090169943749475 0.5877852522924732 -0.5877852522924732 -0.8090169943749475 157.08203932499367 38.04226065180613)" fill="#00AAAA" fill-opacity="0"/>
<use xlink:href="#p2" transform="matrix(0.8090169943749475 -0.5877852522924734 0.5877852522924734 0.8090169943749475 104.72135954999585 161.1496021388163)" fill="#00AAAA" fill-opacity="0"/>
<use xlink:href="#p2" transform="matrix(0.3090169943749474 -0.9510565162951541 0.9510565162951541 0.3090169943749474 78.5410196624969 180.17073246471938)" fill="#00AAAA" fill-opacity="0"/>
<use xlink:href="#p18" transform="matrix(0.3090169943749479 0.9510565162951536 -0.9510565162951536 0.3090169943749479 120.90169943749477 87.84022634946174)" fill="#00AAAA" fill-opacity="0"/>
<use xlink:href="#p9" transform="matrix(-0.8090169943749477 -0.5877852522924731 0.5877852522924731 -0.8090169943749477 143.26237921249265 80.57480106940812)" fill="#00AAAA" fill-opacity="0"/>
<use xlink:href="#p3" transform="matrix(-0.3090169943749475 -0.9510565162951536 0.9510565162951536 -0.3090169943749475 127.08203932499369 106.8613566753648)" fill="#00AAAA" fill-opacity="0"/>
<use xlink:href="#p6" transform="matrix(1.0000000000000007 8.881784197001253e-17 -8.881784197001253e-17 1.0000000000000007 179.44271909999162 -30.776835371752533)" fill="#00AAAA" fill-opacity="0"/>
<use xlink:href="#p2" transform="matrix(-0.809016994374948 0.5877852522924731 -0.5877852522924731 -0.809016994374948 231.8033988749895 -30.776835371752526)" fill="#00AAAA" fill-opacity="0"/>
<use xlink:href="#p18" transform="matrix(-0.8090169943749475 0.5877852522924735 -0.5877852522924735 -0.8090169943749475 215.62305898749054 19.02113032590305)" fill="#00AAAA" fill-opacity="0"/>
<use xlink:href="#p3" transform="matrix(1.0 0.0 0.0 1.0 157.08203932499367 38.04226065180613)" fill="#00AAAA" fill-opacity="0"/>
<use xlink:href="#p9" transform="matrix(-1.0 -0.0 -0.0 -1.0 157.08203932499367 61.553670743505066)" fill="#00AAAA" fill-opacity="0"/>
<use xlink:href="#p6" transform="matrix(-0.3090169943749472 0.9510565162951536 -0.9510565162951536 -0.3090169943749472 179.44271909999165 130.37276676706375)" fill="#00AAAA" fill-opacity="0"/>
<use xlink:href="#p2" transform="matrix(0.30901699437494723 -0.9510565162951541 0.9510565162951541 0.30901699437494723 130.9016994374948 180.17073246471938)" fill="#00AAAA" fill-opacity="0"/>
<use xlink:href="#p3" transform="matrix(0.8090169943749477 0.5877852522924731 -0.5877852522924731 0.8090169943749477 157.0820393249937 61.55367074350505)" fill="#00AAAA" fill-opacity="0"/>
<use xlink:href="#p18" transform="matrix(0.8090169943749477 0.5877852522924734 -0.5877852522924734 0.8090169943749477 143.26237921249265 80.57480106940812)" fill="#00AAAA" fill-opacity="0"/>
<use xlink:href="#p2" transform="matrix(-1.0000000000000007 -4.4408920985006264e-17 4.4408920985006264e-17 -1.0000000000000007 241.80339887498957 1.865174681370263e-14)" fill="#00AAAA" fill-opacity="0"/>
<use xlink:href="#p2" transform="matrix(-0.8090169943749482 -0.5877852522924737 0.5877852522924737 -0.8090169943749482 231.80339887498957 30.77683537175257)" fill="#00AAAA" fill-opacity="0"/>
<use xlink:href="#p6" transform="matrix(0.8090169943749479 0.5877852522924732 -0.5877852522924732 0.8090169943749479 215.62305898749054 19.021130325903048)" fill="#00AAAA" fill-opacity="0"/>
<use xlink:href="#p18" transform="matrix(-1.0000000000000002 1.7763568394002506e-16 -1.7763568394002506e-16 -1.0000000000000002 215.62305898749054 80.57480106940812)" fill="#00AAAA" fill-opacity="0"/>
<use xlink:href="#p2" transform="matrix(0.3090169943749472 -0.9510565162951536 0.9510565162951536 0.3090169943749472 173.2623792124927 149.39389709296682)" fill="#00AAAA" fill-opacity="0"/>
<use xlink:href="#p2" transform="matrix(-0.30901699437494773 -0.9510565162951536 0.9510565162951536 -0.30901699437494773 163.2623792124927 180.17073246471938)" fill="#00AAAA" fill-opacity="0"/>
<use xlink:href="#p6" transform="matrix(0.30901699437494745 0.9510565162951539 -0.9510565162951539 0.30901699437494745 215.62305898749054 80.57480106940812)" fill="#00AAAA" fill-opacity="0"/>
<use xlink:href="#p2" transform="matrix(-1.0000000000000009 -2.664535259100376e-16 2.664535259100376e-16 -1.0000000000000009 257.98373876248854 49.79796569765566)" fill="#00AAAA" fill-opacity="0"/>
<use xlink:href="#p2" transform="matrix(-0.809016994374948 -0.5877852522924732 0.5877852522924732 -0.809016994374948 247.98373876248849 80.57480106940814)" fill="#00AAAA" fill-opacity="0"/>
<use xlink:href="#p2" transform="matrix(-0.3090169943749478 -0.9510565162951541 0.9510565162951541 -0.3090169943749478 221.80339887498948 99.59593139531123)" fill="#00AAAA" fill-opacity="0"/>
<use xlink:href="#p2" transform="matrix(-0.3090169943749478 -0.9510565162951535 0.9510565162951535 -0.3090169943749478 205.6230589874906 149.39389709296682)" fill="#00AAAA" fill-opacity="0"/>
<use xlink:href="#p2" transform="matrix(-0.8090169943749479 -0.5877852522924734 0.5877852522924734 -0.8090169943749479 231.80339887498948 130.37276676706375)" fill="#00AAAA" fill-opacity="0"/>
<use xlink:href="#r1" transform="matrix(0.8090169943749488 -0.5877852522924727 0.5877852522924727 0.8090169943749488 94.72135954999584 191.92643751056883)" fill="#00AAAA" fill-opacity="0"/>
<use xlink:href="#p1" transform="matrix(0.8090169943749488 -0.5877852522924727 0.5877852522924727 0.8090169943749488 94.72135954999584 191.92643751056883)" fill="#00AAAA" fill-opacity="0"/>
<use xlink:href="#r1" transform="matrix(-1.0 0.0 0.0 -1.0 130.90169943749478 -80.57480106940815)" fill="#00AAAA" fill-opacity="0"/>
<use xlink:href="#p1" transform="matrix(-1.0 0.0 0.0 -1.0 130.90169943749478 -80.57480106940815)" fill="#00AAAA" fill-opacity="0"/>
<use xlink:href="#r1" transform="matrix(0.30901699437494745 0.9510565162951542 -0.9510565162951542 0.30901699437494745 -22.3606797749979 30.77683537175253)" fill="#00AAAA" fill-opacity="0"/>
<use xlink:href="#p1" transform="matrix(0.30901699437494745 0.9510565162951542 -0.9510565162951542 0.30901699437494745 -22.3606797749979 30.77683537175253)" fill="#00AAAA" fill-opacity="0"/>
<use xlink:href="#r1" transform="matrix(0.30901699437494873 -0.9510565162951544 0.9510565162951544 0.30901699437494873 257.98373876248854 49.79796569765566)" fill="#00AAAA" fill-opacity="0"/>
<use xlink:href="#p1" transform="matrix(0.30901699437494873 -0.9510565162951544 0.9510565162951544 0.30901699437494873 257.98373876248854 49.79796569765566)" fill="#00AAAA" fill-opacity="0"/>
<use xlink:href="#r1" transform="matrix(1.0000000000000004 0.0 0.0 1.0000000000000004 16.18033988749898 149.39389709296682)" fill="#00AAAA" fill-opacity="0"/>
<use xlink:href="#p1" transform="matrix(1.0000000000000004 0.0 0.0 1.0000000000000004 16.18033988749898 149.39389709296682)" fill="#00AAAA" fill-opacity="0"/>
<use xlink:href="#r1" transform="matrix(-1.0 0.0 0.0 -1.0 36.18033988749895 -49.797965697655606)" fill="#00AAAA" fill-opacity="0"/>
<use xlink:href="#p1" transform="matrix(-1.0 0.0 0.0 -1.0 36.18033988749895 -49.797965697655606)" fill="#00AAAA" fill-opacity="0"/>
<use xlink:href="#r1" transform="matrix(-0.8090169943749473 -0.5877852522924734 0.5877852522924734 -0.8090169943749473 205.62305898749057 -49.79796569765561)" fill="#00AAAA" fill-opacity="0"/>
<use xlink:href="#p1" transform="matrix(-0.8090169943749473 -0.5877852522924734 0.5877852522924734 -0.8090169943749473 205.62305898749057 -49.79796569765561)" fill="#00AAAA" fill-opacity="0"/>
<use xlink:href="#r1" transform="matrix(0.3090169943749473 -0.9510565162951536 0.9510565162951536 0.3090169943749473 183.2623792124927 180.17073246471938)" fill="#00AAAA" fill-opacity="0"/>
<use xlink:href="#p1" transform="matrix(0.3090169943749473 -0.9510565162951536 0.9510565162951536 0.3090169943749473 183.2623792124927 180.17073246471938)" fill="#00AAAA" fill-opacity="0"/>
</g>
</svg>