<?xml version="1.0" encoding="UTF-8" standalone="no"?>
<!DOCTYPE svg PUBLIC "-//W3C//DTD SVG 1.1//EN" "http://www.w3.org/Graphics/SVG/1.1/DTD/svg11.dtd">
<svg xmlns="http://www.w3.org/2000/svg" xmlns:xlink="http://www.w3.org/1999/xlink" viewBox="0 0 158.2772243424243 160.758435691233" version="1.1" xml:space="preserve">
<defs>
<path id="p23" fill-rule="evenodd" stroke="#201A45" stroke-opacity="1" stroke-width="3.0" d="M10.0,0.0 C16.06053598842405,0.9598946005932538 21.705739817412216,3.67848148262903 26.234898018587334,7.818314824680298 C29.26310458257269,13.155117155389878 30.657354787160514,19.26372643025813 30.244586697611524,25.385908771178833 C27.96016253032056,31.08089782605226 24.05356026893232,35.97962211685654 19.00968867902419,39.47402528417265 C13.132851772187742,41.23875814828445 6.8671482278122475,41.23875814828445 0.9903113209758063,39.47402528417265 C-4.053560268932327,35.97962211685654 -7.960162530320568,31.08089782605226 -10.244586697611528,25.385908771178833 C-10.657354787160518,19.26372643025813 -9.263104582572693,13.15511715538988 -6.2348980185873355,7.818314824680298 C-1.7057398174122174,3.6784814826290306 3.9394640115759474,0.9598946005932542 10.0,0.0 Z"/>
<path id="r23" d=""/>
<path id="q23" stroke="#FFFFFF" stroke-opacity="1" stroke-width="2.0" fill-opacity="0" d="M10.0,0.0 C16.06053598842405,0.9598946005932538 21.705739817412216,3.67848148262903 26.234898018587334,7.818314824680298 C29.26310458257269,13.155117155389878 30.657354787160514,19.26372643025813 30.244586697611524,25.385908771178833 C27.96016253032056,31.08089782605226 24.05356026893232,35.97962211685654 19.00968867902419,39.47402528417265 C13.132851772187742,41.23875814828445 6.8671482278122475,41.23875814828445 0.9903113209758063,39.47402528417265 C-4.053560268932327,35.97962211685654 -7.960162530320568,31.08089782605226 -10.244586697611528,25.385908771178833 C-10.657354787160518,19.26372643025813 -9.263104582572693,13.15511715538988 -6.2348980185873355,7.818314824680298 C-1.7057398174122174,3.6784814826290306 3.9394640115759474,0.9598946005932542 10.0,0.0 Z"/>
<path id="p30" fill-rule="evenodd" stroke="#201A45" stroke-opacity="1" stroke-width="3.0" d="M10.0,0.0 C16.060535988424057,0.9598946005932542 21.705739817412216,3.6784814826290297 26.234898018587334,7.8183148246802965 C28.05396826635367,11.024178801550926 26.110413171149244,15.060012542160115 22.46979603717467,15.636629649360593 C16.40926004875062,14.676735048767341 10.764056219762455,11.958148166731565 6.2348980185873355,7.8183148246802965 C4.415827770820998,4.612450847809665 6.359382866025429,0.5766171072004798 10.0,0.0 Z"/>
<path id="q30" stroke="#FFFFFF" stroke-opacity="1" stroke-width="2.0" fill-opacity="0" d="M10.0,0.0 C16.060535988424057,0.9598946005932542 21.705739817412216,3.6784814826290297 26.234898018587334,7.8183148246802965 C28.05396826635367,11.024178801550926 26.110413171149244,15.060012542160115 22.46979603717467,15.636629649360593 C16.40926004875062,14.676735048767341 10.764056219762455,11.958148166731565 6.2348980185873355,7.8183148246802965 C4.415827770820998,4.612450847809665 6.359382866025429,0.5766171072004798 10.0,0.0 Z"/>
<path id="p31" fill-rule="evenodd" stroke="#201A45" stroke-opacity="1" stroke-width="3.0" d="M10.0,0.0 C15.506686288281902,0.8721734258123269 20.149550146602543,4.574733801026923 22.225209339563143,9.749279121818237 C22.546948254186102,14.521315408935141 19.17440369715306,18.750352520454808 14.450418679126287,19.498558243636474 C8.943732390844387,18.626384817824146 4.300868532523745,14.923824442609547 2.2252093395631443,9.749279121818237 C1.9034704249401817,4.977242834701333 5.2760149819732245,0.7482057231816654 10.0,0.0 Z"/>
<path id="q31" stroke="#FFFFFF" stroke-opacity="1" stroke-width="2.0" fill-opacity="0" d="M10.0,0.0 C15.506686288281902,0.8721734258123269 20.149550146602543,4.574733801026923 22.225209339563143,9.749279121818237 C22.546948254186102,14.521315408935141 19.17440369715306,18.750352520454808 14.450418679126287,19.498558243636474 C8.943732390844387,18.626384817824146 4.300868532523745,14.923824442609547 2.2252093395631443,9.749279121818237 C1.9034704249401817,4.977242834701333 5.2760149819732245,0.7482057231816654 10.0,0.0 Z"/>
<path id="p33" fill-rule="evenodd" stroke="#201A45" stroke-opacity="1" stroke-width="3.0" d="M10.0,0.0 C16.426778273137014,1.0179016798806948 22.77771054709541,2.4674605277054944 29.00968867902419,4.3388373911755815 C30.786885257155063,5.570082326908964 30.154793303572568,8.339458122959224 28.01937735804838,8.677674782351163 C21.592599084911384,7.659773102470469 15.241666810952989,6.210214254645669 9.009688679024192,4.3388373911755815 C7.232492100893316,3.107592455442199 7.864584054475814,0.33821665939193846 10.0,0.0 Z"/>
<path id="q33" stroke="#FFFFFF" stroke-opacity="1" stroke-width="2.0" fill-opacity="0" d="M10.0,0.0 C16.426778273137014,1.0179016798806948 22.77771054709541,2.4674605277054944 29.00968867902419,4.3388373911755815 C30.786885257155063,5.570082326908964 30.154793303572568,8.339458122959224 28.01937735804838,8.677674782351163 C21.592599084911384,7.659773102470469 15.241666810952989,6.210214254645669 9.009688679024192,4.3388373911755815 C7.232492100893316,3.107592455442199 7.864584054475814,0.33821665939193846 10.0,0.0 Z"/>
</defs>
<g transform="translate(101.18481622828287 81.22212299148651) scale(1 -1) rotate(114.0)">
<use xlink:href="#r23" transform="matrix(1.0 0.0 0.0 1.0 0.0 0.0)" fill="#00AAAA" fill-opacity="0"/>
<use xlink:href="#p23" transform="matrix(1.0 0.0 0.0 1.0 0.0 0.0)" fill="#00AAAA" fill-opacity="0"/>
<use xlink:href="#p33" transform="matrix(-0.9009688679024193 0.4338837391175583 -0.4338837391175583 -0.9009688679024193 38.01937735804839 -8.677674782351165)" fill="#00AAAA" fill-opacity="1"/>
<use xlink:href="#p33" transform="matrix(-0.900968867902419 -0.4338837391175583 0.4338837391175583 -0.900968867902419 50.48917339522305 24.31430443171176)" fill="#00AAAA" fill-opacity="1"/>
<use xlink:href="#p33" transform="matrix(-0.22252093395631461 -0.9749279121818237 0.9749279121818237 -0.22252093395631461 32.469796037174675 54.63374613663354)" fill="#00AAAA" fill-opacity="1"/>
<use xlink:href="#p33" transform="matrix(0.6234898018587338 -0.78183148246803 0.78183148246803 0.6234898018587338 -2.4697960371746763 59.44949232470883)" fill="#00AAAA" fill-opacity="1"/>
<use xlink:href="#p33" transform="matrix(1.0000000000000004 -1.332267629550188e-16 1.332267629550188e-16 1.0000000000000004 -28.01937735804839 35.13518789299707)" fill="#00AAAA" fill-opacity="1"/>
<use xlink:href="#p33" transform="matrix(0.6234898018587337 0.7818314824680299 -0.7818314824680299 0.6234898018587337 -24.939592074349342 -1.7763568394002505e-15)" fill="#00AAAA" fill-opacity="1"/>
<use xlink:href="#p33" transform="matrix(-0.22252093395631445 0.9749279121818237 -0.9749279121818237 -0.22252093395631445 4.4504186791262885 -19.498558243636474)" fill="#00AAAA" fill-opacity="1"/>
<use xlink:href="#p30" transform="matrix(-0.900968867902419 0.43388373911755773 -0.43388373911755773 -0.900968867902419 56.03875471609676 1.0658141036401503e-14)" fill="#00AAAA" fill-opacity="1"/>
<use xlink:href="#p30" transform="matrix(0.22252093395631461 0.9749279121818237 -0.9749279121818237 0.22252093395631461 28.01937735804838 35.13518789299707)" fill="#00AAAA" fill-opacity="1"/>
<use xlink:href="#p30" transform="matrix(-0.900968867902419 -0.433883739117558 0.433883739117558 -0.900968867902419 54.93959207434934 43.81286267534823)" fill="#00AAAA" fill-opacity="1"/>
<use xlink:href="#p31" transform="matrix(-0.22252093395631456 -0.974927912181824 0.974927912181824 -0.22252093395631456 1.9806226419516149 78.94805056834531)" fill="#00AAAA" fill-opacity="1"/>
<use xlink:href="#p30" transform="matrix(0.6234898018587337 -0.7818314824680299 0.7818314824680299 0.6234898018587337 -22.469796037174675 59.44949232470883)" fill="#00AAAA" fill-opacity="1"/>
<use xlink:href="#p31" transform="matrix(0.6234898018587336 -0.7818314824680302 0.7818314824680302 0.6234898018587336 -40.48917339522306 50.77181754235767)" fill="#00AAAA" fill-opacity="1"/>
<use xlink:href="#p30" transform="matrix(-0.6234898018587337 -0.7818314824680299 0.7818314824680299 -0.6234898018587337 -12.46979603717467 15.636629649360597)" fill="#00AAAA" fill-opacity="1"/>
<use xlink:href="#p30" transform="matrix(1.0 8.881784197001253e-17 -8.881784197001253e-17 1.0 -40.48917339522305 19.498558243636474)" fill="#00AAAA" fill-opacity="1"/>
<use xlink:href="#p30" transform="matrix(0.22252093395631445 -0.9749279121818237 0.9749279121818237 0.22252093395631445 0.0 0.0)" fill="#00AAAA" fill-opacity="1"/>
<use xlink:href="#p31" transform="matrix(0.6234898018587338 0.7818314824680299 -0.7818314824680299 0.6234898018587338 -8.019377358048386 -35.13518789299707)" fill="#00AAAA" fill-opacity="1"/>
<use xlink:href="#p31" transform="matrix(-0.9009688679024187 -0.4338837391175583 0.4338837391175583 -0.9009688679024187 56.03875471609676 1.0658141036401503e-14)" fill="#00AAAA" fill-opacity="1"/>
<use xlink:href="#p31" transform="matrix(0.6234898018587334 -0.78183148246803 0.78183148246803 0.6234898018587334 20.000000000000007 70.27037578599413)" fill="#00AAAA" fill-opacity="1"/>
<use xlink:href="#p31" transform="matrix(0.900968867902419 0.433883739117558 -0.433883739117558 0.900968867902419 36.92021471630096 35.13518789299707)" fill="#00AAAA" fill-opacity="1"/>
<use xlink:href="#p31" transform="matrix(-0.22252093395631456 -0.9749279121818234 0.9749279121818234 -0.22252093395631456 54.93959207434934 43.81286267534823)" fill="#00AAAA" fill-opacity="1"/>
<use xlink:href="#p31" transform="matrix(1.0000000000000004 -1.7763568394002506e-16 1.7763568394002506e-16 1.0000000000000004 -22.46979603717468 59.44949232470883)" fill="#00AAAA" fill-opacity="1"/>
<use xlink:href="#p31" transform="matrix(-1.0 -8.881784197001253e-17 8.881784197001253e-17 -1.0 -20.489173395223048 19.498558243636474)" fill="#00AAAA" fill-opacity="1"/>
<use xlink:href="#p31" transform="matrix(0.6234898018587335 0.7818314824680298 -0.7818314824680298 0.6234898018587335 -40.48917339522305 19.498558243636474)" fill="#00AAAA" fill-opacity="1"/>
<use xlink:href="#p31" transform="matrix(-0.9009688679024193 0.43388373911755834 -0.43388373911755834 -0.9009688679024193 22.469796037174675 -28.176233025987635)" fill="#00AAAA" fill-opacity="1"/>
<use xlink:href="#p30" transform="matrix(-0.6234898018587336 0.78183148246803 -0.78183148246803 -0.6234898018587336 -8.019377358048386 -35.13518789299707)" fill="#00AAAA" fill-opacity="1"/>
<use xlink:href="#p31" transform="matrix(-0.22252093395631475 0.9749279121818232 -0.9749279121818232 -0.22252093395631475 42.46979603717468 -28.176233025987617)" fill="#00AAAA" fill-opacity="1"/>
<use xlink:href="#p33" transform="matrix(-0.9009688679024186 -0.4338837391175582 0.4338837391175582 -0.9009688679024186 60.489173395223055 -19.498558243636456)" fill="#00AAAA" fill-opacity="1"/>
<use xlink:href="#p30" transform="matrix(0.900968867902419 -0.43388373911755834 0.43388373911755834 0.900968867902419 1.9806226419516264 78.9480505683453)" fill="#00AAAA" fill-opacity="1"/>
<use xlink:href="#p30" transform="matrix(0.2225209339563144 -0.9749279121818235 0.9749279121818235 0.2225209339563144 50.489173395223055 63.311420918984695)" fill="#00AAAA" fill-opacity="1"/>
<use xlink:href="#p31" transform="matrix(0.9009688679024189 -0.4338837391175582 0.4338837391175582 0.9009688679024189 38.01937735804839 8.67767478235117)" fill="#00AAAA" fill-opacity="1"/>
<use xlink:href="#p33" transform="matrix(1.0000000000000002 -1.7763568394002503e-16 1.7763568394002503e-16 1.0000000000000002 -18.019377358048388 78.94805056834531)" fill="#00AAAA" fill-opacity="1"/>
<use xlink:href="#p30" transform="matrix(0.9009688679024196 0.4338837391175583 -0.4338837391175583 0.9009688679024196 -40.48917339522308 50.77181754235767)" fill="#00AAAA" fill-opacity="1"/>
<use xlink:href="#p31" transform="matrix(-0.2225209339563144 0.9749279121818235 -0.9749279121818235 -0.2225209339563144 -20.489173395223048 -19.49855824363647)" fill="#00AAAA" fill-opacity="1"/>
<use xlink:href="#p33" transform="matrix(0.6234898018587334 0.7818314824680297 -0.7818314824680297 0.6234898018587334 -52.958969432397716 35.13518789299707)" fill="#00AAAA" fill-opacity="1"/>
<use xlink:href="#p30" transform="matrix(0.2225209339563144 0.9749279121818235 -0.9749279121818235 0.2225209339563144 -44.939592074349335 3.552713678800501e-15)" fill="#00AAAA" fill-opacity="1"/>
<use xlink:href="#p33" transform="matrix(-0.900968867902419 0.4338837391175583 -0.4338837391175583 -0.900968867902419 9.999999999999998 -43.812862675348235)" fill="#00AAAA" fill-opacity="1"/>
<use xlink:href="#p30" transform="matrix(-1.0000000000000002 0.0 0.0 -1.0000000000000002 42.469796037174675 -28.176233025987635)" fill="#00AAAA" fill-opacity="1"/>
<use xlink:href="#p33" transform="matrix(0.6234898018587334 -0.7818314824680299 0.7818314824680299 0.6234898018587334 38.01937735804839 78.9480505683453)" fill="#00AAAA" fill-opacity="1"/>
<use xlink:href="#p30" transform="matrix(-0.6234898018587335 -0.7818314824680297 0.7818314824680297 -0.6234898018587335 68.50855075327144 15.6366296493606)" fill="#00AAAA" fill-opacity="1"/>
<use xlink:href="#p33" transform="matrix(-0.22252093395631417 0.9749279121818237 -0.9749279121818237 -0.22252093395631417 -40.48917339522305 -19.49855824363647)" fill="#00AAAA" fill-opacity="1"/>
<use xlink:href="#p33" transform="matrix(-0.22252093395631453 -0.9749279121818235 0.9749279121818235 -0.22252093395631453 72.95896943239772 35.13518789299707)" fill="#00AAAA" fill-opacity="1"/>
<use xlink:href="#q23" transform="matrix(1.0 0.0 0.0 1.0 0.0 0.0)"/>
<use xlink:href="#q33" transform="matrix(-0.9009688679024193 0.4338837391175583 -0.4338837391175583 -0.9009688679024193 38.01937735804839 -8.677674782351165)"/>
<use xlink:href="#q33" transform="matrix(-0.900968867902419 -0.4338837391175583 0.4338837391175583 -0.900968867902419 50.48917339522305 24.31430443171176)"/>
<use xlink:href="#q33" transform="matrix(-0.22252093395631461 -0.9749279121818237 0.9749279121818237 -0.22252093395631461 32.469796037174675 54.63374613663354)"/>
<use xlink:href="#q33" transform="matrix(0.6234898018587338 -0.78183148246803 0.78183148246803 0.6234898018587338 -2.4697960371746763 59.44949232470883)"/>
<use xlink:href="#q33" transform="matrix(1.0000000000000004 -1.332267629550188e-16 1.332267629550188e-16 1.0000000000000004 -28.01937735804839 35.13518789299707)"/>
<use xlink:href="#q33" transform="matrix(0.6234898018587337 0.7818314824680299 -0.7818314824680299 0.6234898018587337 -24.939592074349342 -1.7763568394002505e-15)"/>
<use xlink:href="#q33" transform="matrix(-0.22252093395631445 0.9749279121818237 -0.9749279121818237 -0.22252093395631445 4.4504186791262885 -19.498558243636474)"/>
<use xlink:href="#q30" transform="matrix(-0.900968867902419 0.43388373911755773 -0.43388373911755773 -0.900968867902419 56.03875471609676 1.0658141036401503e-14)"/>
<use xlink:href="#q30" transform="matrix(0.22252093395631461 0.9749279121818237 -0.9749279121818237 0.22252093395631461 28.01937735804838 35.13518789299707)"/>
<use xlink:href="#q30" transform="matrix(-0.900968867902419 -0.433883739117558 0.433883739117558 -0.900968867902419 54.93959207434934 43.81286267534823)"/>
<use xlink:href="#q31" transform="matrix(-0.22252093395631456 -0.974927912181824 0.974927912181824 -0.22252093395631456 1.9806226419516149 78.94805056834531)"/>
<use xlink:href="#q30" transform="matrix(0.6234898018587337 -0.7818314824680299 0.7818314824680299 0.6234898018587337 -22.469796037174675 59.44949232470883)"/>
<use xlink:href="#q31" transform="matrix(0.6234898018587336 -0.7818314824680302 0.7818314824680302 0.6234898018587336 -40.48917339522306 50.77181754235767)"/>
<use xlink:href="#q30" transform="matrix(-0.6234898018587337 -0.7818314824680299 0.7818314824680299 -0.6234898018587337 -12.46979603717467 15.636629649360597)"/>
<use xlink:href="#q30" transform="matrix(1.0 8.881784197001253e-17 -8.881784197001253e-17 1.0 -40.48917339522305 19.498558243636474)"/>
<use xlink:href="#q30" transform="matrix(0.22252093395631445 -0.9749279121818237 0.9749279121818237 0.22252093395631445 0.0 0.0)"/>
<use xlink:href="#q31" transform="matrix(0.6234898018587338 0.7818314824680299 -0.7818314824680299 0.6234898018587338 -8.019377358048386 -35.13518789299707)"/>
<use xlink:href="#q31" transform="matrix(-0.9009688679024187 -0.4338837391175583 0.4338837391175583 -0.9009688679024187 56.03875471609676 1.0658141036401503e-14)"/>
<use xlink:href="#q31" transform="matrix(0.6234898018587334 -0.78183148246803 0.78183148246803 0.6234898018587334 20.000000000000007 70.27037578599413)"/>
<use xlink:href="#q31" transform="matrix(0.900968867902419 0.433883739117558 -0.433883739117558 0.900968867902419 36.92021471630096 35.13518789299707)"/>
<use xlink:href="#q31" transform="matrix(-0.22252093395631456 -0.9749279121818234 0.9749279121818234 -0.22252093395631456 54.93959207434934 43.81286267534823)"/>
<use xlink:href="#q31" transform="matrix(1.0000000000000004 -1.7763568394002506e-16 1.7763568394002506e-16 1.0000000000000004 -22.46979603717468 59.44949232470883)"/>
<use xlink:href="#q31" transform="matrix(-1.0 -8.881784197001253e-17 8.881784197001253e-17 -1.0 -20.489173395223048 19.498558243636474)"/>
<use xlink:href="#q31" transform="matrix(0.6234898018587335 0.7818314824680298 -0.7818314824680298 0.6234898018587335 -40.48917339522305 19.498558243636474)"/>
<use xlink:href="#q31" transform="matrix(-0.9009688679024193 0.43388373911755834 -0.43388373911755834 -0.9009688679024193 22.469796037174675 -28.176233025987635)"/>
<use xlink:href="#q30" transform="matrix(-0.6234898018587336 0.78183148246803 -0.78183148246803 -0.6234898018587336 -8.019377358048386 -35.13518789299707)"/>
<use xlink:href="#q31" transform="matrix(-0.22252093395631475 0.9749279121818232 -0.9749279121818232 -0.22252093395631475 42.46979603717468 -28.176233025987617)"/>
<use xlink:href="#q33" transform="matrix(-0.9009688679024186 -0.4338837391175582 0.4338837391175582 -0.9009688679024186 60.489173395223055 -19.498558243636456)"/>
<use xlink:href="#q30" transform="matrix(0.900968867902419 -0.43388373911755834 0.43388373911755834 0.900968867902419 1.9806226419516264 78.9480505683453)"/>
<use xlink:href="#q30" transform="matrix(0.2225209339563144 -0.9749279121818235 0.9749279121818235 0.2225209339563144 50.489173395223055 63.311420918984695)"/>
<use xlink:href="#q31" transform="matrix(0.9009688679024189 -0.4338837391175582 0.4338837391175582 0.9009688679024189 38.01937735804839 8.67767478235117)"/>
<use xlink:href="#q33" transform="matrix(1.0000000000000002 -1.7763568394002503e-16 1.7763568394002503e-16 1.0000000000000002 -18.019377358048388 78.94805056834531)"/>
<use xlink:href="#q30" transform="matrix(0.9009688679024196 0.4338837391175583 -0.4338837391175583 0.9009688679024196 -40.48917339522308 50.77181754235767)"/>
<use xlink:href="#q31" transform="matrix(-0.2225209339563144 0.9749279121818235 -0.9749279121818235 -0.2225209339563144 -20.489173395223048 -19.49855824363647)"/>
<use xlink:href="#q33" transform="matrix(0.6234898018587334 0.7818314824680297 -0.7818314824680297 0.6234898018587334 -52.958969432397716 35.13518789299707)"/>
<use xlink:href="#q30" transform="matrix(0.2225209339563144 0.9749279121818235 -0.9749279121818235 0.2225209339563144 -44.939592074349335 3.552713678800501e-15)"/>
<use xlink:href="#q33" transform="matrix(-0.900968867902419 0.4338837391175583 -0.4338837391175583 -0.900968867902419 9.999999999999998 -43.812862675348235)"/>
<use xlink:href="#q30" transform="matrix(-1.0000000000000002 0.0 0.0 -1.0000000000000002 42.469796037174675 -28.176233025987635)"/>
<use xlink:href="#q33" transform="matrix(0.6234898018587334 -0.7818314824680299 0.7818314824680299 0.6234898018587334 38.01937735804839 78.9480505683453)"/>
<use xlink:href="#q30" transform="matrix(-0.6234898018587335 -0.7818314824680297 0.7818314824680297 -0.6234898018587335 68.50855075327144 15.6366296493606)"/>
<use xlink:href="#q33" transform="matrix(-0.22252093395631417 0.9749279121818237 -0.9749279121818237 -0.22252093395631417 -40.48917339522305 -19.49855824363647)"/>
<use xlink:href="#q33" transform="matrix(-0.22252093395631453 -0.9749279121818235 0.9749279121818235 -0.22252093395631453 72.95896943239772 35.13518789299707)"/>
<path stroke="#201A45" stroke-opacity="1" stroke-width="0.5" fill-opacity="0" d=""/>
</g>
</svg>